<svg width="46" height="51" viewBox="0 0 46 51" fill="none" xmlns="http://www.w3.org/2000/svg">
<g clip-path="url(#clip0_30_2)">
<path d="M31.6695 33.9292C36.9901 25.5803 36.3213 26.6219 36.4746 26.4042C38.4117 23.672 39.4355 20.4562 39.4355 17.1045C39.4355 8.21582 32.2226 0.893555 23.3223 0.893555C14.451 0.893555 7.20898 8.20137 7.20898 17.1045C7.20898 20.4541 8.2543 23.754 10.2549 26.523L14.9748 33.9293C9.92842 34.7048 1.34961 37.0158 1.34961 42.1045C1.34961 43.9595 2.56035 46.603 8.32832 48.663C12.3559 50.1014 17.6808 50.8936 23.3223 50.8936C33.8716 50.8936 45.2949 47.9178 45.2949 42.1045C45.2949 37.0149 36.7262 34.7063 31.6695 33.9292ZM12.7021 24.9116C12.6859 24.8864 12.6691 24.8618 12.6516 24.8376C10.9868 22.5474 10.1387 19.8331 10.1387 17.1045C10.1387 9.77852 16.0377 3.82324 23.3223 3.82324C30.5917 3.82324 36.5059 9.78115 36.5059 17.1045C36.5059 19.8375 35.6737 22.4597 34.099 24.6896C33.9579 24.8757 34.6941 23.7319 23.3223 41.5761L12.7021 24.9116ZM23.3223 47.9639C11.7994 47.9639 4.2793 44.5769 4.2793 42.1045C4.2793 40.4428 8.14336 37.7104 16.7059 36.6454L22.0869 45.0891C22.3559 45.5111 22.8217 45.7666 23.3222 45.7666C23.8227 45.7666 24.2886 45.511 24.5574 45.0891L29.9384 36.6454C38.5011 37.7104 42.3652 40.4428 42.3652 42.1045C42.3652 44.5559 34.9128 47.9639 23.3223 47.9639Z" fill="#2CAA75"/>
<path d="M23.3223 9.78027C19.2837 9.78027 15.998 13.0659 15.998 17.1045C15.998 21.1431 19.2837 24.4287 23.3223 24.4287C27.3608 24.4287 30.6465 21.1431 30.6465 17.1045C30.6465 13.0659 27.3608 9.78027 23.3223 9.78027ZM23.3223 21.499C20.8991 21.499 18.9277 19.5276 18.9277 17.1045C18.9277 14.6813 20.8991 12.71 23.3223 12.71C25.7454 12.71 27.7168 14.6813 27.7168 17.1045C27.7168 19.5276 25.7454 21.499 23.3223 21.499Z" fill="#15161B"/>
</g>
<defs>
<clipPath id="clip0_30_2">
<rect width="45" height="51" fill="white" transform="translate(0.5)"/>
</clipPath>
</defs>
</svg>
