<svg width="20" height="20" viewBox="0 0 20 20" fill="none" xmlns="http://www.w3.org/2000/svg">
<path d="M15.6051 13.082C14.5238 13.082 13.571 13.614 12.9725 14.4229L7.79804 11.7733C7.88395 11.4805 7.94432 11.177 7.94432 10.8568C7.94432 10.4224 7.85527 10.0095 7.70144 9.62973L13.1167 6.37105C13.7194 7.07832 14.6052 7.53709 15.6051 7.53709C17.4156 7.53709 18.8883 6.06436 18.8883 4.2539C18.8883 2.44344 17.4156 0.970703 15.6051 0.970703C13.7946 0.970703 12.3219 2.44344 12.3219 4.2539C12.3219 4.67112 12.4078 5.06689 12.5504 5.43432L7.11896 8.70256C6.51682 8.01629 5.64379 7.57357 4.66113 7.57357C2.85066 7.57357 1.37793 9.04631 1.37793 10.8568C1.37793 12.6672 2.85066 14.14 4.66113 14.14C5.76027 14.14 6.72921 13.5924 7.32544 12.7608L12.4828 15.4018C12.3878 15.7084 12.3219 16.0278 12.3219 16.3652C12.3219 18.1757 13.7946 19.6484 15.6051 19.6484C17.4156 19.6484 18.8883 18.1757 18.8883 16.3652C18.8883 14.5548 17.4156 13.082 15.6051 13.082Z" fill="white"/>
</svg>
