<svg width="168" height="41" viewBox="0 0 168 41" fill="none" xmlns="http://www.w3.org/2000/svg">
<g clip-path="url(#clip0_30_47)">
<path d="M49.1885 28.6463H61.1405V25.0463H53.4365V11.4863H49.1885V28.6463Z" fill="#15161B"/>
<path d="M68.2219 26.2465C66.5179 26.2465 65.6299 24.7585 65.6299 22.5265C65.6299 20.2945 66.5179 18.7825 68.2219 18.7825C69.9259 18.7825 70.8379 20.2945 70.8379 22.5265C70.8379 24.7585 69.9259 26.2465 68.2219 26.2465ZM68.2459 29.0305C72.2059 29.0305 74.7979 26.2225 74.7979 22.5265C74.7979 18.8305 72.2059 16.0225 68.2459 16.0225C64.3099 16.0225 61.6699 18.8305 61.6699 22.5265C61.6699 26.2225 64.3099 29.0305 68.2459 29.0305Z" fill="#15161B"/>
<path d="M81.6517 32.894C83.4757 32.894 85.0837 32.486 86.1637 31.526C87.1477 30.638 87.7957 29.294 87.7957 27.446V16.358H84.0517V17.678H84.0037C83.2837 16.646 82.1797 15.998 80.5477 15.998C77.4997 15.998 75.3877 18.542 75.3877 22.142C75.3877 25.91 77.9557 27.974 80.7157 27.974C82.2037 27.974 83.1397 27.374 83.8597 26.558H83.9557V27.782C83.9557 29.27 83.2597 30.134 81.6037 30.134C80.3077 30.134 79.6597 29.582 79.4437 28.934H75.6517C76.0357 31.502 78.2677 32.894 81.6517 32.894ZM81.6277 25.07C80.1637 25.07 79.2037 23.87 79.2037 22.022C79.2037 20.15 80.1637 18.95 81.6277 18.95C83.2597 18.95 84.1237 20.342 84.1237 21.998C84.1237 23.726 83.3317 25.07 81.6277 25.07Z" fill="#15161B"/>
<path d="M95.4944 26.2465C93.7904 26.2465 92.9024 24.7585 92.9024 22.5265C92.9024 20.2945 93.7904 18.7825 95.4944 18.7825C97.1984 18.7825 98.1104 20.2945 98.1104 22.5265C98.1104 24.7585 97.1984 26.2465 95.4944 26.2465ZM95.5184 29.0305C99.4784 29.0305 102.071 26.2225 102.071 22.5265C102.071 18.8305 99.4784 16.0225 95.5184 16.0225C91.5824 16.0225 88.9424 18.8305 88.9424 22.5265C88.9424 26.2225 91.5824 29.0305 95.5184 29.0305Z" fill="#15161B"/>
<path d="M103.213 28.6463H107.125V16.3583H103.213V28.6463ZM103.213 14.6543H107.125V11.4863H103.213V14.6543Z" fill="#15161B"/>
<path d="M108.821 32.702H112.733V27.374H112.781C113.549 28.406 114.677 29.03 116.261 29.03C119.477 29.03 121.613 26.486 121.613 22.502C121.613 18.806 119.621 15.998 116.357 15.998C114.677 15.998 113.477 16.742 112.637 17.846H112.565V16.358H108.821V32.702ZM115.253 26.006C113.573 26.006 112.613 24.638 112.613 22.646C112.613 20.654 113.477 19.142 115.181 19.142C116.861 19.142 117.653 20.534 117.653 22.646C117.653 24.734 116.741 26.006 115.253 26.006Z" fill="#15161B"/>
<path d="M127.984 29.03C131.2 29.03 133.576 27.638 133.576 24.95C133.576 21.806 131.032 21.254 128.872 20.894C127.312 20.606 125.92 20.486 125.92 19.622C125.92 18.854 126.664 18.494 127.624 18.494C128.704 18.494 129.448 18.83 129.592 19.934H133.192C133 17.51 131.128 15.998 127.648 15.998C124.744 15.998 122.344 17.342 122.344 19.934C122.344 22.814 124.624 23.39 126.76 23.75C128.392 24.038 129.88 24.158 129.88 25.262C129.88 26.054 129.136 26.486 127.96 26.486C126.664 26.486 125.848 25.886 125.704 24.662H122.008C122.128 27.374 124.384 29.03 127.984 29.03Z" fill="#15161B"/>
<path d="M138.888 29.0064C140.592 29.0064 141.672 28.3344 142.56 27.1344H142.632V28.6464H146.376V16.3584H142.464V23.2224C142.464 24.6864 141.648 25.6944 140.304 25.6944C139.056 25.6944 138.456 24.9504 138.456 23.6064V16.3584H134.568V24.4224C134.568 27.1584 136.056 29.0064 138.888 29.0064Z" fill="#15161B"/>
<path d="M148.079 28.646H151.991V21.758C151.991 20.294 152.711 19.262 153.935 19.262C155.111 19.262 155.663 20.03 155.663 21.35V28.646H159.575V21.758C159.575 20.294 160.271 19.262 161.519 19.262C162.695 19.262 163.247 20.03 163.247 21.35V28.646H167.159V20.654C167.159 17.894 165.767 15.998 162.983 15.998C161.399 15.998 160.079 16.67 159.119 18.158H159.071C158.447 16.838 157.223 15.998 155.615 15.998C153.839 15.998 152.663 16.838 151.895 18.11H151.823V16.358H148.079V28.646Z" fill="#15161B"/>
<path fill-rule="evenodd" clip-rule="evenodd" d="M9.21191 3.74435C7.78125 4.74471 6.48755 5.92746 5.3645 7.25888C9.9538 6.83281 15.7843 7.52853 22.5535 10.9132C29.7821 14.5274 35.6029 14.6496 39.6539 13.8682C39.2863 12.7553 38.8235 11.6857 38.2754 10.6689C33.6381 11.158 27.6931 10.5106 20.7647 7.04646C16.3651 4.84666 12.4869 3.94049 9.21191 3.74435ZM35.5665 6.81313C31.9044 2.72148 26.5825 0.146484 20.6591 0.146484C18.9196 0.146484 17.2318 0.368591 15.6228 0.785964C17.802 1.38057 20.117 2.25047 22.5535 3.46875C27.6261 6.00501 32.0055 6.82164 35.5665 6.81313ZM40.52 17.7746C35.626 18.741 28.8679 18.5425 20.7647 14.4909C13.1891 10.7031 7.15961 10.7508 3.09308 11.6545C2.88318 11.7011 2.67822 11.7501 2.47821 11.8011C1.9458 12.959 1.52081 14.1766 1.21588 15.441C1.54157 15.354 1.87811 15.2713 2.22534 15.1941C7.15875 14.0978 14.1292 14.1454 22.5535 18.3576C30.1292 22.1454 36.1587 22.0977 40.2253 21.194C40.3646 21.1631 40.5019 21.1311 40.6369 21.0981C40.6517 20.7828 40.6591 20.4655 40.6591 20.1465C40.6591 19.344 40.6119 18.5525 40.52 17.7746ZM39.9839 25.3188C35.1374 26.1661 28.5761 25.8409 20.7647 21.9353C13.1891 18.1475 7.15961 18.1952 3.09308 19.0989C2.19043 19.2994 1.37842 19.5437 0.66211 19.8016C0.660157 19.9163 0.65918 20.0313 0.65918 20.1465C0.65918 31.1922 9.61347 40.1465 20.6591 40.1465C29.9162 40.1465 37.7044 33.8574 39.9839 25.3188Z" fill="#2CAA75"/>
</g>
<defs>
<clipPath id="clip0_30_47">
<rect width="167" height="41" fill="white" transform="translate(0.5)"/>
</clipPath>
</defs>
</svg>
