<svg width="72" height="81" viewBox="0 0 72 81" fill="none" xmlns="http://www.w3.org/2000/svg">
<g clip-path="url(#clip0_30_97)">
<path fill-rule="evenodd" clip-rule="evenodd" d="M43.0677 49.0907C43.2533 49.5216 43.663 49.8137 44.1309 49.8485C44.1624 49.8508 44.1936 49.8519 44.2249 49.8519C44.6582 49.8519 45.0641 49.6285 45.2949 49.2565L48.3466 44.3388L54.0165 45.4999C54.4767 45.5937 54.9501 45.4248 55.2462 45.061C55.5424 44.6971 55.6117 44.1986 55.4262 43.7677L51.2154 33.9911C51.3442 33.9365 51.476 33.8803 51.6148 33.8209C53.7863 32.8911 55.0567 30.6903 54.7764 28.3449C54.7243 27.9093 54.6757 27.5216 54.6321 27.1737C54.4571 25.778 54.3691 25.0773 54.4636 24.542C54.5581 24.0067 54.8802 23.3784 55.5221 22.1267C55.6822 21.8145 55.8604 21.467 56.0583 21.0753C57.1241 18.9671 56.6828 16.4646 54.9603 14.8483C54.6406 14.548 54.354 14.2824 54.0971 14.0437C53.0657 13.0871 52.548 12.6069 52.2764 12.1362C52.0045 11.6654 51.8475 10.9771 51.5347 9.60573C51.4566 9.26377 51.3697 8.88275 51.2695 8.45545C50.7308 6.15553 48.7841 4.52221 46.4257 4.39106C45.9876 4.36666 45.5975 4.34729 45.2472 4.32982C43.8422 4.25991 43.137 4.2248 42.6262 4.03886C42.1155 3.85292 41.5528 3.42657 40.4315 2.577C40.152 2.36509 39.8404 2.12924 39.4893 1.86631C37.5981 0.450892 35.0573 0.450735 33.1661 1.86631C32.815 2.12924 32.5034 2.36509 32.224 2.577C31.1027 3.42657 30.54 3.85292 30.0292 4.03886C29.5185 4.2248 28.8131 4.25991 27.4083 4.32982C27.0578 4.34729 26.6678 4.36666 26.2298 4.39106C23.8713 4.52221 21.9245 6.15568 21.3859 8.45545C21.2858 8.88275 21.1989 9.26361 21.1208 9.60573C20.8079 10.9771 20.651 11.6656 20.3791 12.1362C20.1073 12.6069 19.5896 13.0871 18.5584 14.0437C18.3013 14.2824 18.0149 14.548 17.6951 14.8483C15.9729 16.4647 15.5314 18.9673 16.597 21.0755C16.7949 21.4669 16.9731 21.8143 17.1331 22.1264C17.775 23.3782 18.0972 24.0066 18.1917 24.5419C18.2862 25.077 18.1982 25.7777 18.0232 27.1732C17.9796 27.5213 17.931 27.9091 17.8789 28.3449C17.5986 30.6903 18.869 32.8911 21.0405 33.8209C21.4439 33.9937 21.8038 34.1454 22.127 34.2816C22.2252 34.323 22.3184 34.3624 22.4095 34.4008L17.2442 45.4949C17.0462 45.9203 17.1011 46.4203 17.3864 46.7928C17.6718 47.1652 18.1405 47.3486 18.603 47.2672L24.3044 46.2711L27.2123 51.2751C27.4385 51.6641 27.8538 51.9017 28.3011 51.9017C28.32 51.9017 28.3392 51.9012 28.3583 51.9004C28.8271 51.8792 29.2452 51.5991 29.4432 51.1738L34.5836 40.1325C35.4083 39.8847 35.9081 39.7598 36.328 39.7598C36.8715 39.7598 37.5463 39.968 38.8906 40.3829C39.0461 40.4309 39.2108 40.4817 39.3835 40.5346L43.0677 49.0907ZM47.9919 41.6947C47.4752 41.589 46.9471 41.8164 46.6689 42.2645L44.4268 45.8778L42.2862 40.9075C43.7554 40.7036 45.1001 39.8803 45.9598 38.5656C46.1999 38.1983 46.4118 37.8702 46.6021 37.5755C47.3653 36.3937 47.7482 35.8006 48.1646 35.4511C48.3515 35.2943 48.5862 35.1526 48.9046 34.9947L52.1577 42.5477L47.9919 41.6947ZM28.1769 47.923L26.0406 44.2463C25.7754 43.7902 25.2543 43.5479 24.7347 43.6385L20.5458 44.3703L24.6359 35.5856C25.0013 35.9486 25.3788 36.5327 26.0522 37.5756C26.2426 37.8704 26.4545 38.1985 26.6946 38.5656C27.7573 40.1909 29.5605 41.0665 31.4246 40.9471L28.1769 47.923ZM36.3271 37.2395C35.47 37.2395 34.6125 37.485 33.0217 37.9759C32.6906 38.078 32.3222 38.1917 31.9075 38.317C30.7083 38.6792 29.489 38.2361 28.8027 37.1869C28.5655 36.8243 28.3562 36.5002 28.1684 36.2092C26.3621 33.4121 26.1728 33.2534 23.1044 31.9603C22.7853 31.8258 22.4298 31.6759 22.0314 31.5053C20.8791 31.0117 20.2306 29.8885 20.3794 28.6437C20.4309 28.2134 20.4789 27.8304 20.522 27.4867C20.9363 24.1832 20.8933 23.9398 19.3738 20.9767C19.2157 20.6685 19.0399 20.3254 18.8445 19.9389C18.2789 18.8201 18.5042 17.5429 19.4184 16.685C19.7343 16.3885 20.0171 16.1262 20.2711 15.8905C22.7122 13.626 22.8357 13.4121 23.5763 10.1661C23.6533 9.8282 23.7391 9.45207 23.8379 9.02996C24.1237 7.80946 25.1173 6.9758 26.369 6.90622C26.8016 6.88213 27.1869 6.86292 27.533 6.84576C30.8585 6.68013 31.0909 6.59558 33.7447 4.58487C34.0209 4.37563 34.3284 4.14262 34.6752 3.88299C35.6789 3.13183 36.9756 3.13183 37.9793 3.88299C38.3262 4.14262 38.6336 4.37563 38.9098 4.58487C41.5637 6.59558 41.796 6.68013 45.1216 6.84576C45.4675 6.86292 45.8529 6.88213 46.2855 6.90622C47.5372 6.9758 48.5307 7.80946 48.8166 9.02996C48.9155 9.45191 49.0013 9.82804 49.0783 10.1659C49.8189 13.4119 49.9423 13.626 52.3835 15.8904C52.6374 16.1261 52.9202 16.3884 53.2362 16.6848C54.1503 17.5428 54.3753 18.8199 53.8099 19.9387C53.6145 20.3254 53.4385 20.6688 53.2803 20.9771C51.7611 23.9398 51.7181 24.1832 52.1325 27.487C52.1755 27.8307 52.2237 28.2134 52.275 28.6436C52.4238 29.8883 51.7753 31.0117 50.6229 31.5051C50.2246 31.6756 49.8691 31.8255 49.5499 31.9601C46.4817 33.2532 46.2925 33.4121 44.4861 36.209C44.2983 36.5001 44.089 36.8242 43.8518 37.1869C43.1658 38.236 41.9475 38.6798 40.747 38.317C40.3323 38.1917 39.9637 38.0779 39.6328 37.9759C38.0417 37.485 37.1842 37.2395 36.3271 37.2395ZM48.8276 20.8809C48.8276 13.988 43.22 8.38035 36.3271 8.38035C29.4344 8.38035 23.8268 13.988 23.8268 20.8809C23.8268 27.7737 29.4344 33.3815 36.3271 33.3815C43.2198 33.3815 48.8276 27.7739 48.8276 20.8809ZM36.3269 30.8624C30.8232 30.8624 26.3457 26.3848 26.3457 20.8809C26.3457 15.3771 30.8232 10.8994 36.3269 10.8994C41.8307 10.8994 46.3084 15.3771 46.3084 20.8809C46.3085 26.3848 41.8307 30.8624 36.3269 30.8624ZM43.2447 17.911L34.6437 25.7166C34.4031 25.9349 34.1001 26.0434 33.7975 26.0434C33.4744 26.0434 33.1519 25.9198 32.9067 25.6745L29.3654 22.1333C28.8736 21.6415 28.8736 20.844 29.3654 20.3522C29.8575 19.8603 30.6547 19.8603 31.1468 20.3522L33.8395 23.0449L41.5518 16.0458C42.0668 15.5785 42.8635 15.6169 43.331 16.1321C43.7984 16.6469 43.7598 17.4436 43.2447 17.911Z" fill="#15161B"/>
<path fill-rule="evenodd" clip-rule="evenodd" d="M68.8058 61.091C70.466 59.431 71.3091 57.3369 71.2441 55.0349L70.6307 33.3813C70.5703 31.2431 68.4445 29.3271 66.1522 29.3271C66.1302 29.3271 66.1083 29.3273 66.0864 29.3276C64.9681 29.3456 61.3219 29.9479 61.3483 36.9468L61.3932 48.7092C61.3943 48.9781 61.3773 49.2393 61.3424 49.4939C61.2536 49.3878 61.1585 49.284 61.0571 49.1826C59.5025 47.6282 56.9566 47.6085 55.261 49.1377C55.2188 49.1757 55.1791 49.2165 55.1426 49.2598C53.2452 51.503 50.914 53.4679 49.0405 55.0466C48.3835 55.6003 47.7632 56.1232 47.2537 56.5823C45.1174 58.5078 44.8322 61.1609 44.8351 63.502L44.8452 71.879L43.759 71.8697C43.0235 71.8629 42.3305 72.1446 41.8046 72.6613C41.2788 73.1782 40.9856 73.8675 40.9793 74.6019L40.9511 77.8786C40.9448 78.6131 41.226 79.3073 41.7429 79.8331C42.2596 80.359 42.9489 80.652 43.6834 80.6583L60.7055 80.8046C60.7135 80.8046 60.7216 80.8047 60.7296 80.8047C61.4551 80.8047 62.1398 80.524 62.6598 80.0128C63.1857 79.4959 63.4787 78.8068 63.485 78.0723L63.5132 74.7956C63.5195 74.0611 63.2383 73.3669 62.7214 72.8411C62.2047 72.3152 61.5154 72.0222 60.7809 72.0159L59.3805 72.004V70.5163L68.8058 61.091ZM60.9941 74.774L60.9659 78.0507C60.9653 78.1298 60.9264 78.1845 60.8938 78.2165C60.8614 78.2486 60.8107 78.2861 60.7269 78.2858L43.7048 78.1395C43.6259 78.1389 43.5711 78.1 43.5392 78.0674C43.5072 78.0348 43.4693 77.9796 43.4701 77.9005L43.4982 74.6238C43.4989 74.5448 43.5378 74.49 43.5703 74.458C43.6025 74.4264 43.6573 74.3888 43.7349 74.3888H43.7371L60.7593 74.535C60.8878 74.5363 60.9953 74.6455 60.9941 74.774ZM47.3643 71.9008L47.3542 63.4992C47.351 60.9337 47.8106 59.472 48.9404 58.4536C49.4186 58.0226 49.9956 57.5362 50.6638 56.9732C52.5896 55.35 54.982 53.3339 57.0037 50.9601C57.7108 50.367 58.6761 50.3644 59.2758 50.9641C59.914 51.6022 59.9148 52.3614 59.2811 53.2207C58.2796 54.3464 57.2266 55.3662 56.1124 56.4443C55.5776 56.962 55.0243 57.4973 54.4663 58.0555C53.9745 58.5473 53.9745 59.3448 54.4665 59.8366C54.7124 60.0825 55.0346 60.2055 55.357 60.2055C55.6794 60.2055 56.0019 60.0825 56.2477 59.8365C56.791 59.2931 57.3365 58.7651 57.8643 58.2545C59.0284 57.128 60.1278 56.064 61.2049 54.8488C61.2106 54.8424 62.0485 53.8174 62.0485 53.8174C63.3098 52.2647 63.9194 50.5906 63.9123 48.6999L63.8674 36.9373C63.8556 33.8198 64.7214 31.8691 66.1267 31.8466C66.1354 31.8464 66.1437 31.8464 66.1522 31.8464C67.0876 31.8464 68.0904 32.6643 68.1126 33.4528L68.726 55.1064C68.7716 56.7211 68.1992 58.1354 67.0245 59.3098L57.2303 69.104C56.9941 69.3402 56.8614 69.6606 56.8614 69.9945V71.9824L47.3643 71.9008ZM44.7099 75.9048C44.9176 75.3822 45.5097 75.127 46.0323 75.3348C46.5548 75.5425 46.81 76.1346 46.6024 76.6572C46.3946 77.1797 45.8026 77.435 45.28 77.2271C44.7573 77.0193 44.5021 76.4273 44.7099 75.9048ZM30.85 72.6616C30.3242 72.1446 29.6295 71.8643 28.8955 71.87L27.8095 71.8793L27.8196 63.5024C27.8224 61.161 27.5373 58.508 25.4009 56.5826C24.8918 56.1233 24.2711 55.6006 23.6143 55.047C21.741 53.4682 19.4096 51.5033 17.5123 49.2601C17.4757 49.2168 17.4362 49.176 17.394 49.138C15.6976 47.6088 13.1516 47.6286 11.5978 49.1829C11.4962 49.2843 11.4013 49.3881 11.3125 49.4942C11.2774 49.2396 11.2605 48.9786 11.2616 48.7096L11.3065 36.9469C11.3329 29.9481 7.68672 29.3459 6.5684 29.3278C6.54636 29.3275 6.52479 29.3273 6.50259 29.3273C4.21037 29.3273 2.08442 31.2434 2.02412 33.3815L1.41072 55.0352C1.3457 57.3372 2.18881 59.4312 3.84889 61.0911L13.2742 70.5166V72.0043L11.8738 72.0163C11.1393 72.0225 10.45 72.3155 9.93327 72.8414C9.41639 73.3673 9.13519 74.0614 9.14149 74.7959L9.16967 78.0726C9.17597 78.8071 9.46897 79.4962 9.99483 80.0131C10.5149 80.5243 11.1994 80.805 11.9251 80.805C11.9331 80.805 11.9413 80.805 11.9492 80.8049L28.9713 80.6586C29.7058 80.6523 30.395 80.3593 30.9118 79.8335C31.4286 79.3076 31.7098 78.6134 31.7035 77.879L31.6754 74.6022C31.6692 73.8678 31.3759 73.1785 30.85 72.6616ZM15.7933 69.9945C15.7933 69.6604 15.6606 69.3402 15.4244 69.104L5.63004 59.3097C4.45551 58.1353 3.88305 56.7211 3.92871 55.1064L4.54211 33.4526C4.56462 32.6569 5.59194 31.8329 6.52794 31.8466C7.93327 31.8691 8.79905 33.8198 8.78724 36.9372L8.74237 48.6999C8.73529 50.5906 9.34491 52.2645 10.6084 53.8201L11.417 54.8101C11.4225 54.8169 11.4443 54.8424 11.4499 54.8488C12.527 56.064 13.6264 57.128 14.7905 58.2545C15.3183 58.7652 15.8637 59.2931 16.4072 59.8365C16.6531 60.0824 16.9754 60.2055 17.2978 60.2055C17.6201 60.2055 17.9426 60.0825 18.1883 59.8366C18.6803 59.3448 18.6803 58.5473 18.1885 58.0555C17.6305 57.4975 17.0772 56.962 16.5424 56.4443C15.4282 55.366 14.3752 54.3464 13.3737 53.2207C12.7402 52.3615 12.7408 51.6023 13.3791 50.9642C13.9791 50.3644 14.9441 50.367 15.6513 50.9601C17.6729 53.3341 20.065 55.3501 21.9912 56.9734C22.6592 57.5365 23.2363 58.0227 23.7146 58.4539C24.8442 59.472 25.3038 60.9339 25.3007 63.4995L25.2906 71.901L15.7935 71.9826L15.7933 69.9945ZM29.1153 78.0676C29.0834 78.1002 29.0286 78.1391 28.9497 78.1397L11.9276 78.2859C11.8471 78.2861 11.7931 78.2488 11.7607 78.2167C11.7281 78.1847 11.6892 78.1301 11.6886 78.0509L11.6604 74.7742C11.6596 74.6951 11.6976 74.6397 11.7295 74.6073C11.7615 74.5749 11.8163 74.5358 11.8952 74.5352L28.9171 74.3889H28.9195C28.9973 74.3889 29.052 74.4265 29.0842 74.4582C29.1168 74.4901 29.1556 74.5449 29.1563 74.624L29.1845 77.9007C29.1852 77.9797 29.1473 78.035 29.1153 78.0676ZM27.9448 75.9048C28.1526 76.4273 27.8974 77.0193 27.3748 77.2271C26.8523 77.435 26.2601 77.1797 26.0524 76.6572C25.8446 76.1346 26.0998 75.5427 26.6224 75.3348C27.1449 75.127 27.7369 75.3822 27.9448 75.9048Z" fill="#2CAA75"/>
</g>
<defs>
<clipPath id="clip0_30_97">
<rect width="71" height="81" fill="white" transform="translate(0.5)"/>
</clipPath>
</defs>
</svg>
