<svg width="53" height="61" viewBox="0 0 53 61" fill="none" xmlns="http://www.w3.org/2000/svg">
<g clip-path="url(#clip0_30_133)">
<path d="M36.0955 34.561C36.0955 37.9737 38.8719 40.75 42.2846 40.75C45.6973 40.75 48.4736 37.9737 48.4736 34.561C48.4736 31.1483 45.6973 28.372 42.2846 28.372C38.8719 28.372 36.0955 31.1483 36.0955 34.561ZM46.5997 34.561C46.5997 36.94 44.6636 38.8761 42.2846 38.8761C39.9055 38.8761 37.9695 36.94 37.9695 34.561C37.9695 32.1819 39.9055 30.2459 42.2846 30.2459C44.6636 30.2459 46.5997 32.1808 46.5997 34.561ZM11.3593 40.75C14.772 40.75 17.5484 37.9737 17.5484 34.561C17.5484 31.1483 14.772 28.372 11.3593 28.372C7.94899 28.372 5.17383 31.1483 5.17383 34.561C5.17383 37.9737 7.94899 40.75 11.3593 40.75ZM11.3593 30.2447C13.7384 30.2447 15.6744 32.1808 15.6744 34.5598C15.6744 36.9389 13.7384 38.8749 11.3593 38.8749C8.98147 38.8749 7.04776 36.9389 7.04776 34.5598C7.04776 32.1808 8.98147 30.2447 11.3593 30.2447ZM26.8231 30.9959C23.4104 30.9959 20.6341 33.7723 20.6341 37.185C20.6341 40.5953 23.4104 43.3705 26.8231 43.3705C30.2358 43.3705 33.0122 40.5953 33.0122 37.185C33.0122 33.7723 30.2358 30.9959 26.8231 30.9959ZM26.8231 41.4965C24.4441 41.4965 22.508 39.5617 22.508 37.185C22.508 34.8059 24.4441 32.8699 26.8231 32.8699C29.2022 32.8699 31.1382 34.8059 31.1382 37.185C31.1394 39.5628 29.2033 41.4965 26.8231 41.4965ZM16.3518 17.7588L20.988 21.1141C21.0126 21.1329 21.0138 21.1411 21.0068 21.1633L19.2278 26.6035C18.9629 27.3969 19.2407 28.2606 19.9145 28.7481C20.252 28.9954 20.647 29.1197 21.0431 29.1197C21.4381 29.1197 21.833 28.9966 22.1693 28.7505L26.802 25.3741C26.8208 25.3601 26.8243 25.3601 26.8454 25.3753L31.4757 28.7528C32.152 29.2427 33.0579 29.2415 33.7235 28.7528C34.3986 28.2641 34.6787 27.4039 34.4197 26.6094L32.6407 21.168C32.6325 21.1422 32.6336 21.1329 32.6535 21.1188L37.2944 17.76C37.9671 17.2725 38.2484 16.4135 37.9917 15.6189C37.7351 14.829 37.0026 14.2969 36.1682 14.2969L30.4433 14.3098C30.4187 14.3098 30.4081 14.3028 30.4011 14.2817L28.6432 8.82981C28.3877 8.0364 27.6552 7.50317 26.822 7.50317C25.9887 7.50317 25.2562 8.0364 25.0008 8.82981L23.2405 14.2793C23.2311 14.3086 23.2206 14.3098 23.203 14.3098L17.4699 14.2969C16.6378 14.2969 15.9065 14.8278 15.6487 15.62C15.3943 16.4146 15.6768 17.276 16.3518 17.7588ZM17.4324 16.1966C17.4382 16.1767 17.4452 16.1697 17.4699 16.1697L23.203 16.1826C24.0351 16.1826 24.7664 15.6505 25.0242 14.8559L26.7845 9.40406C26.7927 9.37945 26.7973 9.37593 26.8231 9.37593C26.8489 9.37593 26.8536 9.37945 26.8618 9.40406L28.6197 14.8583C28.8775 15.6505 29.6112 16.1826 30.4468 16.1826L36.1717 16.1697C36.1987 16.1697 36.2034 16.1755 36.2104 16.1943C36.2198 16.2248 36.2139 16.2283 36.1975 16.2412L31.5519 19.6035C30.8722 20.1016 30.6003 20.9418 30.8605 21.747L32.6407 27.1906C32.6489 27.2152 32.6442 27.2223 32.6219 27.2387C32.6078 27.2492 32.602 27.2539 32.5785 27.2375L27.9529 23.8635C27.6154 23.6162 27.2192 23.492 26.8231 23.492C26.4282 23.492 26.0332 23.615 25.6969 23.8623L21.0654 27.2387C21.0443 27.2539 21.0372 27.2504 21.0185 27.2363C20.9997 27.2223 20.9997 27.2176 21.0079 27.193L22.7893 21.7446C23.0483 20.943 22.7752 20.1039 22.092 19.6023L17.4464 16.2388C17.4288 16.2259 17.4242 16.2224 17.4324 16.1966ZM25.8867 4.67175V0.957867C25.8867 0.439868 26.3063 0.0214844 26.8231 0.0214844C27.34 0.0214844 27.7595 0.44104 27.7595 0.957867V4.67175C27.7595 5.18975 27.34 5.60814 26.8231 5.60814C26.3063 5.60814 25.8867 5.18975 25.8867 4.67175ZM32.8329 6.03121L34.6904 2.8154C34.9494 2.36771 35.5225 2.21419 35.9701 2.47202C36.4178 2.73102 36.5714 3.3041 36.3124 3.75178L34.4548 6.96759C34.2814 7.26761 33.9661 7.43637 33.6427 7.43637C33.4833 7.43637 33.3227 7.39535 33.1751 7.31097C32.7274 7.05197 32.5739 6.47889 32.8329 6.03121ZM37.8253 11.9612C37.5663 11.5136 37.7199 10.9405 38.1675 10.6815L41.3834 8.82395C41.831 8.56495 42.4041 8.71847 42.6631 9.16616C42.9221 9.61384 42.7686 10.1869 42.3209 10.4459L39.1051 12.3034C38.9574 12.389 38.7969 12.4288 38.6375 12.4288C38.314 12.4288 37.9988 12.2613 37.8253 11.9612ZM17.3351 3.75178C17.0761 3.3041 17.2296 2.73102 17.6773 2.47202C18.125 2.21302 18.698 2.36654 18.957 2.8154L20.8146 6.03121C21.0736 6.47889 20.9201 7.05197 20.4724 7.31097C20.3247 7.39652 20.1642 7.43637 20.0048 7.43637C19.6813 7.43637 19.3661 7.26878 19.1926 6.96759L17.3351 3.75178ZM10.9831 9.16616C11.2421 8.71847 11.8152 8.56495 12.2629 8.82395L15.4787 10.6815C15.9264 10.9405 16.0799 11.5136 15.8209 11.9612C15.6475 12.2613 15.3322 12.43 15.0088 12.43C14.8494 12.43 14.6888 12.389 14.5412 12.3046L11.3254 10.4471C10.8777 10.1881 10.7242 9.61501 10.9831 9.16616Z" fill="#15161B"/>
<path d="M43.6931 41.4873H40.8793C37.7666 41.4873 34.9246 43.1257 33.339 45.7485C31.8975 44.7184 30.1349 44.1089 28.2317 44.1089H25.4155C23.5111 44.1089 21.7485 44.7184 20.3058 45.7497C18.7213 43.1269 15.8794 41.4873 12.7679 41.4873H9.95403C5.09632 41.4873 1.14453 45.4379 1.14453 50.2945V55.1076C1.14453 56.3722 2.17233 57.3999 3.43685 57.3999H16.6083V57.7293C16.6083 58.9938 17.6361 60.0216 18.9006 60.0216H34.7465C36.011 60.0216 37.0388 58.9938 37.0388 57.7293V57.3999H50.2079C51.4725 57.3999 52.5002 56.3722 52.5002 55.1076V50.2945C52.4991 45.4379 48.5485 41.4873 43.6931 41.4873ZM43.6931 43.3612C43.972 43.3612 44.2451 43.38 44.5158 43.4116L42.2868 47.2697L40.0577 43.4105C40.3284 43.3776 40.6027 43.3612 40.8804 43.3612H43.6931ZM28.2317 45.9817C28.5094 45.9817 28.7825 46.0005 29.0508 46.0321L26.8218 49.8937L24.5928 46.0333C24.8623 46.0016 25.1365 45.9829 25.4155 45.9829H28.2317V45.9817ZM12.7679 43.3612C13.0456 43.3612 13.3198 43.3788 13.5906 43.4105L11.3615 47.2685L9.13249 43.4105C9.40204 43.3788 9.67628 43.3601 9.9552 43.3601H12.7679V43.3612ZM3.43685 55.526C3.20949 55.526 3.01847 55.335 3.01847 55.1076V50.2945C3.01847 47.4279 4.76818 44.9621 7.25504 43.9085L10.0829 48.8026C10.3501 49.2667 10.8283 49.5432 11.3592 49.5432C11.8924 49.5432 12.3717 49.2667 12.6389 48.8026L15.4657 43.9097C16.9025 44.5191 18.1131 45.6079 18.876 47.0247C17.4674 48.5869 16.6083 50.6542 16.6083 52.9184V55.526H3.43685ZM35.1649 57.7281C35.1649 57.9554 34.9727 58.1465 34.7465 58.1465H18.9006C18.6698 58.1465 18.4823 57.959 18.4823 57.7281V52.9173C18.4823 50.9648 19.2944 49.1987 20.5964 47.9377C20.6351 47.906 20.6714 47.8721 20.7043 47.8345C21.2902 47.2908 21.9688 46.8454 22.7153 46.529L25.5432 51.4254C25.8092 51.8871 26.2886 52.1637 26.823 52.1637C27.3621 52.1637 27.8391 51.886 28.1016 51.4219L30.9283 46.5278C31.6678 46.8407 32.3405 47.2802 32.9229 47.8158C32.9651 47.865 33.012 47.9107 33.0647 47.9517C34.3586 49.2128 35.1649 50.973 35.1649 52.9184V57.7281ZM50.6263 55.1076C50.6263 55.335 50.4341 55.526 50.2079 55.526H37.0388V52.9184C37.0388 50.6531 36.1786 48.5846 34.7687 47.0212C35.5317 45.6055 36.7435 44.5179 38.1803 43.9085L41.0047 48.7979C41.2683 49.2643 41.7453 49.5432 42.2832 49.5432C42.8165 49.5432 43.2958 49.2667 43.563 48.8026L46.3909 43.9085C48.8766 44.9633 50.6251 47.4291 50.6251 50.2945V55.1076H50.6263Z" fill="#2CAA75"/>
</g>
<defs>
<clipPath id="clip0_30_133">
<rect width="52" height="61" fill="white" transform="translate(0.5)"/>
</clipPath>
</defs>
</svg>
