<svg width="27" height="27" viewBox="0 0 27 27" fill="none" xmlns="http://www.w3.org/2000/svg">
<g clip-path="url(#clip0_30_58)">
<path d="M24.4137 17.9371C22.8219 17.9371 21.2589 17.6882 19.7778 17.1987C19.052 16.9511 18.1598 17.1782 17.7169 17.6332L14.7935 19.8401C11.4031 18.0303 9.31472 15.9426 7.52966 12.5777L9.67161 9.73039C10.2281 9.17464 10.4277 8.36282 10.1886 7.6011C9.697 6.11219 9.44729 4.54996 9.44729 2.95746C9.44736 1.80703 8.51143 0.871094 7.36107 0.871094H2.58629C1.43593 0.871094 0.5 1.80703 0.5 2.95739C0.5 16.1436 11.2275 26.8711 24.4137 26.8711C25.5641 26.8711 26.5 25.9352 26.5 24.7848V20.0233C26.4999 18.873 25.564 17.9371 24.4137 17.9371Z" fill="white"/>
</g>
<defs>
<clipPath id="clip0_30_58">
<rect width="26" height="27" fill="white" transform="translate(0.5)"/>
</clipPath>
</defs>
</svg>
