<svg width="63" height="62" viewBox="0 0 63 62" fill="none" xmlns="http://www.w3.org/2000/svg">
<g clip-path="url(#clip0_30_103)">
<path d="M59.7599 31.0824C59.7599 31.9195 59.7259 32.7565 59.651 33.5936C59.5762 34.4443 59.4945 35.0703 59.3516 35.8938C59.0794 37.4522 58.6711 38.9834 58.147 40.4738C57.6366 41.9097 57.0582 43.196 56.296 44.5775C55.6086 45.816 54.7375 47.1431 53.9345 48.1843C53.1859 49.1507 52.1855 50.2668 51.2328 51.1923C50.7564 51.655 50.2664 52.0974 49.756 52.5261C49.5711 52.6811 49.3825 52.836 49.1929 52.9883C49.06 53.095 48.7439 53.339 48.8781 53.2339C48.8237 53.2747 48.7692 53.3156 48.7216 53.3564C48.5651 53.4789 48.4017 53.5946 48.2384 53.7103C47.1291 54.5065 45.9654 55.2347 44.7609 55.8676C44.1348 56.1942 43.5019 56.5005 42.8554 56.7795C42.6648 56.8612 42.3994 56.97 42.0727 57.0993C41.7257 57.2355 41.3786 57.3648 41.0247 57.4873C39.7045 57.9432 38.3434 58.3107 36.9687 58.5693C36.6284 58.6306 36.2882 58.6918 35.9479 58.7462C35.8129 58.7732 35.6746 58.7871 35.5386 58.8086C35.5287 58.8101 35.5427 58.8084 35.6008 58.8007C35.4103 58.8279 35.2197 58.8483 35.0292 58.8687C34.3146 58.9504 33.5932 58.998 32.8719 59.0253C31.4019 59.0797 29.932 59.0253 28.4756 58.8551C27.904 58.7871 27.2506 58.6918 26.5361 58.5489C25.8283 58.4128 25.1274 58.2495 24.4332 58.0589C23.7595 57.8752 23.0994 57.671 22.4392 57.4396C22.1398 57.3307 21.8336 57.2218 21.5341 57.1062C21.1258 56.9428 20.9625 56.8748 20.6562 56.7455C19.404 56.1942 18.1859 55.5545 17.0222 54.8264C16.4301 54.4589 15.8516 54.0642 15.2868 53.6558C14.7355 53.2543 14.3544 52.9617 13.7692 52.4649C12.7348 51.587 11.7616 50.6342 10.8565 49.6202C9.91054 48.5586 9.26403 47.7147 8.4678 46.5102C7.60352 45.2036 6.85493 43.8289 6.21522 42.4065C5.9362 41.7804 5.66398 41.0999 5.41219 40.3717C5.14678 39.6095 4.91539 38.8405 4.71123 38.0579C4.30972 36.4927 4.05792 35.0227 3.93542 33.4847C3.42502 27.1285 5.01067 20.8743 8.52905 15.5798C8.71279 15.3007 8.90334 15.0285 9.09389 14.7563C9.18917 14.6202 9.29125 14.4841 9.38653 14.3548C9.44777 14.2731 9.50222 14.1983 9.56346 14.1166C9.58388 14.0894 9.75401 13.8648 9.64513 14.0077C10.0603 13.4701 10.5026 12.9529 10.9518 12.4425C11.8705 11.4217 12.8641 10.4621 13.9189 9.57741C14.1707 9.36645 14.4293 9.15548 14.6947 8.95132C14.7151 8.93771 14.8444 8.83563 14.7219 8.9309C14.8036 8.86965 14.8785 8.80841 14.9601 8.75396C15.103 8.64508 15.2528 8.53619 15.4025 8.42731C15.9537 8.02579 16.5254 7.65149 17.1038 7.29081C18.1937 6.61523 19.3312 6.01128 20.5054 5.49014C20.6629 5.42023 21.0327 5.26371 20.874 5.33086C20.9352 5.30364 20.9965 5.27642 21.0577 5.256C21.2143 5.19475 21.3708 5.1267 21.5273 5.06545C21.8744 4.92934 22.2215 4.80004 22.5753 4.67754C23.2491 4.44616 23.9296 4.23519 24.6238 4.05145C25.2839 3.87451 25.9576 3.72479 26.6313 3.59549C26.9716 3.53424 27.3119 3.47299 27.6522 3.41855C27.7542 3.40494 27.8563 3.39133 27.9584 3.37091C27.9856 3.36411 28.1558 3.34369 27.9992 3.36411C28.2034 3.33688 28.4144 3.30966 28.6253 3.28925C30.0681 3.13272 31.5244 3.08509 32.974 3.13953C33.7089 3.16675 34.4507 3.228 35.1789 3.30966C35.3198 3.32375 35.7358 3.38175 35.5952 3.36543C35.5885 3.36466 35.5694 3.36219 35.5328 3.3573C35.7029 3.37772 35.8799 3.40494 36.05 3.43216C36.4107 3.4866 36.7646 3.54785 37.1252 3.62271C38.5135 3.89492 39.8814 4.26922 41.2221 4.73879C41.5419 4.85448 41.855 4.97017 42.168 5.09267C42.3245 5.15392 42.4811 5.21517 42.6376 5.28322C42.658 5.29003 42.8145 5.35808 42.6716 5.29683C42.7805 5.34447 42.8894 5.39211 42.9983 5.43974C43.6244 5.71877 44.2437 6.0182 44.8493 6.33805C46.0675 6.98456 47.2448 7.71955 48.3609 8.53619C48.4113 8.57261 48.4606 8.60903 48.5097 8.64545C48.6471 8.74744 48.9652 8.98873 48.8305 8.88327C48.8849 8.9241 48.9326 8.96493 48.987 9.00576C49.2728 9.23034 49.5587 9.46172 49.8377 9.69991C50.3685 10.1491 50.8857 10.6186 51.3825 11.1086C51.8589 11.5714 52.3148 12.0546 52.7504 12.5514C52.9681 12.7964 53.1859 13.0482 53.3969 13.3068C53.5058 13.4361 53.6079 13.5654 53.7099 13.6947C53.7712 13.7695 53.8324 13.8512 53.8937 13.926C54.023 14.0894 53.8392 13.8512 53.9753 14.0349C54.8532 15.1918 55.6495 16.41 56.3504 17.6894C57.8476 20.4252 58.8616 23.3583 59.3924 26.5024C59.5217 27.2646 59.5966 27.8771 59.6646 28.6869C59.7327 29.4831 59.7599 30.2862 59.7599 31.0824C59.7599 31.6132 60.2295 32.1304 60.7807 32.1032C61.332 32.076 61.8015 31.654 61.8015 31.0824C61.7879 24.522 59.6238 18.0501 55.6154 12.8508C52.0426 8.21634 47.1904 4.68435 41.6644 2.74482C35.9887 0.757647 29.687 0.553484 23.8888 2.13914C18.3016 3.66354 13.1839 6.84846 9.3525 11.1835C5.06511 16.0357 2.44504 22.1742 1.90742 28.6257C1.34938 35.2677 3.07794 42.0595 6.77326 47.6127C9.95818 52.4173 14.5178 56.2963 19.8124 58.5829C25.4064 60.9988 31.6265 61.6794 37.6152 60.5156C43.3249 59.4064 48.6672 56.5617 52.8184 52.4921C57.2964 48.0958 60.3656 42.284 61.3864 36.0912C61.6586 34.4374 61.8015 32.7633 61.8083 31.0824C61.8083 30.5516 61.3388 30.0344 60.7875 30.0616C60.2295 30.0888 59.7599 30.5107 59.7599 31.0824Z" fill="#2CAA75"/>
<path d="M59.7599 31.0824C59.7599 31.9195 59.7259 32.7565 59.651 33.5936C59.5762 34.4443 59.4945 35.0703 59.3516 35.8938C59.0794 37.4522 58.6711 38.9834 58.147 40.4738C57.6366 41.9097 57.0582 43.196 56.296 44.5775C55.6086 45.816 54.7375 47.1431 53.9345 48.1843C53.1859 49.1507 52.1855 50.2668 51.2328 51.1923C50.7564 51.655 50.2664 52.0974 49.756 52.5261C49.5711 52.6811 49.3825 52.836 49.1929 52.9882C49.06 53.095 48.7439 53.339 48.8781 53.2339C48.8237 53.2747 48.7692 53.3156 48.7216 53.3564C48.5651 53.4789 48.4017 53.5946 48.2384 53.7103C47.1291 54.5065 45.9654 55.2347 44.7609 55.8676C44.1348 56.1942 43.5019 56.5005 42.8554 56.7795C42.6648 56.8612 42.3994 56.97 42.0727 57.0993C41.7257 57.2355 41.3786 57.3648 41.0247 57.4873C39.7045 57.9432 38.3434 58.3107 36.9687 58.5693C36.6284 58.6306 36.2882 58.6918 35.9479 58.7462C35.8129 58.7732 35.6746 58.7871 35.5386 58.8086C35.5287 58.8101 35.5427 58.8084 35.6008 58.8007C35.4103 58.8279 35.2197 58.8483 35.0292 58.8687C34.3146 58.9504 33.5932 58.998 32.8719 59.0253C31.4019 59.0797 29.932 59.0253 28.4756 58.8551C27.904 58.7871 27.2506 58.6918 26.5361 58.5489C25.8283 58.4128 25.1274 58.2495 24.4332 58.0589C23.7595 57.8752 23.0994 57.671 22.4392 57.4396C22.1398 57.3307 21.8336 57.2218 21.5341 57.1062C21.1258 56.9428 20.9625 56.8748 20.6562 56.7455C19.404 56.1942 18.1859 55.5545 17.0222 54.8264C16.4301 54.4589 15.8516 54.0642 15.2868 53.6558C14.7355 53.2543 14.3544 52.9617 13.7692 52.4649C12.7348 51.587 11.7616 50.6342 10.8565 49.6202C9.91054 48.5586 9.26403 47.7147 8.4678 46.5102C7.60352 45.2036 6.85493 43.8289 6.21522 42.4065C5.9362 41.7804 5.66398 41.0999 5.41219 40.3717C5.14678 39.6095 4.91539 38.8405 4.71123 38.0579C4.30972 36.4927 4.05792 35.0227 3.93542 33.4847C3.42502 27.1285 5.01067 20.8743 8.52905 15.5798C8.71279 15.3007 8.90334 15.0285 9.09389 14.7563C9.18917 14.6202 9.29125 14.4841 9.38653 14.3548C9.44777 14.2731 9.50222 14.1983 9.56346 14.1166C9.58388 14.0894 9.75402 13.8648 9.64513 14.0077C10.0603 13.4701 10.5026 12.9529 10.9518 12.4425C11.8705 11.4217 12.8641 10.4621 13.9189 9.57741C14.1707 9.36645 14.4293 9.15548 14.6947 8.95132C14.7151 8.93771 14.8444 8.83563 14.7219 8.9309C14.8036 8.86965 14.8785 8.80841 14.9601 8.75396C15.103 8.64508 15.2528 8.53619 15.4025 8.42731C15.9537 8.02579 16.5254 7.65149 17.1038 7.29081C18.1937 6.61523 19.3312 6.01128 20.5054 5.49014C20.6629 5.42023 21.0327 5.26371 20.874 5.33086C20.9352 5.30364 20.9965 5.27642 21.0577 5.256C21.2143 5.19475 21.3708 5.1267 21.5273 5.06545C21.8744 4.92934 22.2215 4.80004 22.5753 4.67754C23.2491 4.44616 23.9296 4.23519 24.6238 4.05145C25.2839 3.87451 25.9576 3.72479 26.6313 3.59549C26.9716 3.53424 27.3119 3.47299 27.6522 3.41855C27.7542 3.40494 27.8563 3.39133 27.9584 3.37091C27.9856 3.36411 28.1557 3.34369 27.9992 3.36411C28.2034 3.33688 28.4144 3.30966 28.6253 3.28925C30.0681 3.13272 31.5244 3.08509 32.974 3.13953C33.7089 3.16675 34.4507 3.228 35.1789 3.30966C35.3198 3.32375 35.7358 3.38175 35.5952 3.36543C35.5885 3.36466 35.5694 3.36219 35.5328 3.3573C35.7029 3.37772 35.8799 3.40494 36.05 3.43216C36.4107 3.4866 36.7646 3.54785 37.1252 3.62271C38.5135 3.89492 39.8814 4.26922 41.2221 4.73879C41.5419 4.85448 41.855 4.97017 42.168 5.09267C42.3245 5.15392 42.4811 5.21517 42.6376 5.28322C42.658 5.29003 42.8145 5.35808 42.6716 5.29683C42.7805 5.34447 42.8894 5.39211 42.9983 5.43974C43.6244 5.71877 44.2437 6.0182 44.8493 6.33805C46.0675 6.98456 47.2448 7.71955 48.3609 8.53619C48.4113 8.57261 48.4606 8.60903 48.5097 8.64545C48.6471 8.74744 48.9652 8.98873 48.8305 8.88327C48.8849 8.9241 48.9326 8.96493 48.987 9.00576C49.2728 9.23034 49.5587 9.46172 49.8377 9.69991C50.3685 10.1491 50.8857 10.6186 51.3825 11.1086C51.8589 11.5714 52.3148 12.0546 52.7504 12.5514C52.9681 12.7964 53.1859 13.0482 53.3969 13.3068C53.5058 13.4361 53.6079 13.5654 53.7099 13.6947C53.7712 13.7695 53.8324 13.8512 53.8937 13.926C54.023 14.0894 53.8392 13.8512 53.9753 14.0349C54.8532 15.1918 55.6495 16.41 56.3504 17.6894C57.8476 20.4252 58.8616 23.3583 59.3924 26.5024C59.5217 27.2646 59.5966 27.8771 59.6646 28.6869C59.7327 29.4831 59.7599 30.2862 59.7599 31.0824ZM59.7599 31.0824C59.7599 31.6132 60.2295 32.1304 60.7807 32.1032C61.332 32.076 61.8015 31.654 61.8015 31.0824C61.7879 24.522 59.6238 18.0501 55.6154 12.8508C52.0426 8.21634 47.1904 4.68435 41.6644 2.74482C35.9887 0.757647 29.687 0.553484 23.8888 2.13914C18.3016 3.66354 13.1839 6.84846 9.3525 11.1835C5.06511 16.0357 2.44504 22.1742 1.90742 28.6257C1.34938 35.2677 3.07794 42.0595 6.77326 47.6127C9.95818 52.4173 14.5178 56.2963 19.8124 58.5829C25.4064 60.9988 31.6265 61.6794 37.6152 60.5156C43.3249 59.4064 48.6672 56.5617 52.8184 52.4921C57.2964 48.0958 60.3656 42.284 61.3864 36.0912C61.6586 34.4374 61.8015 32.7633 61.8083 31.0824C61.8083 30.5516 61.3388 30.0344 60.7875 30.0616C60.2295 30.0888 59.7599 30.5107 59.7599 31.0824Z" stroke="#2CAA75"/>
<path d="M46.1634 31.0818C46.1634 32.613 46.1022 34.1442 45.9729 35.6686C45.9116 36.3899 45.8368 37.1045 45.7483 37.8259C45.7415 37.9007 45.7279 37.9756 45.7211 38.0505C45.6734 38.4111 45.7347 37.962 45.7075 38.1661C45.687 38.3295 45.6598 38.4996 45.6326 38.6629C45.5782 39.0304 45.5169 39.3911 45.4557 39.7586C45.0065 42.3855 44.3396 44.9783 43.4072 47.4759C43.3052 47.7481 43.2031 48.0203 43.0942 48.2857C43.0329 48.4355 42.9717 48.5784 42.9104 48.7281C42.9785 48.5648 42.9172 48.7145 42.9036 48.7485C42.8696 48.837 42.8288 48.9186 42.7948 49.0071C42.5566 49.5515 42.298 50.096 42.0326 50.6268C41.529 51.6136 40.9709 52.5731 40.3448 53.4919C40.2087 53.696 40.0658 53.8934 39.9161 54.0907C39.8344 54.1996 39.7527 54.3085 39.6711 54.4106C39.8004 54.2404 39.7119 54.3561 39.6847 54.3902C39.6371 54.4514 39.5894 54.5127 39.535 54.5739C39.2219 54.9618 38.8885 55.3429 38.5482 55.7036C38.2147 56.0507 37.8745 56.3841 37.5138 56.6972C37.3505 56.8401 37.1871 56.9694 37.0238 57.1055C36.8809 57.2144 37.0442 57.0919 37.0646 57.0783C37.017 57.1123 36.9694 57.1463 36.9285 57.1804C36.8264 57.2552 36.7244 57.3301 36.6223 57.4049C36.2684 57.6499 35.9077 57.8745 35.5334 58.0787C35.3497 58.174 35.1659 58.2692 34.9754 58.3577C34.9073 58.3849 34.6079 58.5142 34.8937 58.3985C34.7848 58.4394 34.6759 58.487 34.5671 58.5278C34.1791 58.6707 33.7844 58.7932 33.3761 58.8817C33.1924 58.9225 33.0018 58.9566 32.8181 58.9838C32.7934 58.9885 32.7771 58.9918 32.7673 58.994C32.7286 59.0024 32.7824 58.9918 32.7432 58.9974C32.6275 59.011 32.5118 59.0178 32.3961 59.0314C31.9946 59.0586 31.5931 59.0586 31.1916 59.0246C31.0895 59.0178 30.9806 59.0042 30.8785 58.9974C30.8377 58.9906 30.7901 58.9906 30.756 58.9838C31.0283 59.045 30.9058 59.0042 30.8377 58.9906C30.6335 58.9566 30.4226 58.9225 30.2184 58.8749C29.8169 58.7796 29.4154 58.6571 29.0343 58.5142C28.9458 58.4802 28.8573 58.4462 28.7621 58.4053C29.0615 58.5278 28.7076 58.3781 28.6464 58.3509C28.449 58.2556 28.2517 58.1603 28.0611 58.0515C27.6868 57.8473 27.3193 57.6159 26.9723 57.3709C26.8906 57.3097 26.8021 57.2484 26.7205 57.1872C26.6728 57.1531 26.6252 57.1191 26.5843 57.0851C26.7817 57.228 26.666 57.1463 26.6252 57.1123C26.4414 56.9626 26.2577 56.8129 26.0808 56.6563C25.3458 56.0098 24.672 55.2885 24.0596 54.5195C24.0119 54.4582 23.8418 54.2404 23.9711 54.4106C23.8894 54.3017 23.8078 54.1996 23.7261 54.0907C23.5628 53.873 23.4062 53.6484 23.2565 53.4238C22.9571 52.9814 22.6713 52.5255 22.399 52.0627C21.8138 51.0623 21.2966 50.0279 20.8338 48.9663C20.8134 48.9186 20.6569 48.558 20.7317 48.7349C20.6705 48.5852 20.6092 48.4423 20.548 48.2925C20.4255 47.9931 20.3098 47.6937 20.2009 47.3874C19.9831 46.7954 19.779 46.2033 19.5884 45.6044C19.1869 44.3318 18.8466 43.0388 18.5676 41.7322C18.4179 41.0448 18.2886 40.3507 18.1661 39.6497C18.1117 39.3231 18.0572 38.9964 18.0096 38.6629C17.9824 38.4996 17.9619 38.3295 17.9347 38.1661C17.9075 37.9552 17.9687 38.4111 17.9211 38.0505C17.9075 37.9416 17.8939 37.8259 17.8803 37.717C17.6965 36.247 17.5808 34.7703 17.5196 33.2867C17.4039 30.3059 17.5196 27.3048 17.8939 24.3444C17.9347 24.0178 17.9619 23.8476 18.0164 23.4529C18.0708 23.0854 18.1321 22.7248 18.1933 22.3641C18.3158 21.6699 18.4519 20.9758 18.6016 20.2884C18.8807 19.0022 19.2209 17.7296 19.6225 16.4774C19.8198 15.8649 20.0308 15.2525 20.2554 14.6536C20.3642 14.3678 20.4731 14.0819 20.5888 13.8029C20.6365 13.6872 20.6841 13.5647 20.7317 13.449C20.6501 13.6464 20.7726 13.3606 20.7794 13.3469C20.8134 13.2585 20.8542 13.1768 20.8951 13.0883C21.3578 12.0471 21.8682 11.0263 22.4467 10.0463C22.7257 9.57677 23.0183 9.1072 23.3314 8.65804C23.4811 8.44708 23.6308 8.23611 23.7805 8.02514C23.8418 7.93667 23.9098 7.85501 23.9711 7.76654C23.835 7.94348 23.9507 7.79376 23.9847 7.75293C24.0391 7.67807 24.1004 7.61001 24.1548 7.53516C24.7537 6.79337 25.4138 6.09922 26.1284 5.47313C26.2917 5.33021 26.455 5.20091 26.6184 5.06481C26.8089 4.90828 26.4346 5.19411 26.632 5.05119C26.666 5.02397 26.7068 4.99675 26.7409 4.96953C26.8361 4.90148 26.9246 4.83342 27.0199 4.76537C27.3806 4.51357 27.7549 4.28219 28.1428 4.07803C28.3265 3.98275 28.5103 3.88748 28.7008 3.79901C28.7417 3.77859 28.7825 3.76498 28.8165 3.74456C29.0139 3.64929 28.6464 3.81262 28.7825 3.75817C28.8914 3.71734 29.0003 3.6697 29.1091 3.62887C29.4902 3.48596 29.8713 3.37707 30.2661 3.2886C30.4498 3.24777 30.6404 3.22055 30.8241 3.18652C31.0419 3.14569 30.6267 3.20694 30.7697 3.19333C30.8241 3.18652 30.8717 3.17972 30.9262 3.17291C31.0283 3.1593 31.1371 3.15249 31.2392 3.14569C31.6476 3.11847 32.0627 3.11847 32.4778 3.15249C32.5731 3.1593 32.6684 3.17291 32.7636 3.17972C33.0563 3.20694 32.5731 3.14569 32.8657 3.19333C33.0767 3.22735 33.2808 3.26819 33.485 3.31582C33.8797 3.4111 34.2608 3.5336 34.6419 3.67651C34.6896 3.69693 34.9754 3.81262 34.8189 3.74456C34.6623 3.67651 34.9482 3.80581 34.9958 3.82623C35.1932 3.9215 35.3905 4.01678 35.5811 4.12566C35.9554 4.32982 36.3228 4.56121 36.6699 4.8062C36.7652 4.87425 36.8605 4.94231 36.9489 5.01036C36.983 5.03758 37.0238 5.06481 37.0578 5.09203C36.8537 4.94231 36.9966 5.04439 37.0442 5.08522C37.228 5.23494 37.4117 5.38466 37.5886 5.54118C37.9493 5.86103 38.2896 6.1945 38.6231 6.54157C38.9565 6.89545 39.2764 7.26975 39.5826 7.65085C39.6166 7.69168 39.6507 7.73251 39.6779 7.77334C39.848 7.98431 39.5486 7.60321 39.7119 7.82098C39.7732 7.90945 39.8412 7.99112 39.9025 8.07959C40.0658 8.29736 40.2223 8.52194 40.372 8.74651C41.0049 9.67885 41.5698 10.6588 42.0734 11.666C42.3388 12.19 42.5838 12.714 42.8152 13.2517C42.8424 13.3061 42.8628 13.3674 42.89 13.4218C43.0125 13.7008 42.8492 13.3129 42.9172 13.4831C42.9717 13.6124 43.0261 13.7485 43.0806 13.8778C43.2031 14.1772 43.3188 14.4766 43.4277 14.7829C43.8836 16.0147 44.2715 17.2668 44.605 18.5394C45.3264 21.2888 45.7483 23.9225 45.9729 26.6719C46.1022 28.135 46.1566 29.6118 46.1634 31.0818C46.1634 31.6126 46.633 32.1298 47.1842 32.1026C47.7355 32.0753 48.205 31.6534 48.205 31.0818C48.1982 25.2632 47.3612 19.3289 45.2719 13.8778C43.6795 9.72649 41.3316 5.53438 37.5818 2.96194C36.0438 1.90711 34.2676 1.24018 32.4098 1.10408C30.5791 0.967968 28.7417 1.44435 27.1288 2.29502C23.3382 4.2958 20.7862 8.2293 19.0984 12.0471C16.771 17.3145 15.6889 23.0854 15.4576 28.8224C15.2194 34.7362 15.8659 40.7862 17.6897 46.4279C19.0984 50.7765 21.2694 55.2885 24.8286 58.2828C26.2645 59.4874 27.9318 60.4674 29.7829 60.8621C31.5659 61.2432 33.4442 61.1207 35.1523 60.4742C39.1199 58.9634 41.8964 55.3701 43.7747 51.6952C46.3131 46.7273 47.5653 41.1469 48.0213 35.6141C48.1438 34.1101 48.205 32.5993 48.205 31.0886C48.205 30.5577 47.7355 30.0405 47.1842 30.0678C46.6262 30.0882 46.1634 30.5101 46.1634 31.0818Z" fill="#2CAA75"/>
<path d="M46.1634 31.0818C46.1634 32.613 46.1022 34.1442 45.9729 35.6686C45.9116 36.3899 45.8368 37.1045 45.7483 37.8259C45.7415 37.9007 45.7279 37.9756 45.7211 38.0505C45.6734 38.4111 45.7347 37.962 45.7075 38.1661C45.687 38.3295 45.6598 38.4996 45.6326 38.6629C45.5782 39.0304 45.5169 39.3911 45.4557 39.7586C45.0065 42.3855 44.3396 44.9783 43.4072 47.4759C43.3052 47.7481 43.2031 48.0203 43.0942 48.2857C43.0329 48.4355 42.9717 48.5784 42.9104 48.7281C42.9785 48.5648 42.9172 48.7145 42.9036 48.7485C42.8696 48.837 42.8288 48.9186 42.7948 49.0071C42.5566 49.5515 42.298 50.096 42.0326 50.6268C41.529 51.6136 40.9709 52.5731 40.3448 53.4919C40.2087 53.696 40.0658 53.8934 39.9161 54.0907C39.8344 54.1996 39.7527 54.3085 39.6711 54.4106C39.8004 54.2404 39.7119 54.3561 39.6847 54.3902C39.6371 54.4514 39.5894 54.5127 39.535 54.5739C39.2219 54.9618 38.8885 55.3429 38.5482 55.7036C38.2147 56.0507 37.8745 56.3841 37.5138 56.6972C37.3505 56.8401 37.1871 56.9694 37.0238 57.1055C36.8809 57.2144 37.0442 57.0919 37.0646 57.0783C37.017 57.1123 36.9694 57.1463 36.9285 57.1804C36.8264 57.2552 36.7244 57.3301 36.6223 57.4049C36.2684 57.6499 35.9077 57.8745 35.5334 58.0787C35.3497 58.1739 35.1659 58.2692 34.9754 58.3577C34.9073 58.3849 34.6079 58.5142 34.8937 58.3985C34.7848 58.4394 34.6759 58.487 34.5671 58.5278C34.1791 58.6707 33.7844 58.7932 33.3761 58.8817C33.1924 58.9225 33.0018 58.9566 32.8181 58.9838C32.7934 58.9885 32.7771 58.9918 32.7673 58.994C32.7286 59.0024 32.7824 58.9918 32.7432 58.9974C32.6275 59.011 32.5118 59.0178 32.3961 59.0314C31.9946 59.0586 31.5931 59.0586 31.1916 59.0246C31.0895 59.0178 30.9806 59.0042 30.8785 58.9974C30.8377 58.9906 30.7901 58.9906 30.756 58.9838C31.0283 59.045 30.9058 59.0042 30.8377 58.9906C30.6335 58.9566 30.4226 58.9225 30.2184 58.8749C29.8169 58.7796 29.4154 58.6571 29.0343 58.5142C28.9458 58.4802 28.8573 58.4462 28.7621 58.4053C29.0615 58.5278 28.7076 58.3781 28.6464 58.3509C28.449 58.2556 28.2517 58.1603 28.0611 58.0515C27.6868 57.8473 27.3193 57.6159 26.9723 57.3709C26.8906 57.3097 26.8021 57.2484 26.7205 57.1872C26.6728 57.1531 26.6252 57.1191 26.5843 57.0851C26.7817 57.228 26.666 57.1463 26.6252 57.1123C26.4414 56.9626 26.2577 56.8129 26.0808 56.6563C25.3458 56.0098 24.672 55.2885 24.0596 54.5195C24.0119 54.4582 23.8418 54.2404 23.9711 54.4106C23.8894 54.3017 23.8078 54.1996 23.7261 54.0907C23.5628 53.873 23.4062 53.6484 23.2565 53.4238C22.9571 52.9814 22.6713 52.5255 22.399 52.0627C21.8138 51.0623 21.2966 50.0279 20.8338 48.9663C20.8134 48.9186 20.6569 48.558 20.7317 48.7349C20.6705 48.5852 20.6092 48.4423 20.548 48.2925C20.4255 47.9931 20.3098 47.6937 20.2009 47.3874C19.9831 46.7954 19.779 46.2033 19.5884 45.6044C19.1869 44.3318 18.8466 43.0388 18.5676 41.7322C18.4179 41.0448 18.2886 40.3507 18.1661 39.6497C18.1117 39.3231 18.0572 38.9964 18.0096 38.6629C17.9824 38.4996 17.9619 38.3295 17.9347 38.1661C17.9075 37.9552 17.9687 38.4111 17.9211 38.0505C17.9075 37.9416 17.8939 37.8259 17.8803 37.717C17.6965 36.247 17.5808 34.7703 17.5196 33.2867C17.4039 30.3059 17.5196 27.3048 17.8939 24.3444C17.9347 24.0178 17.9619 23.8476 18.0164 23.4529C18.0708 23.0854 18.1321 22.7248 18.1933 22.3641C18.3158 21.6699 18.4519 20.9758 18.6016 20.2884C18.8807 19.0022 19.2209 17.7296 19.6225 16.4774C19.8198 15.8649 20.0308 15.2525 20.2554 14.6536C20.3642 14.3678 20.4731 14.0819 20.5888 13.8029C20.6365 13.6872 20.6841 13.5647 20.7317 13.449C20.6501 13.6464 20.7726 13.3606 20.7794 13.3469C20.8134 13.2585 20.8542 13.1768 20.8951 13.0883C21.3578 12.0471 21.8682 11.0263 22.4467 10.0463C22.7257 9.57677 23.0183 9.1072 23.3314 8.65804C23.4811 8.44708 23.6308 8.23611 23.7805 8.02514C23.8418 7.93667 23.9098 7.85501 23.9711 7.76654C23.835 7.94348 23.9507 7.79376 23.9847 7.75293C24.0391 7.67807 24.1004 7.61001 24.1548 7.53516C24.7537 6.79337 25.4138 6.09922 26.1284 5.47313C26.2917 5.33021 26.455 5.20091 26.6184 5.0648C26.8089 4.90828 26.4346 5.19411 26.632 5.05119C26.666 5.02397 26.7068 4.99675 26.7409 4.96953C26.8361 4.90148 26.9246 4.83342 27.0199 4.76537C27.3806 4.51357 27.7549 4.28219 28.1428 4.07803C28.3265 3.98275 28.5103 3.88748 28.7008 3.79901C28.7417 3.77859 28.7825 3.76498 28.8165 3.74456C29.0139 3.64929 28.6464 3.81262 28.7825 3.75817C28.8914 3.71734 29.0003 3.6697 29.1091 3.62887C29.4902 3.48596 29.8713 3.37707 30.2661 3.2886C30.4498 3.24777 30.6404 3.22055 30.8241 3.18652C31.0419 3.14569 30.6267 3.20694 30.7697 3.19333C30.8241 3.18652 30.8717 3.17972 30.9262 3.17291C31.0283 3.1593 31.1371 3.15249 31.2392 3.14569C31.6476 3.11847 32.0627 3.11847 32.4778 3.15249C32.5731 3.1593 32.6684 3.17291 32.7636 3.17972C33.0563 3.20694 32.5731 3.14569 32.8657 3.19333C33.0767 3.22735 33.2808 3.26819 33.485 3.31582C33.8797 3.4111 34.2608 3.5336 34.6419 3.67651C34.6896 3.69693 34.9754 3.81262 34.8189 3.74456C34.6623 3.67651 34.9482 3.80581 34.9958 3.82623C35.1932 3.9215 35.3905 4.01678 35.5811 4.12566C35.9554 4.32982 36.3228 4.56121 36.6699 4.8062C36.7652 4.87425 36.8605 4.94231 36.9489 5.01036C36.983 5.03758 37.0238 5.06481 37.0578 5.09203C36.8537 4.94231 36.9966 5.04439 37.0442 5.08522C37.228 5.23494 37.4117 5.38466 37.5886 5.54118C37.9493 5.86103 38.2896 6.1945 38.6231 6.54157C38.9565 6.89545 39.2764 7.26975 39.5826 7.65085C39.6166 7.69168 39.6507 7.73251 39.6779 7.77334C39.848 7.98431 39.5486 7.60321 39.7119 7.82098C39.7732 7.90945 39.8412 7.99112 39.9025 8.07959C40.0658 8.29736 40.2223 8.52194 40.372 8.74651C41.0049 9.67885 41.5698 10.6588 42.0734 11.666C42.3388 12.19 42.5838 12.714 42.8152 13.2517C42.8424 13.3061 42.8628 13.3674 42.89 13.4218C43.0125 13.7008 42.8492 13.3129 42.9172 13.4831C42.9717 13.6124 43.0261 13.7485 43.0806 13.8778C43.2031 14.1772 43.3188 14.4766 43.4277 14.7829C43.8836 16.0147 44.2715 17.2668 44.605 18.5394C45.3264 21.2888 45.7483 23.9225 45.9729 26.6719C46.1022 28.135 46.1566 29.6118 46.1634 31.0818ZM46.1634 31.0818C46.1634 31.6126 46.633 32.1298 47.1842 32.1026C47.7355 32.0753 48.205 31.6534 48.205 31.0818C48.1982 25.2632 47.3612 19.3289 45.2719 13.8778C43.6795 9.72649 41.3316 5.53438 37.5818 2.96194C36.0438 1.90711 34.2676 1.24018 32.4098 1.10408C30.5791 0.967968 28.7417 1.44435 27.1288 2.29502C23.3382 4.2958 20.7862 8.2293 19.0984 12.0471C16.771 17.3145 15.6889 23.0854 15.4576 28.8224C15.2194 34.7362 15.8659 40.7862 17.6897 46.4279C19.0984 50.7765 21.2694 55.2885 24.8286 58.2828C26.2645 59.4874 27.9318 60.4674 29.7829 60.8621C31.5659 61.2432 33.4442 61.1207 35.1523 60.4742C39.1199 58.9634 41.8964 55.3701 43.7747 51.6952C46.3131 46.7273 47.5653 41.1469 48.0213 35.6141C48.1438 34.1101 48.205 32.5993 48.205 31.0886C48.205 30.5577 47.7355 30.0405 47.1842 30.0678C46.6262 30.0882 46.1634 30.5101 46.1634 31.0818Z" stroke="#2CAA75"/>
<path d="M59.7604 31.0817C59.7536 35.3282 58.7872 39.5952 56.9225 43.3722C56.4694 44.2959 55.9616 45.1899 55.4121 46.0584C55.3416 46.1697 55.4682 46.304 55.5826 46.2387C55.6948 46.1745 55.6503 45.999 55.521 45.999C55.2514 45.999 54.9824 45.999 54.7108 45.999C53.5403 45.999 52.3697 45.999 51.1924 45.999C49.4502 45.999 47.708 45.999 45.9727 45.999C43.8562 45.999 41.7465 45.999 39.6301 45.999C37.3162 45.999 35.0024 45.999 32.6818 45.999C30.3339 45.999 27.9861 45.999 25.6382 45.999C23.4469 45.999 21.2624 45.999 19.071 45.999C17.2268 45.999 15.3893 45.999 13.5451 45.999C12.218 45.999 10.891 45.999 9.57072 45.999C8.93782 45.999 8.30492 45.9718 7.67202 45.999C7.64954 45.999 7.64152 46.0288 7.66096 46.0401C7.77835 46.1083 7.89582 46.1764 8.01382 46.244C8.13302 46.3123 8.26167 46.1745 8.18823 46.0584C7.72001 45.3183 7.2848 44.5554 6.8826 43.7737C6.38581 42.8141 6.01151 41.9635 5.65083 41.0039C5.27653 39.9967 4.94987 38.9759 4.69127 37.9347C4.55516 37.3902 4.43267 36.839 4.32378 36.2878C4.27614 36.036 4.2285 35.791 4.18767 35.5392C4.16726 35.4031 4.14684 35.267 4.12642 35.1309C4.10601 34.9948 4.08559 34.8518 4.07879 34.8178C3.50714 30.4284 3.92907 26.1137 5.3582 21.9489C6.05799 19.9125 7.00307 17.9638 8.18804 16.0919C8.25842 15.9807 8.13189 15.8462 8.01765 15.9115C7.90556 15.9756 7.94997 16.1507 8.07907 16.1507H8.89019H12.4086H17.6283H23.9709H30.9192H37.9627H44.5299H50.0559H54.0302C54.6631 16.1507 55.296 16.1779 55.9289 16.1507C55.9514 16.1507 55.9594 16.1209 55.94 16.1096C55.8226 16.0414 55.7051 15.9733 55.5871 15.9057C55.4679 15.8374 55.3393 15.9752 55.4127 16.0913C55.881 16.8314 56.3162 17.5943 56.7184 18.376C57.2152 19.3356 57.5895 20.1863 57.9501 21.1458C58.3244 22.153 58.6511 23.1738 58.9097 24.215C59.0458 24.7391 59.1615 25.2699 59.2636 25.8007C59.318 26.0661 59.3657 26.3383 59.4065 26.6037C59.4269 26.7194 59.4405 26.8351 59.4609 26.9508C59.4662 26.9796 59.4704 27.0094 59.4744 27.0394C59.487 27.1346 59.5221 27.3589 59.5086 27.2638C59.6855 28.5365 59.7604 29.8091 59.7604 31.0817C59.7604 31.6125 60.2299 32.1297 60.7812 32.1025C61.3324 32.0753 61.802 31.6533 61.802 31.0817C61.7884 25.7939 60.3933 20.5401 57.7256 15.9669C57.5758 15.7083 57.4193 15.4497 57.256 15.1979C57.011 14.81 56.766 14.2724 56.2828 14.1635C56.1875 14.1431 56.0787 14.1295 55.9834 14.1295C55.8949 14.1227 55.8064 14.1295 55.718 14.1295C55.2892 14.1295 54.8537 14.1295 54.425 14.1295C52.7168 14.1295 51.0087 14.1295 49.3005 14.1295C46.7825 14.1295 44.2577 14.1295 41.7397 14.1295C38.793 14.1295 35.8463 14.1295 32.8927 14.1295C29.8984 14.1295 26.904 14.1295 23.9096 14.1295C21.2556 14.1295 18.5947 14.1295 15.9406 14.1295C14.001 14.1295 12.0683 14.1295 10.1288 14.1295C9.29851 14.1295 8.45464 14.0886 7.62439 14.1295C7.3862 14.1431 7.17523 14.1975 6.97788 14.3472C6.69886 14.565 6.50831 14.9461 6.31776 15.2524C6.14762 15.5246 5.98429 15.7968 5.82096 16.0758C5.15404 17.2327 4.57558 18.4373 4.05837 19.6691C3.04437 22.0986 2.39105 24.6574 2.05079 27.2775C1.36344 32.572 2.13925 37.9959 4.22851 42.9094C4.7253 44.0731 5.29014 45.2028 5.93665 46.2917C6.31775 46.9314 6.7601 47.9998 7.59036 48.0407H7.62439C7.8898 48.0475 8.16201 48.0407 8.43423 48.0407H12.7965H19.8741H28.5101H37.5612H45.8842H52.3085H55.7384H55.9902C56.3305 48.0271 56.5959 47.9046 56.8136 47.6391C57.2152 47.156 57.5282 46.5435 57.8413 45.999C59.1275 43.7533 60.1347 41.3238 60.8016 38.8194C61.4685 36.3014 61.802 33.6881 61.8088 31.0817C61.8088 30.5508 61.3392 30.0336 60.788 30.0609C60.2299 30.0881 59.7604 30.51 59.7604 31.0817Z" fill="#2CAA75"/>
<path d="M59.7604 31.0817C59.7536 35.3282 58.7872 39.5952 56.9225 43.3722C56.4694 44.2959 55.9616 45.1899 55.4121 46.0584C55.3416 46.1697 55.4682 46.304 55.5825 46.2387C55.6948 46.1745 55.6504 45.999 55.521 45.999C55.2514 45.999 54.9824 45.999 54.7108 45.999C53.5403 45.999 52.3697 45.999 51.1924 45.999C49.4502 45.999 47.708 45.999 45.9727 45.999C43.8562 45.999 41.7465 45.999 39.6301 45.999C37.3162 45.999 35.0024 45.999 32.6818 45.999C30.3339 45.999 27.9861 45.999 25.6382 45.999C23.4469 45.999 21.2624 45.999 19.071 45.999C17.2268 45.999 15.3893 45.999 13.5451 45.999C12.218 45.999 10.891 45.999 9.57072 45.999C8.93782 45.999 8.30492 45.9718 7.67202 45.999C7.64954 45.999 7.64152 46.0288 7.66096 46.0401C7.77835 46.1083 7.89582 46.1764 8.01382 46.244C8.13302 46.3123 8.26168 46.1745 8.18823 46.0584C7.72001 45.3183 7.2848 44.5554 6.8826 43.7737C6.38581 42.8141 6.01151 41.9635 5.65083 41.0039C5.27653 39.9967 4.94987 38.9759 4.69127 37.9347C4.55516 37.3902 4.43267 36.839 4.32378 36.2878C4.27614 36.036 4.2285 35.791 4.18767 35.5392C4.16726 35.4031 4.14684 35.267 4.12642 35.1309C4.10601 34.9948 4.08559 34.8518 4.07879 34.8178C3.50714 30.4284 3.92907 26.1137 5.3582 21.9489C6.05799 19.9125 7.00307 17.9638 8.18804 16.0919C8.25842 15.9807 8.13189 15.8462 8.01765 15.9115C7.90556 15.9756 7.94997 16.1507 8.07907 16.1507H8.89019H12.4086H17.6283H23.9709H30.9192H37.9628H44.5299H50.0559H54.0302C54.6631 16.1507 55.296 16.1779 55.9289 16.1507C55.9514 16.1507 55.9594 16.1209 55.94 16.1096C55.8226 16.0414 55.7051 15.9733 55.5871 15.9057C55.4679 15.8374 55.3393 15.9752 55.4127 16.0913C55.881 16.8314 56.3162 17.5943 56.7184 18.376C57.2152 19.3356 57.5895 20.1863 57.9501 21.1458C58.3244 22.153 58.6511 23.1738 58.9097 24.215C59.0458 24.7391 59.1615 25.2699 59.2636 25.8007C59.318 26.0661 59.3657 26.3383 59.4065 26.6037C59.4269 26.7194 59.4405 26.8351 59.4609 26.9508C59.4662 26.9796 59.4704 27.0094 59.4744 27.0394C59.4871 27.1346 59.5221 27.3589 59.5086 27.2638C59.6855 28.5365 59.7604 29.8091 59.7604 31.0817ZM59.7604 31.0817C59.7604 31.6125 60.2299 32.1297 60.7812 32.1025C61.3324 32.0753 61.802 31.6533 61.802 31.0817C61.7884 25.7939 60.3933 20.5401 57.7256 15.9669C57.5758 15.7083 57.4193 15.4497 57.256 15.1979C57.011 14.81 56.766 14.2724 56.2828 14.1635C56.1875 14.1431 56.0787 14.1295 55.9834 14.1295C55.8949 14.1227 55.8064 14.1295 55.718 14.1295C55.2892 14.1295 54.8537 14.1295 54.425 14.1295C52.7168 14.1295 51.0087 14.1295 49.3005 14.1295C46.7825 14.1295 44.2577 14.1295 41.7397 14.1295C38.793 14.1295 35.8463 14.1295 32.8927 14.1295C29.8984 14.1295 26.904 14.1295 23.9096 14.1295C21.2556 14.1295 18.5947 14.1295 15.9406 14.1295C14.001 14.1295 12.0683 14.1295 10.1288 14.1295C9.29851 14.1295 8.45464 14.0886 7.62439 14.1295C7.3862 14.1431 7.17523 14.1975 6.97788 14.3472C6.69886 14.565 6.50831 14.9461 6.31776 15.2524C6.14762 15.5246 5.98429 15.7968 5.82096 16.0758C5.15404 17.2327 4.57558 18.4373 4.05837 19.6691C3.04437 22.0986 2.39105 24.6574 2.05079 27.2775C1.36344 32.572 2.13925 37.9959 4.22851 42.9094C4.7253 44.0731 5.29014 45.2028 5.93665 46.2917C6.31775 46.9314 6.7601 47.9998 7.59036 48.0407H7.62439C7.8898 48.0475 8.16201 48.0407 8.43423 48.0407H12.7965H19.8741H28.5101H37.5612H45.8842H52.3085H55.7384H55.9902C56.3305 48.0271 56.5959 47.9046 56.8136 47.6391C57.2152 47.156 57.5282 46.5435 57.8413 45.999C59.1275 43.7533 60.1347 41.3238 60.8016 38.8194C61.4685 36.3014 61.802 33.6881 61.8088 31.0817C61.8088 30.5508 61.3392 30.0336 60.788 30.0609C60.2299 30.0881 59.7604 30.51 59.7604 31.0817Z" stroke="#2CAA75"/>
<path d="M2.82652 32.1023H4.37815H8.59068H14.838H22.4328H30.783H39.1808H47.041H53.6559H58.4332C59.1818 32.1023 59.9372 32.116 60.6858 32.1023H60.7811C61.3119 32.1023 61.8291 31.6328 61.8019 31.0815C61.7747 30.5303 61.3527 30.0607 60.7811 30.0607C60.2639 30.0607 59.7467 30.0607 59.2295 30.0607C57.8276 30.0607 56.4257 30.0607 55.0169 30.0607C52.9345 30.0607 50.8521 30.0607 48.7696 30.0607C46.238 30.0607 43.7064 30.0607 41.1748 30.0607C38.3914 30.0607 35.608 30.0607 32.8246 30.0607C30.0276 30.0607 27.2238 30.0607 24.4268 30.0607C21.8067 30.0607 19.1866 30.0607 16.5666 30.0607C14.3616 30.0607 12.1567 30.0607 9.95175 30.0607C8.35929 30.0607 6.76684 30.0607 5.17438 30.0607C4.42579 30.0607 3.67039 30.0471 2.9218 30.0607C2.88777 30.0607 2.85374 30.0607 2.82652 30.0607C2.2957 30.0607 1.7785 30.5303 1.80572 31.0815C1.82613 31.6328 2.25487 32.1023 2.82652 32.1023Z" fill="#2CAA75" stroke="#2CAA75"/>
<path d="M32.825 60.0594C32.825 59.5422 32.825 59.025 32.825 58.5078C32.825 57.1059 32.825 55.704 32.825 54.2953C32.825 52.2128 32.825 50.1304 32.825 48.0479C32.825 45.5163 32.825 42.9847 32.825 40.4531C32.825 37.6697 32.825 34.8863 32.825 32.1029C32.825 29.3059 32.825 26.5021 32.825 23.7051C32.825 21.085 32.825 18.465 32.825 15.8449C32.825 13.64 32.825 11.435 32.825 9.23007C32.825 7.63761 32.825 6.04516 32.825 4.4527C32.825 3.70411 32.8386 2.94871 32.825 2.20012C32.825 2.16609 32.825 2.13206 32.825 2.10484C32.825 1.57402 32.3554 1.05682 31.8042 1.08404C31.253 1.11126 30.7834 1.53319 30.7834 2.10484V3.65647V7.869V14.1163V21.7111V30.0613V38.4592V46.3194V52.9342V57.7116C30.7834 58.4602 30.7698 59.2156 30.7834 59.9641V60.0594C30.7834 60.5902 31.253 61.1074 31.8042 61.0802C32.3554 61.0598 32.825 60.6311 32.825 60.0594Z" fill="#2CAA75" stroke="#2CAA75"/>
</g>
<defs>
<clipPath id="clip0_30_103">
<rect width="62" height="62" fill="white" transform="translate(0.5)"/>
</clipPath>
</defs>
</svg>
