<svg width="57" height="51" viewBox="0 0 57 51" fill="none" xmlns="http://www.w3.org/2000/svg">
<g clip-path="url(#clip0_30_81)">
<path d="M45.519 22.0724C45.1002 21.9198 44.6384 22.1359 44.4863 22.5538L43.0214 26.5786L41.5565 22.5538C41.4407 22.2355 41.1381 22.0238 40.7994 22.0238C40.4607 22.0238 40.1581 22.2357 40.0423 22.5538L38.5774 26.5786L37.1125 22.5538C36.9604 22.1358 36.4981 21.9205 36.0799 22.0724C35.6618 22.2246 35.4462 22.6869 35.5984 23.105L37.8204 29.2098C37.9362 29.528 38.2388 29.7399 38.5775 29.7399C38.9162 29.7399 39.2188 29.528 39.3346 29.2098L40.7995 25.185L42.2644 29.2098C42.3802 29.528 42.6828 29.7399 43.0215 29.7399C43.3602 29.7399 43.6628 29.528 43.7786 29.2098L46.0006 23.105C46.1526 22.6869 45.9369 22.2246 45.519 22.0724ZM33.5684 22.0724C33.1497 21.9198 32.6878 22.1359 32.5357 22.5538L31.0708 26.5786L29.6059 22.5538C29.4901 22.2355 29.1875 22.0238 28.8488 22.0238C28.5101 22.0238 28.2076 22.2357 28.0917 22.5538L26.6268 26.5786L25.162 22.5538C25.0098 22.1356 24.5472 21.9203 24.1294 22.0724C23.7112 22.2246 23.4957 22.6869 23.6478 23.105L25.8697 29.2098C25.9856 29.528 26.2881 29.7399 26.6268 29.7399C26.9655 29.7399 27.268 29.528 27.3839 29.2098L28.8488 25.1851L30.3137 29.2099C30.4295 29.5282 30.7321 29.74 31.0708 29.74C31.4095 29.74 31.7121 29.5282 31.8279 29.2099L34.0499 23.1051C34.202 22.6869 33.9863 22.2246 33.5684 22.0724ZM21.6177 22.0724C21.1995 21.9204 20.7372 22.1359 20.585 22.5538L19.1202 26.5786L17.6553 22.5538C17.5394 22.2355 17.2369 22.0238 16.8982 22.0238C16.5595 22.0238 16.257 22.2357 16.1411 22.5538L14.6762 26.5786L13.2114 22.5538C13.0592 22.1356 12.5968 21.9203 12.1788 22.0724C11.7606 22.2246 11.5451 22.6869 11.6972 23.105L13.9191 29.2098C14.035 29.528 14.3375 29.7399 14.6762 29.7399C15.0149 29.7399 15.3174 29.528 15.4333 29.2098L16.8982 25.185L18.3631 29.2098C18.479 29.528 18.7815 29.7399 19.1202 29.7399C19.4589 29.7399 19.7614 29.528 19.8773 29.2098L22.0992 23.105C22.2513 22.6869 22.0357 22.2246 21.6177 22.0724Z" fill="#2CAA75"/>
<path d="M52.7361 18.4873C51.8906 15.7584 50.566 13.1849 48.8515 10.8967C48.8145 10.8298 48.7684 10.7687 48.7147 10.7152C47.3786 8.96495 45.8131 7.38575 44.058 6.03848C39.6629 2.66503 34.404 0.881943 28.8497 0.881836C24.797 0.881836 20.7719 1.87408 17.2101 3.75127C16.8164 3.9587 16.6655 4.44596 16.873 4.83966C17.0805 5.23314 17.5679 5.38418 17.9613 5.17675C20.6595 3.75481 23.6425 2.87611 26.6937 2.59348C24.4707 4.81839 22.4268 7.53475 20.7269 10.4806H11.2542C12.3088 9.274 13.4874 8.17218 14.7734 7.20163C15.1285 6.93362 15.1991 6.42842 14.9311 6.07317C14.6629 5.71815 14.1581 5.64757 13.8026 5.91548C11.9782 7.29262 10.356 8.91683 8.97812 10.7229C8.93236 10.7696 8.89272 10.8222 8.85931 10.879C7.13896 13.1704 5.81091 15.7491 4.96272 18.4873C2.94922 18.6137 1.34961 20.2911 1.34961 22.3359V29.4278C1.34961 31.4727 2.94922 33.1501 4.96272 33.2765C5.80812 36.0052 7.13273 38.5787 8.84706 40.8668C8.88412 40.9338 8.93031 40.9951 8.98424 41.0487C10.3203 42.7989 11.8857 44.378 13.6409 45.7252C18.0361 49.0986 23.295 50.8818 28.8494 50.8818C33.2989 50.8818 37.6682 49.6979 41.4849 47.4581C41.8686 47.2328 41.9971 46.7393 41.7721 46.3554C41.5467 45.9716 41.0531 45.8433 40.6694 46.0683C37.7188 47.7999 34.4144 48.8559 31.0061 49.1704C33.2285 46.9454 35.2723 44.2287 36.9722 41.2831H46.4549C45.6284 42.225 44.7227 43.1063 43.7415 43.9174C43.3986 44.2009 43.3503 44.7087 43.6339 45.0517C43.7931 45.2444 44.0233 45.3441 44.2552 45.3441C44.4361 45.3441 44.6179 45.2835 44.7681 45.1593C48.5535 42.0299 51.299 37.9313 52.7364 33.2765C54.7497 33.1499 56.3492 31.4727 56.3492 29.4279V22.336C56.3492 20.2911 54.7495 18.6137 52.7361 18.4873ZM47.7323 12.092C49.154 14.0375 50.2769 16.1961 51.0405 18.4788H40.5071C39.8355 16.3215 38.9344 14.1641 37.8567 12.092H47.7323ZM43.0767 7.3169C44.3033 8.25844 45.4308 9.32105 46.4441 10.4807H36.972C35.2715 7.53367 33.2266 4.81645 31.0027 2.59112C35.4003 2.98793 39.5381 4.60075 43.0767 7.3169ZM28.8494 2.7617C31.1611 4.8548 33.3089 7.52948 35.1037 10.4807H22.595C24.3898 7.52948 26.5376 4.8548 28.8494 2.7617ZM21.6653 12.092H36.0335C37.1584 14.1504 38.1052 16.3105 38.8153 18.4788H18.8835C19.5936 16.3105 20.5404 14.1504 21.6653 12.092ZM9.96596 12.092H19.842C18.7643 14.1641 17.8632 16.3214 17.1916 18.4788H6.65825C7.42212 16.1944 8.54457 14.0367 9.96596 12.092ZM9.9665 39.6719C8.54478 37.7264 7.42191 35.5677 6.65836 33.2851H17.1919C17.8635 35.4424 18.7644 37.5998 19.8421 39.6719H9.9665ZM14.6221 44.447C13.3954 43.5054 12.268 42.4428 11.2547 41.2832H20.7268C22.4271 44.2298 24.4717 46.9473 26.6949 49.1727C22.2978 48.7756 18.1604 47.1629 14.6221 44.447ZM28.8494 49.0022C26.5376 46.9091 24.3898 44.2344 22.595 41.2831H35.1037C33.3089 44.2344 31.1611 46.9091 28.8494 49.0022ZM36.0335 39.6719H21.6653C20.5404 37.6135 19.5934 35.4533 18.8831 33.2851H38.8157C38.1054 35.4533 37.1584 37.6135 36.0335 39.6719ZM47.7477 39.6719H37.8567C38.9344 37.5998 39.8354 35.4425 40.507 33.2851H51.0414C50.276 35.5854 49.1656 37.7338 47.7477 39.6719ZM54.7379 29.4279C54.7379 30.6663 53.7304 31.6738 52.492 31.6738H52.1129C52.1124 31.6738 52.1118 31.6738 52.1111 31.6738H39.8976C39.8963 31.6738 39.895 31.6738 39.8937 31.6738H17.805C17.8037 31.6738 17.8024 31.6738 17.8011 31.6738H5.58737C5.58673 31.6738 5.58619 31.6738 5.58554 31.6738H5.20667C3.96843 31.6738 2.96093 30.6663 2.96093 29.4279V22.336C2.96093 21.0977 3.96843 20.0902 5.20678 20.0902H5.56331C5.56428 20.0902 5.56535 20.0904 5.56632 20.0904C5.56718 20.0904 5.56804 20.0902 5.56889 20.0902H17.8022H17.8044H39.9064C39.9072 20.0902 39.9081 20.0904 39.9089 20.0904C39.9099 20.0904 39.9109 20.0902 39.9119 20.0902H52.13C52.1309 20.0902 52.1317 20.0904 52.1326 20.0904C52.1336 20.0904 52.1346 20.0902 52.1356 20.0902H52.492C53.7304 20.0902 54.7379 21.0977 54.7379 22.336V29.4279Z" fill="#2CAA75"/>
</g>
<defs>
<clipPath id="clip0_30_81">
<rect width="56" height="51" fill="white" transform="translate(0.5)"/>
</clipPath>
</defs>
</svg>
