<svg width="54" height="41" viewBox="0 0 54 41" fill="none" xmlns="http://www.w3.org/2000/svg">
<g clip-path="url(#clip0_30_116)">
<path d="M5.20588 37.6622C2.26471 34.4269 0.5 30.8975 0.5 25.0151C0.5 14.721 7.85294 5.60334 18.1471 0.897461L20.7941 4.72099C11.0882 10.0151 9.02941 16.7798 8.44118 21.1916C9.91177 20.3092 11.9706 20.0151 14.0294 20.3092C19.3235 20.8975 23.4412 25.0151 23.4412 30.6033C23.4412 33.2504 22.2647 35.8975 20.5 37.9563C18.4412 40.0151 16.0882 40.8975 13.1471 40.8975C9.91177 40.8975 6.97059 39.4269 5.20588 37.6622ZM34.6177 37.6622C31.6765 34.4269 29.9118 30.8975 29.9118 25.0151C29.9118 14.721 37.2647 5.60334 47.5588 0.897461L50.2059 4.72099C40.5 10.0151 38.4412 16.7798 37.8529 21.1916C39.3235 20.3092 41.3824 20.0151 43.4412 20.3092C48.7353 20.8975 52.8529 25.0151 52.8529 30.6033C52.8529 33.2504 51.6765 35.8975 49.9118 37.9563C48.1471 40.0151 45.5 40.8975 42.5588 40.8975C39.3235 40.8975 36.3824 39.4269 34.6177 37.6622Z" fill="#2CAA75"/>
</g>
<defs>
<clipPath id="clip0_30_116">
<rect width="53" height="41" fill="white" transform="translate(0.5)"/>
</clipPath>
</defs>
</svg>
