<svg width="169" height="41" viewBox="0 0 169 41" fill="none" xmlns="http://www.w3.org/2000/svg">
<g clip-path="url(#clip0_30_20)">
<path d="M49.5537 28.1756H61.5057V24.5756H53.8017V11.0156H49.5537V28.1756Z" fill="#15161B"/>
<path d="M68.5872 25.7767C66.8832 25.7767 65.9952 24.2887 65.9952 22.0567C65.9952 19.8247 66.8832 18.3127 68.5872 18.3127C70.2912 18.3127 71.2032 19.8247 71.2032 22.0567C71.2032 24.2887 70.2912 25.7767 68.5872 25.7767ZM68.6112 28.5607C72.5712 28.5607 75.1632 25.7527 75.1632 22.0567C75.1632 18.3607 72.5712 15.5527 68.6112 15.5527C64.6752 15.5527 62.0352 18.3607 62.0352 22.0567C62.0352 25.7527 64.6752 28.5607 68.6112 28.5607Z" fill="#15161B"/>
<path d="M82.0179 32.4233C83.8419 32.4233 85.4499 32.0153 86.5299 31.0553C87.5139 30.1673 88.1619 28.8233 88.1619 26.9753V15.8873H84.4179V17.2073H84.3699C83.6499 16.1753 82.5459 15.5273 80.9139 15.5273C77.8659 15.5273 75.7539 18.0713 75.7539 21.6713C75.7539 25.4393 78.3219 27.5033 81.0819 27.5033C82.5699 27.5033 83.5059 26.9033 84.2259 26.0873H84.3219V27.3113C84.3219 28.7993 83.6259 29.6633 81.9699 29.6633C80.6739 29.6633 80.0259 29.1113 79.8099 28.4633H76.0179C76.4019 31.0313 78.6339 32.4233 82.0179 32.4233ZM81.9939 24.5993C80.5299 24.5993 79.5699 23.3993 79.5699 21.5513C79.5699 19.6793 80.5299 18.4793 81.9939 18.4793C83.6259 18.4793 84.4899 19.8713 84.4899 21.5273C84.4899 23.2553 83.6979 24.5993 81.9939 24.5993Z" fill="#15161B"/>
<path d="M95.8596 25.7767C94.1556 25.7767 93.2676 24.2887 93.2676 22.0567C93.2676 19.8247 94.1556 18.3127 95.8596 18.3127C97.5636 18.3127 98.4756 19.8247 98.4756 22.0567C98.4756 24.2887 97.5636 25.7767 95.8596 25.7767ZM95.8836 28.5607C99.8436 28.5607 102.435 25.7527 102.435 22.0567C102.435 18.3607 99.8436 15.5527 95.8836 15.5527C91.9476 15.5527 89.3076 18.3607 89.3076 22.0567C89.3076 25.7527 91.9476 28.5607 95.8836 28.5607Z" fill="#15161B"/>
<path d="M103.578 28.1756H107.49V15.8876H103.578V28.1756ZM103.578 14.1836H107.49V11.0156H103.578V14.1836Z" fill="#15161B"/>
<path d="M109.188 32.2313H113.099V26.9033H113.147C113.915 27.9353 115.043 28.5593 116.627 28.5593C119.843 28.5593 121.979 26.0153 121.979 22.0313C121.979 18.3353 119.987 15.5273 116.723 15.5273C115.043 15.5273 113.843 16.2713 113.003 17.3753H112.931V15.8873H109.188V32.2313ZM115.619 25.5353C113.939 25.5353 112.979 24.1673 112.979 22.1753C112.979 20.1833 113.844 18.6713 115.548 18.6713C117.228 18.6713 118.019 20.0633 118.019 22.1753C118.019 24.2633 117.107 25.5353 115.619 25.5353Z" fill="#15161B"/>
<path d="M128.348 28.5593C131.564 28.5593 133.94 27.1673 133.94 24.4793C133.94 21.3353 131.396 20.7833 129.236 20.4233C127.676 20.1353 126.284 20.0153 126.284 19.1513C126.284 18.3833 127.028 18.0233 127.988 18.0233C129.068 18.0233 129.812 18.3593 129.956 19.4633H133.556C133.364 17.0393 131.492 15.5273 128.012 15.5273C125.108 15.5273 122.708 16.8713 122.708 19.4633C122.708 22.3433 124.988 22.9193 127.124 23.2793C128.756 23.5673 130.244 23.6873 130.244 24.7913C130.244 25.5833 129.5 26.0153 128.324 26.0153C127.028 26.0153 126.212 25.4153 126.068 24.1913H122.372C122.492 26.9033 124.748 28.5593 128.348 28.5593Z" fill="#15161B"/>
<path d="M139.255 28.5367C140.959 28.5367 142.039 27.8647 142.927 26.6647H142.999V28.1767H146.743V15.8887H142.831V22.7527C142.831 24.2167 142.015 25.2247 140.671 25.2247C139.423 25.2247 138.823 24.4807 138.823 23.1367V15.8887H134.935V23.9527C134.935 26.6887 136.423 28.5367 139.255 28.5367Z" fill="#15161B"/>
<path d="M148.444 28.1753H152.356V21.2873C152.356 19.8233 153.076 18.7913 154.3 18.7913C155.476 18.7913 156.028 19.5593 156.028 20.8793V28.1753H159.94V21.2873C159.94 19.8233 160.636 18.7913 161.884 18.7913C163.06 18.7913 163.612 19.5593 163.612 20.8793V28.1753H167.524V20.1833C167.524 17.4233 166.132 15.5273 163.348 15.5273C161.764 15.5273 160.444 16.1993 159.484 17.6873H159.436C158.812 16.3673 157.588 15.5273 155.98 15.5273C154.204 15.5273 153.028 16.3673 152.26 17.6393H152.188V15.8873H148.444V28.1753Z" fill="#15161B"/>
<path d="M25.6863 1.20034L21.7533 0.146484L18.4389 12.5161L15.4466 1.34872L11.5135 2.40258L14.7465 14.4681L6.69383 6.41546L3.81464 9.29465L12.6474 18.1275L1.64761 15.1801L0.59375 19.1131L12.6124 22.3335C12.4748 21.74 12.402 21.1216 12.402 20.4862C12.402 15.9886 16.048 12.3426 20.5456 12.3426C25.0432 12.3426 28.6892 15.9886 28.6892 20.4862C28.6892 21.1175 28.6173 21.7321 28.4814 22.3221L39.4041 25.2488L40.4579 21.3158L28.3915 18.0826L39.392 15.135L38.3381 11.202L26.2722 14.435L34.3248 6.3824L31.4456 3.50321L22.7354 12.2135L25.6863 1.20034Z" fill="#2CAA75"/>
<path d="M28.4702 22.3682C28.133 23.7938 27.4211 25.0745 26.4443 26.1006L34.3573 34.0137L37.2365 31.1345L28.4702 22.3682Z" fill="#2CAA75"/>
<path d="M26.3645 26.1836C25.3759 27.1933 24.1266 27.9468 22.7256 28.3351L25.605 39.0811L29.538 38.0272L26.3645 26.1836Z" fill="#2CAA75"/>
<path d="M22.5787 28.3739C21.9287 28.541 21.2474 28.6298 20.5453 28.6298C19.7931 28.6298 19.0647 28.5278 18.3732 28.3369L15.4912 39.0927L19.4242 40.1465L22.5787 28.3739Z" fill="#2CAA75"/>
<path d="M18.2341 28.2976C16.8545 27.89 15.6274 27.1269 14.659 26.1143L6.72656 34.0468L9.60575 36.926L18.2341 28.2976Z" fill="#2CAA75"/>
<path d="M14.5936 26.0436C13.6418 25.0246 12.9485 23.761 12.6185 22.3574L1.66016 25.2937L2.71401 29.2267L14.5936 26.0436Z" fill="#2CAA75"/>
</g>
<defs>
<clipPath id="clip0_30_20">
<rect width="168" height="41" fill="white" transform="translate(0.5)"/>
</clipPath>
</defs>
</svg>
