<svg width="65" height="61" viewBox="0 0 65 61" fill="none" xmlns="http://www.w3.org/2000/svg">
<path d="M63.6564 32.9086C63.0952 27.2638 60.5733 21.942 56.5551 17.9237C53.1211 14.4899 48.9181 12.2832 44.4955 11.3021V8.20017C46.3018 7.75079 47.6445 6.11573 47.6445 4.1723C47.6445 1.88349 45.7825 0.0214844 43.4937 0.0214844H34.7037C32.4149 0.0214844 30.5529 1.88349 30.5529 4.1723C30.5529 6.11561 31.8956 7.75066 33.7018 8.20017V11.3107C29.2928 12.296 25.1036 14.4996 21.6794 17.9238C20.9301 18.6732 20.2391 19.4593 19.6066 20.2762C19.576 20.2739 19.5453 20.2716 19.5141 20.2716H10.8143C10.1402 20.2716 9.5935 20.8182 9.5935 21.4924C9.5935 22.1667 10.1402 22.7132 10.8143 22.7132H17.9454C17.0503 24.2118 16.3286 25.7856 15.7792 27.4056H2.49231C1.81817 27.4056 1.27148 27.9522 1.27148 28.6264C1.27148 29.3007 1.81817 29.8473 2.49231 29.8473H15.0893C14.7375 31.3917 14.5355 32.9636 14.4834 34.5398H9.08478C8.41064 34.5398 7.86395 35.0863 7.86395 35.7606C7.86395 36.4349 8.41064 36.9814 9.08478 36.9814H14.5223C14.6254 38.5617 14.8794 40.1336 15.2846 41.6739H7.37562C6.70148 41.6739 6.15479 42.2205 6.15479 42.8947C6.15479 43.569 6.70148 44.1156 7.37562 44.1156H16.0638C17.2614 47.2837 19.133 50.2532 21.6794 52.7996C25.7016 56.8217 31.0288 59.3442 36.6795 59.9025C37.486 59.9821 38.2931 60.0215 39.0991 60.0215C43.863 60.0215 48.5663 58.6428 52.5572 56.0439C53.1222 55.676 53.282 54.9196 52.9141 54.3546C52.5461 53.7896 51.7898 53.6298 51.2248 53.9978C42.4889 59.6865 30.7894 58.4565 23.4059 51.0731C14.7427 42.4098 14.7427 28.3138 23.4059 19.6504C32.0691 10.9873 46.1651 10.9873 54.8284 19.6504C62.2021 27.0242 63.4388 38.7138 57.7689 47.4454C57.4017 48.0109 57.5625 48.767 58.1279 49.1341C58.6936 49.5014 59.4495 49.3406 59.8166 48.7751C62.846 44.1097 64.2097 38.475 63.6564 32.9086ZM32.9946 4.17242C32.9946 3.22994 33.7612 2.46326 34.7037 2.46326H43.4937C44.4362 2.46326 45.2028 3.22994 45.2028 4.17242C45.2028 5.1149 44.4362 5.88158 43.4937 5.88158H43.2747H34.9226H34.7037C33.7612 5.88158 32.9946 5.11478 32.9946 4.17242ZM36.1434 10.891V8.32323H42.0538V10.8866C40.0912 10.6532 38.1057 10.6546 36.1434 10.891Z" fill="#2CAA75"/>
<path d="M55.6915 50.7148C55.3692 50.7148 55.0555 50.8455 54.8285 51.0725C54.6002 51.2996 54.4707 51.6146 54.4707 51.9357C54.4707 52.2567 54.6002 52.5717 54.8285 52.7988C55.0555 53.0271 55.3693 53.1565 55.6915 53.1565C56.0126 53.1565 56.3263 53.0271 56.5546 52.7988C56.7817 52.5717 56.9123 52.2567 56.9123 51.9357C56.9123 51.6146 56.7818 51.2996 56.5546 51.0725C56.3263 50.8455 56.0125 50.7148 55.6915 50.7148Z" fill="#15161B"/>
<path d="M39.1183 16.4229C28.6755 16.4229 20.1797 24.9186 20.1797 35.3614C20.1797 45.8043 28.6755 54.2999 39.1183 54.2999C49.561 54.2999 58.0568 45.8043 58.0568 35.3614C58.0568 24.9186 49.561 16.4229 39.1183 16.4229ZM39.1183 51.8583C30.0218 51.8583 22.6213 44.4578 22.6213 35.3614C22.6213 26.265 30.0218 18.8645 39.1183 18.8645C48.2148 18.8645 55.6152 26.265 55.6152 35.3614C55.6152 44.4578 48.2148 51.8583 39.1183 51.8583Z" fill="#15161B"/>
<path d="M46.8389 25.9122L40.7922 31.9589C40.2865 31.7088 39.7177 31.5676 39.1165 31.5676C38.5151 31.5676 37.9464 31.7088 37.4408 31.9589L34.7346 29.2527C34.2577 28.7759 33.4849 28.7759 33.0079 29.2527C32.5312 29.7294 32.5312 30.5024 33.0079 30.9792L35.7141 33.6854C35.464 34.191 35.3229 34.7598 35.3229 35.3611C35.3229 37.4528 37.0246 39.1547 39.1165 39.1547C41.2084 39.1547 42.9101 37.4528 42.9101 35.3611C42.9101 34.7598 42.7688 34.191 42.5188 33.6854L48.388 27.8161L48.5654 27.6387C49.0422 27.162 49.0422 26.389 48.5654 25.9122C48.0887 25.4355 47.3159 25.4355 46.8389 25.9122ZM39.1165 36.7131C38.371 36.7131 37.7645 36.1066 37.7645 35.3612C37.7645 34.6158 38.371 34.0093 39.1165 34.0093C39.8619 34.0093 40.4684 34.6158 40.4684 35.3612C40.4684 36.1066 39.8619 36.7131 39.1165 36.7131Z" fill="#15161B"/>
<path d="M52.1702 34.1553H51.0392C50.365 34.1553 49.8184 34.7018 49.8184 35.3761C49.8184 36.0503 50.365 36.5969 51.0392 36.5969H52.1702C52.8444 36.5969 53.3911 36.0503 53.3911 35.3761C53.3911 34.7018 52.8444 34.1553 52.1702 34.1553Z" fill="#15161B"/>
<path d="M27.1954 34.126H26.0646C25.3904 34.126 24.8438 34.6725 24.8438 35.3468C24.8438 36.021 25.3904 36.5676 26.0646 36.5676H27.1954C27.8695 36.5676 28.4163 36.021 28.4163 35.3468C28.4163 34.6725 27.8695 34.126 27.1954 34.126Z" fill="#15161B"/>
<path d="M39.1329 24.6605C39.807 24.6605 40.3537 24.1139 40.3537 23.4397V22.3087C40.3537 21.6344 39.807 21.0879 39.1329 21.0879C38.4588 21.0879 37.9121 21.6344 37.9121 22.3087V23.4397C37.9121 24.1139 38.4588 24.6605 39.1329 24.6605Z" fill="#15161B"/>
<path d="M39.1017 46.0625C38.4275 46.0625 37.8809 46.6091 37.8809 47.2833V48.4143C37.8809 49.0885 38.4275 49.6351 39.1017 49.6351C39.7758 49.6351 40.3225 49.0885 40.3225 48.4143V47.2833C40.3225 46.6091 39.7758 46.0625 39.1017 46.0625Z" fill="#15161B"/>
<path d="M2.49229 41.6738C2.17122 41.6738 1.85625 41.8045 1.62918 42.0315C1.40211 42.2586 1.27148 42.5736 1.27148 42.8946C1.27148 43.2169 1.40199 43.5307 1.62918 43.7577C1.85637 43.9848 2.17122 44.1154 2.49229 44.1154C2.81337 44.1154 3.12833 43.9848 3.35528 43.7577C3.58235 43.5307 3.7131 43.2157 3.7131 42.8946C3.7131 42.5736 3.58247 42.2586 3.35528 42.0315C3.12833 41.8045 2.81337 41.6738 2.49229 41.6738Z" fill="#15161B"/>
</svg>
