<svg width="21" height="27" viewBox="0 0 21 27" fill="none" xmlns="http://www.w3.org/2000/svg">
<path d="M10.4997 0.871094C5.33852 0.871094 1.13965 5.09518 1.13965 10.2873C1.13965 16.7308 9.51593 26.1903 9.87256 26.5898C10.2075 26.9652 10.7924 26.9645 11.1267 26.5898C11.4834 26.1903 19.8596 16.7308 19.8596 10.2873C19.8595 5.09518 15.6607 0.871094 10.4997 0.871094ZM10.4997 15.0248C7.90295 15.0248 5.79045 12.8996 5.79045 10.2873C5.79045 7.67498 7.903 5.54978 10.4997 5.54978C13.0963 5.54978 15.2088 7.67503 15.2088 10.2873C15.2088 12.8996 13.0963 15.0248 10.4997 15.0248Z" fill="white"/>
</svg>
