<svg width="60" height="58" viewBox="0 0 60 58" fill="none" xmlns="http://www.w3.org/2000/svg">
<g clip-path="url(#clip0_30_112)">
<path d="M9.60986 10.4997L11.4788 14.3629L15.7183 14.9399C16.5586 15.0528 16.8597 16.0938 16.2827 16.6457L13.1846 19.6184L13.9497 23.8328C14.1002 24.6606 13.2222 25.2878 12.4947 24.8864L8.71931 22.8545L4.94389 24.8864C4.2164 25.2752 3.30077 24.6732 3.50145 23.7701L4.25403 19.6058L1.15593 16.6332C0.553865 16.0562 0.879982 15.0277 1.7329 14.9148L5.95987 14.3378L7.82876 10.4746C8.17997 9.73456 9.25866 9.74711 9.60986 10.4997ZM9.91089 15.7175L8.71931 13.234L7.51519 15.7175C7.37722 16.006 7.08873 16.2318 6.75007 16.282L4.02826 16.6457L6.02258 18.5522C6.24835 18.778 6.37378 19.1041 6.31107 19.4428L5.82189 22.1521L8.23014 20.8601C8.51862 20.7096 8.88237 20.6845 9.1834 20.8601L11.6042 22.1646L11.1276 19.5055C11.0523 19.1794 11.1401 18.8156 11.4035 18.5522L13.3978 16.6457L10.7011 16.282C10.375 16.2443 10.0614 16.0311 9.91089 15.7175ZM30.9579 1.40606L32.8268 5.26928L37.0789 5.84626C37.9192 5.95914 38.2203 7.0002 37.6433 7.56464L34.5452 10.5373L35.3103 14.7517C35.4608 15.5796 34.5828 16.2067 33.8553 15.8053L30.0548 13.7734L26.2794 15.8053C25.5519 16.1942 24.6363 15.5921 24.837 14.689L25.5895 10.5248L22.4789 7.55209C21.8768 6.97512 22.203 5.9466 23.0559 5.83371L27.2828 5.25674L29.1517 1.40606C29.528 0.640941 30.5942 0.653483 30.9579 1.40606ZM31.259 6.62392L30.0548 4.14042L28.8633 6.62392C28.7253 6.9124 28.4368 7.13818 28.0981 7.18835L25.3638 7.55209L27.3581 9.45862C27.5964 9.68439 27.7093 10.0105 27.6466 10.3492L27.1574 13.0584L29.5782 11.7665C29.8667 11.616 30.2179 11.5909 30.5315 11.7665L32.9522 13.071L32.4756 10.4119C32.4004 10.0858 32.4882 9.72202 32.7516 9.45862L34.7459 7.55209L32.0492 7.17581C31.7105 7.15072 31.4095 6.93749 31.259 6.62392ZM52.2934 10.4997L54.1623 14.3629L58.4018 14.9399C59.2422 15.0528 59.5558 16.0938 58.9663 16.6457L55.8682 19.6184L56.6333 23.8328C56.7838 24.6606 55.9058 25.2878 55.1783 24.8864L51.4029 22.8545L47.6275 24.8864C46.9 25.2752 45.9843 24.6732 46.1725 23.7701L46.9251 19.6058L43.827 16.6332C43.2249 16.0562 43.551 15.0277 44.4039 14.9148L48.6309 14.3378L50.4998 10.4746C50.8635 9.73456 51.9422 9.74711 52.2934 10.4997ZM52.5945 15.7175L51.4029 13.234L50.1988 15.7175C50.0608 16.006 49.7849 16.2318 49.4337 16.282L46.7118 16.6457L48.6936 18.5522C48.9194 18.778 49.0448 19.1041 48.9821 19.4428L48.4929 22.1521L50.9137 20.8601C51.2022 20.7096 51.566 20.6845 51.867 20.8601L54.3003 22.1646L53.8237 19.5055C53.7484 19.1794 53.8362 18.8156 54.0996 18.5522L56.0814 16.6457L53.3847 16.282C53.0586 16.2443 52.745 16.0311 52.5945 15.7175ZM25.4014 36.1123C25.1255 35.6357 25.2885 35.0211 25.7651 34.7452C26.2418 34.4692 26.8564 34.6323 27.1323 35.1089L28.4493 37.3917L33.1278 32.7132C33.5167 32.3244 34.1564 32.3244 34.5452 32.7132C34.934 33.102 34.934 33.7417 34.5452 34.1306L28.9385 39.7372C28.4744 40.2013 27.6968 40.101 27.3706 39.5366L25.4014 36.1123ZM30.0548 25.5136C35.511 25.5136 39.9387 29.9412 39.9387 35.3974C39.9387 40.8536 35.511 45.2812 30.0548 45.2812C24.5987 45.2812 20.171 40.8536 20.171 35.3974C20.171 29.9412 24.5987 25.5136 30.0548 25.5136ZM35.6239 29.8283C32.5509 26.7553 27.5588 26.7553 24.4858 29.8283C21.4128 32.9014 21.4128 37.8934 24.4858 40.9664C27.5588 44.0395 32.5509 44.0395 35.6239 40.9664C38.6969 37.8809 38.6969 32.9014 35.6239 29.8283ZM30.0548 19.3048C38.9352 19.3048 46.1349 26.5045 46.1349 35.3848C46.1349 38.7464 45.1063 41.8695 43.3378 44.4534L48.1417 52.7693C48.6058 53.547 47.9661 54.425 47.1383 54.2996L42.2215 53.5219L39.5875 56.758C39.1234 57.3601 38.2579 57.2597 37.9192 56.6577L34.5577 50.8377C31.6227 51.6907 28.4744 51.6907 25.5519 50.8377L22.1904 56.6577C21.8518 57.2597 20.9863 57.3601 20.5222 56.758L17.8882 53.5219L12.9714 54.2996C12.131 54.4376 11.5415 53.5219 11.9428 52.807L16.7719 44.4534C12.4069 38.069 13.2222 29.4771 18.6909 24.0084C21.5884 21.111 25.6146 19.3048 30.0548 19.3048ZM42.0082 46.1467C40.478 47.8525 38.5966 49.2197 36.4643 50.1479L38.9227 54.3999L41.0299 51.8161C41.2682 51.5151 41.632 51.4022 41.9832 51.4649L45.3697 52.0042L42.0082 46.1467ZM23.6329 50.1479C21.5131 49.2197 19.6317 47.8525 18.1014 46.1592L14.7274 52.0042L18.114 51.4649C18.4526 51.4022 18.8289 51.5276 19.0672 51.8161L21.1744 54.3999L23.6329 50.1479ZM40.0139 25.4383C34.5201 19.9445 25.6021 19.9445 20.1083 25.4383C14.6145 30.9321 14.6145 39.8501 20.1083 45.3439C25.6146 50.8377 34.5201 50.8377 40.0139 45.3439C45.5077 39.8501 45.5077 30.9321 40.0139 25.4383Z" fill="white"/>
</g>
<defs>
<clipPath id="clip0_30_112">
<rect width="59" height="58" fill="white" transform="translate(0.5)"/>
</clipPath>
</defs>
</svg>
