<svg width="50" height="51" viewBox="0 0 50 51" fill="none" xmlns="http://www.w3.org/2000/svg">
<path d="M43.0143 4.44155H39.4429C39.4429 2.4725 37.8405 0.870117 35.8715 0.870117C33.9024 0.870117 32.3 2.4725 32.3 4.44155H18.0143C18.0143 2.4725 16.4119 0.870117 14.4429 0.870117C12.4738 0.870117 10.8715 2.4725 10.8715 4.44155H7.30004C4.01789 4.44155 1.34766 7.11178 1.34766 10.3939V44.9177C1.34766 48.1999 4.01789 50.8701 7.30004 50.8701H43.0143C46.2965 50.8701 48.9667 48.1999 48.9667 44.9177V10.3939C48.9667 7.11178 46.2965 4.44155 43.0143 4.44155ZM34.681 4.44155C34.681 3.78559 35.2143 3.25107 35.8715 3.25107C36.5286 3.25107 37.0619 3.78559 37.0619 4.44155V6.8225C37.0619 7.47845 36.5286 8.01297 35.8715 8.01297C35.2143 8.01297 34.681 7.47845 34.681 6.8225V4.44155ZM13.2524 4.44155C13.2524 3.78559 13.7858 3.25107 14.4429 3.25107C15.1 3.25107 15.6334 3.78559 15.6334 4.44155V6.8225C15.6334 7.47845 15.1 8.01297 14.4429 8.01297C13.7858 8.01297 13.2524 7.47845 13.2524 6.8225V4.44155ZM3.72861 10.3939C3.72861 8.42488 5.33099 6.8225 7.30004 6.8225H10.8715C10.8715 8.79155 12.4738 10.3939 14.4429 10.3939C16.4119 10.3939 18.0143 8.79155 18.0143 6.8225H32.3C32.3 8.79155 33.9024 10.3939 35.8715 10.3939C37.8405 10.3939 39.4429 8.79155 39.4429 6.8225H43.0143C44.9834 6.8225 46.5858 8.42488 46.5858 10.3939V15.1558H3.72861V10.3939ZM46.5858 44.9177C46.5858 46.8868 44.9834 48.4892 43.0143 48.4892H7.30004C5.33099 48.4892 3.72861 46.8868 3.72861 44.9177V17.5368H46.5858V44.9177Z" fill="#2CAA75"/>
<path d="M10.8731 30.6312H14.4446C15.7577 30.6312 16.8255 29.5633 16.8255 28.2502V24.6788C16.8255 23.3657 15.7577 22.2979 14.4446 22.2979H10.8731C9.56004 22.2979 8.49219 23.3657 8.49219 24.6788V28.2502C8.49219 29.5633 9.56004 30.6312 10.8731 30.6312ZM10.8731 24.6788H14.4446L14.4469 28.2502H10.8731V24.6788Z" fill="#2CAA75"/>
<path d="M23.3731 30.6312H26.9446C28.2577 30.6312 29.3255 29.5633 29.3255 28.2502V24.6788C29.3255 23.3657 28.2577 22.2979 26.9446 22.2979H23.3731C22.06 22.2979 20.9922 23.3657 20.9922 24.6788V28.2502C20.9922 29.5633 22.06 30.6312 23.3731 30.6312ZM23.3731 24.6788H26.9446L26.947 28.2502H23.3731V24.6788Z" fill="#2CAA75"/>
<path d="M35.8731 30.6312H39.4446C40.7577 30.6312 41.8255 29.5633 41.8255 28.2502V24.6788C41.8255 23.3657 40.7577 22.2979 39.4446 22.2979H35.8731C34.56 22.2979 33.4922 23.3657 33.4922 24.6788V28.2502C33.4922 29.5633 34.56 30.6312 35.8731 30.6312ZM35.8731 24.6788H39.4446L39.4469 28.2502H35.8731V24.6788Z" fill="#2CAA75"/>
<path d="M10.8731 43.7269H14.4446C15.7577 43.7269 16.8255 42.659 16.8255 41.3459V37.7745C16.8255 36.4614 15.7577 35.3936 14.4446 35.3936H10.8731C9.56004 35.3936 8.49219 36.4614 8.49219 37.7745V41.3459C8.49219 42.659 9.56004 43.7269 10.8731 43.7269ZM10.8731 37.7745H14.4446L14.4469 41.3459H10.8731V37.7745Z" fill="#2CAA75"/>
<path d="M23.3731 43.7269H26.9446C28.2577 43.7269 29.3255 42.659 29.3255 41.3459V37.7745C29.3255 36.4614 28.2577 35.3936 26.9446 35.3936H23.3731C22.06 35.3936 20.9922 36.4614 20.9922 37.7745V41.3459C20.9922 42.659 22.06 43.7269 23.3731 43.7269ZM23.3731 37.7745H26.9446L26.947 41.3459H23.3731V37.7745Z" fill="#2CAA75"/>
<path d="M35.8731 43.7269H39.4446C40.7577 43.7269 41.8255 42.659 41.8255 41.3459V37.7745C41.8255 36.4614 40.7577 35.3936 39.4446 35.3936H35.8731C34.56 35.3936 33.4922 36.4614 33.4922 37.7745V41.3459C33.4922 42.659 34.56 43.7269 35.8731 43.7269ZM35.8731 37.7745H39.4446L39.4469 41.3459H35.8731V37.7745Z" fill="#2CAA75"/>
</svg>
