<svg width="172" height="41" viewBox="0 0 172 41" fill="none" xmlns="http://www.w3.org/2000/svg">
<path d="M52.6621 28.1463H64.6141V24.5463H56.9101V10.9863H52.6621V28.1463Z" fill="#15161B"/>
<path d="M71.6946 25.7465C69.9906 25.7465 69.1026 24.2585 69.1026 22.0265C69.1026 19.7945 69.9906 18.2825 71.6946 18.2825C73.3986 18.2825 74.3106 19.7945 74.3106 22.0265C74.3106 24.2585 73.3986 25.7465 71.6946 25.7465ZM71.7186 28.5305C75.6786 28.5305 78.2706 25.7225 78.2706 22.0265C78.2706 18.3305 75.6786 15.5225 71.7186 15.5225C67.7826 15.5225 65.1426 18.3305 65.1426 22.0265C65.1426 25.7225 67.7826 28.5305 71.7186 28.5305Z" fill="#15161B"/>
<path d="M85.1253 32.394C86.9493 32.394 88.5573 31.986 89.6373 31.026C90.6213 30.138 91.2693 28.794 91.2693 26.946V15.858H87.5253V17.178H87.4773C86.7573 16.146 85.6533 15.498 84.0213 15.498C80.9733 15.498 78.8613 18.042 78.8613 21.642C78.8613 25.41 81.4293 27.474 84.1893 27.474C85.6773 27.474 86.6133 26.874 87.3333 26.058H87.4293V27.282C87.4293 28.77 86.7333 29.634 85.0773 29.634C83.7813 29.634 83.1333 29.082 82.9173 28.434H79.1253C79.5093 31.002 81.7413 32.394 85.1253 32.394ZM85.1013 24.57C83.6373 24.57 82.6773 23.37 82.6773 21.522C82.6773 19.65 83.6373 18.45 85.1013 18.45C86.7333 18.45 87.5973 19.842 87.5973 21.498C87.5973 23.226 86.8053 24.57 85.1013 24.57Z" fill="#15161B"/>
<path d="M98.968 25.7465C97.264 25.7465 96.376 24.2585 96.376 22.0265C96.376 19.7945 97.264 18.2825 98.968 18.2825C100.672 18.2825 101.584 19.7945 101.584 22.0265C101.584 24.2585 100.672 25.7465 98.968 25.7465ZM98.992 28.5305C102.952 28.5305 105.544 25.7225 105.544 22.0265C105.544 18.3305 102.952 15.5225 98.992 15.5225C95.056 15.5225 92.416 18.3305 92.416 22.0265C92.416 25.7225 95.056 28.5305 98.992 28.5305Z" fill="#15161B"/>
<path d="M106.686 28.1463H110.598V15.8583H106.686V28.1463ZM106.686 14.1543H110.598V10.9863H106.686V14.1543Z" fill="#15161B"/>
<path d="M112.296 32.202H116.208V26.874H116.256C117.024 27.906 118.152 28.53 119.736 28.53C122.952 28.53 125.088 25.986 125.088 22.002C125.088 18.306 123.096 15.498 119.832 15.498C118.152 15.498 116.952 16.242 116.112 17.346H116.04V15.858H112.296V32.202ZM118.728 25.506C117.048 25.506 116.088 24.138 116.088 22.146C116.088 20.154 116.952 18.642 118.656 18.642C120.336 18.642 121.128 20.034 121.128 22.146C121.128 24.234 120.216 25.506 118.728 25.506Z" fill="#15161B"/>
<path d="M131.456 28.53C134.672 28.53 137.048 27.138 137.048 24.45C137.048 21.306 134.504 20.754 132.344 20.394C130.784 20.106 129.392 19.986 129.392 19.122C129.392 18.354 130.136 17.994 131.096 17.994C132.176 17.994 132.92 18.33 133.064 19.434H136.664C136.472 17.01 134.6 15.498 131.12 15.498C128.216 15.498 125.816 16.842 125.816 19.434C125.816 22.314 128.096 22.89 130.232 23.25C131.864 23.538 133.352 23.658 133.352 24.762C133.352 25.554 132.608 25.986 131.432 25.986C130.136 25.986 129.32 25.386 129.176 24.162H125.48C125.6 26.874 127.856 28.53 131.456 28.53Z" fill="#15161B"/>
<path d="M142.363 28.5064C144.067 28.5064 145.147 27.8344 146.035 26.6344H146.107V28.1464H149.851V15.8584H145.939V22.7224C145.939 24.1864 145.123 25.1944 143.779 25.1944C142.531 25.1944 141.931 24.4504 141.931 23.1064V15.8584H138.043V23.9224C138.043 26.6584 139.531 28.5064 142.363 28.5064Z" fill="#15161B"/>
<path d="M151.552 28.146H155.464V21.258C155.464 19.794 156.184 18.762 157.408 18.762C158.584 18.762 159.136 19.53 159.136 20.85V28.146H163.048V21.258C163.048 19.794 163.744 18.762 164.992 18.762C166.168 18.762 166.72 19.53 166.72 20.85V28.146H170.632V20.154C170.632 17.394 169.24 15.498 166.456 15.498C164.872 15.498 163.552 16.17 162.592 17.658H162.544C161.92 16.338 160.696 15.498 159.088 15.498C157.312 15.498 156.136 16.338 155.368 17.61H155.296V15.858H151.552V28.146Z" fill="#15161B"/>
<path fill-rule="evenodd" clip-rule="evenodd" d="M21.4854 40.1465C32.5311 40.1465 41.4854 31.1922 41.4854 20.1465C41.4854 9.10079 32.5311 0.146484 21.4854 0.146484C10.4396 0.146484 1.48535 9.10079 1.48535 20.1465C1.48535 31.1922 10.4396 40.1465 21.4854 40.1465ZM27.7247 9.46332C28.0284 8.38453 26.9815 7.74661 26.0254 8.42778L12.6785 17.9361C11.6416 18.6748 11.8047 20.1465 12.9235 20.1465H16.4381V20.1193H23.2879L17.7066 22.0886L15.2461 30.8297C14.9424 31.9085 15.9892 32.5464 16.9454 31.8652L30.2923 22.357C31.3292 21.6183 31.166 20.1465 30.0473 20.1465H24.7175L27.7247 9.46332Z" fill="#2CAA75"/>
</svg>
