<svg width="43" height="51" viewBox="0 0 43 51" fill="none" xmlns="http://www.w3.org/2000/svg">
<path d="M21.473 21.0896C19.4735 21.0896 17.5189 20.4967 15.8564 19.3858C14.1938 18.275 12.898 16.696 12.1328 14.8487C11.3677 13.0014 11.1675 10.9687 11.5575 9.00757C11.9476 7.04647 12.9105 5.24508 14.3244 3.8312C15.7382 2.41733 17.5396 1.45447 19.5007 1.06438C21.4618 0.67429 23.4946 0.874496 25.3419 1.63968C27.1892 2.40487 28.7681 3.70066 29.879 5.3632C30.9899 7.02574 31.5828 8.98036 31.5828 10.9799C31.5793 13.6601 30.513 16.2295 28.6178 18.1247C26.7226 20.0199 24.1532 21.0861 21.473 21.0896ZM21.473 4.4252C20.1767 4.4252 18.9094 4.80963 17.8315 5.52987C16.7535 6.2501 15.9134 7.2738 15.4173 8.47152C14.9212 9.66923 14.7914 10.9872 15.0443 12.2586C15.2972 13.5301 15.9215 14.6981 16.8382 15.6147C17.7549 16.5314 18.9228 17.1557 20.1943 17.4086C21.4658 17.6615 22.7837 17.5317 23.9814 17.0356C25.1791 16.5395 26.2028 15.6994 26.9231 14.6215C27.6433 13.5436 28.0277 12.2763 28.0277 10.9799C28.0254 9.2422 27.334 7.57635 26.1053 6.34762C24.8766 5.11889 23.2107 4.42755 21.473 4.4252Z" fill="#15161B"/>
<path d="M33.01 50.87C32.5385 50.87 32.0864 50.6827 31.7531 50.3493C31.4197 50.016 31.2324 49.5639 31.2324 49.0924V41.299C31.2324 40.8276 31.4197 40.3755 31.7531 40.0421C32.0864 39.7088 32.5385 39.5215 33.01 39.5215C33.4814 39.5215 33.9335 39.7088 34.2669 40.0421C34.6002 40.3755 34.7875 40.8276 34.7875 41.299V49.0924C34.7875 49.5639 34.6002 50.016 34.2669 50.3493C33.9335 50.6827 33.4814 50.87 33.01 50.87Z" fill="#15161B"/>
<path d="M9.9416 50.87C9.47017 50.87 9.01804 50.6827 8.68469 50.3493C8.35134 50.016 8.16406 49.5639 8.16406 49.0924V41.299C8.16406 40.8276 8.35134 40.3755 8.68469 40.0421C9.01804 39.7088 9.47017 39.5215 9.9416 39.5215C10.413 39.5215 10.8652 39.7088 11.1985 40.0421C11.5319 40.3755 11.7191 40.8276 11.7191 41.299V49.0924C11.7191 49.5639 11.5319 50.016 11.1985 50.3493C10.8652 50.6827 10.413 50.87 9.9416 50.87Z" fill="#15161B"/>
<path d="M39.8258 50.8704H3.1252C2.65376 50.8704 2.20164 50.6831 1.86828 50.3498C1.53493 50.0164 1.34766 49.5643 1.34766 49.0929V38.8376C1.34766 30.8542 7.84345 24.3584 15.8268 24.3584H27.122C35.1054 24.3584 41.6012 30.8542 41.6012 38.8376V49.0929C41.6012 49.5639 41.4142 50.0157 41.0813 50.349C40.7485 50.6823 40.2969 50.8698 39.8258 50.8704ZM4.90274 47.3153H38.0483V38.8376C38.0451 35.9409 36.8928 33.1639 34.8444 31.1159C32.7959 29.0678 30.0186 27.9161 27.122 27.9135H15.8235C12.9278 27.9176 10.152 29.07 8.10472 31.1178C6.05748 33.1657 4.90597 35.9419 4.90274 38.8376V47.3153Z" fill="#2CAA75"/>
</svg>
