<svg width="127" height="21" viewBox="0 0 127 21" fill="none" xmlns="http://www.w3.org/2000/svg">
<path d="M10.6153 2.15311C10.765 1.69245 11.4167 1.69245 11.5663 2.15311L13.2237 7.25392C13.2906 7.45993 13.4826 7.59941 13.6992 7.59941H19.0625C19.5469 7.59941 19.7483 8.21922 19.3564 8.50392L15.0174 11.6564C14.8422 11.7837 14.7689 12.0094 14.8358 12.2154L16.4931 17.3162C16.6428 17.7769 16.1156 18.1599 15.7237 17.8752L11.3847 14.7227C11.2095 14.5954 10.9722 14.5954 10.7969 14.7227L6.45794 17.8752C6.06608 18.1599 5.53884 17.7769 5.68852 17.3162L7.34587 12.2154C7.41281 12.0094 7.33948 11.7837 7.16424 11.6564L2.82522 8.50392C2.43337 8.21922 2.63476 7.59941 3.11912 7.59941H8.48243C8.69904 7.59941 8.89102 7.45993 8.95796 7.25392L10.6153 2.15311Z" fill="#FE7831"/>
<path d="M36.8654 2.15311C37.0151 1.69245 37.6668 1.69245 37.8164 2.15311L39.4738 7.25392C39.5407 7.45993 39.7327 7.59941 39.9493 7.59941H45.3126C45.797 7.59941 45.9984 8.21922 45.6065 8.50392L41.2675 11.6564C41.0923 11.7837 41.019 12.0094 41.0859 12.2154L42.7432 17.3162C42.8929 17.7769 42.3657 18.1599 41.9738 17.8752L37.6348 14.7227C37.4596 14.5954 37.2223 14.5954 37.047 14.7227L32.708 17.8752C32.3162 18.1599 31.7889 17.7769 31.9386 17.3162L33.596 12.2154C33.6629 12.0094 33.5896 11.7837 33.4143 11.6564L29.0753 8.50392C28.6834 8.21922 28.8848 7.59941 29.3692 7.59941H34.7325C34.9491 7.59941 35.1411 7.45993 35.208 7.25392L36.8654 2.15311Z" fill="#FE7831"/>
<path d="M63.1154 2.15311C63.2651 1.69245 63.9168 1.69245 64.0664 2.15311L65.7238 7.25392C65.7907 7.45993 65.9827 7.59941 66.1993 7.59941H71.5626C72.047 7.59941 72.2484 8.21922 71.8565 8.50392L67.5175 11.6564C67.3423 11.7837 67.269 12.0094 67.3359 12.2154L68.9932 17.3162C69.1429 17.7769 68.6157 18.1599 68.2238 17.8752L63.8848 14.7227C63.7096 14.5954 63.4723 14.5954 63.297 14.7227L58.958 17.8752C58.5662 18.1599 58.0389 17.7769 58.1886 17.3162L59.846 12.2154C59.9129 12.0094 59.8396 11.7837 59.6643 11.6564L55.3253 8.50392C54.9334 8.21922 55.1348 7.59941 55.6192 7.59941H60.9825C61.1991 7.59941 61.3911 7.45993 61.458 7.25392L63.1154 2.15311Z" fill="#FE7831"/>
<path d="M89.3654 2.15311C89.5151 1.69245 90.1668 1.69245 90.3164 2.15311L91.9738 7.25392C92.0407 7.45993 92.2327 7.59941 92.4493 7.59941H97.8126C98.297 7.59941 98.4984 8.21922 98.1065 8.50392L93.7675 11.6564C93.5923 11.7837 93.519 12.0094 93.5859 12.2154L95.2432 17.3162C95.3929 17.7769 94.8657 18.1599 94.4738 17.8752L90.1348 14.7227C89.9596 14.5954 89.7223 14.5954 89.547 14.7227L85.208 17.8752C84.8162 18.1599 84.2889 17.7769 84.4386 17.3162L86.096 12.2154C86.1629 12.0094 86.0896 11.7837 85.9143 11.6564L81.5753 8.50392C81.1834 8.21922 81.3848 7.59941 81.8692 7.59941H87.2325C87.4491 7.59941 87.6411 7.45993 87.708 7.25392L89.3654 2.15311Z" fill="#FE7831"/>
<path d="M115.615 2.15311C115.765 1.69245 116.417 1.69245 116.566 2.15311L118.224 7.25392C118.291 7.45993 118.483 7.59941 118.699 7.59941H124.063C124.547 7.59941 124.748 8.21922 124.356 8.50392L120.017 11.6564C119.842 11.7837 119.769 12.0094 119.836 12.2154L121.493 17.3162C121.643 17.7769 121.116 18.1599 120.724 17.8752L116.385 14.7227C116.209 14.5954 115.972 14.5954 115.797 14.7227L111.458 17.8752C111.066 18.1599 110.539 17.7769 110.688 17.3162L112.346 12.2154C112.413 12.0094 112.339 11.7837 112.164 11.6564L107.825 8.50392C107.433 8.21922 107.635 7.59941 108.119 7.59941H113.482C113.699 7.59941 113.891 7.45993 113.958 7.25392L115.615 2.15311Z" fill="#FE7831"/>
</svg>
