<svg width="204" height="41" viewBox="0 0 204 41" fill="none" xmlns="http://www.w3.org/2000/svg">
<path fill-rule="evenodd" clip-rule="evenodd" d="M26.836 11.8318C25.1915 10.733 23.2581 10.1465 21.2803 10.1465V0.146484C25.2359 0.146484 29.1027 1.31946 32.3917 3.51709C35.6807 5.71471 38.2441 8.83829 39.7579 12.4928C41.2716 16.1473 41.6677 20.1687 40.896 24.0483C40.1243 27.9279 38.2195 31.4916 35.4224 34.2886C32.6254 37.0857 29.0617 38.9905 25.1821 39.7622C21.3025 40.5339 17.2811 40.1378 13.6266 38.6241C9.97207 37.1103 6.8485 34.5469 4.65088 31.2579C2.45325 27.9689 1.28027 24.1021 1.28027 20.1465H11.2803C11.2803 22.1243 11.8668 24.0577 12.9656 25.7022C14.0644 27.3467 15.6262 28.6284 17.4535 29.3853C19.2807 30.1422 21.2914 30.3402 23.2312 29.9543C25.171 29.5685 26.9528 28.6161 28.3514 27.2176C29.7499 25.819 30.7023 24.0372 31.0881 22.0974C31.474 20.1576 31.276 18.1469 30.5191 16.3197C29.7622 14.4924 28.4805 12.9306 26.836 11.8318Z" fill="#2CAA75"/>
<path fill-rule="evenodd" clip-rule="evenodd" d="M11.2803 0.14649C11.2803 1.45971 11.0216 2.76007 10.5191 3.97333C10.0165 5.18658 9.27993 6.28897 8.35134 7.21756C7.42276 8.14615 6.32037 8.88274 5.10711 9.38529C3.89385 9.88783 2.59349 10.1465 1.28027 10.1465L1.28027 20.1465C3.90671 20.1465 6.50743 19.6292 8.93395 18.6241C11.3605 17.619 13.5653 16.1458 15.4224 14.2886C17.2796 12.4315 18.7528 10.2267 19.7579 7.80016C20.763 5.37364 21.2803 2.77292 21.2803 0.146484L11.2803 0.14649Z" fill="#2CAA75"/>
<path d="M126.899 14.5996H122.047V30.0119H126.899V14.5996Z" fill="#15161B"/>
<path d="M122.587 11.7131C123.094 12.2205 123.728 12.4742 124.489 12.4742C125.25 12.4742 125.874 12.2205 126.36 11.7131C126.847 11.1846 127.09 10.5503 127.09 9.81033C127.09 9.04925 126.847 8.41497 126.36 7.90759C125.874 7.40017 125.25 7.14648 124.489 7.14648C123.728 7.14648 123.094 7.40017 122.587 7.90759C122.1 8.41497 121.857 9.04925 121.857 9.81033C121.857 10.5503 122.1 11.1846 122.587 11.7131Z" fill="#15161B"/>
<path d="M52.4365 30.0112V7.62207H57.4154V25.6349H67.3415V30.0112H52.4365Z" fill="#15161B"/>
<path fill-rule="evenodd" clip-rule="evenodd" d="M76.3076 30.36C74.722 30.36 73.2844 30.0112 71.9947 29.3135C70.7262 28.5947 69.722 27.6222 68.982 26.3959C68.2421 25.1697 67.8721 23.7955 67.8721 22.2733C67.8721 20.7511 68.2421 19.3875 68.982 18.1824C69.722 16.9773 70.7262 16.0259 71.9947 15.3283C73.2632 14.6094 74.7009 14.25 76.3076 14.25C77.9144 14.25 79.352 14.5989 80.6205 15.2965C81.889 15.9942 82.8933 16.9562 83.6332 18.1824C84.3732 19.3875 84.7432 20.7511 84.7432 22.2733C84.7432 23.7955 84.3732 25.1697 83.6332 26.3959C82.8933 27.6222 81.889 28.5947 80.6205 29.3135C79.352 30.0112 77.9144 30.36 76.3076 30.36ZM76.3076 25.952C77.0053 25.952 77.6184 25.804 78.147 25.508C78.6755 25.1909 79.0772 24.7575 79.352 24.2078C79.648 23.637 79.796 22.9921 79.796 22.2733C79.796 21.5545 79.648 20.9308 79.352 20.4023C79.056 19.8526 78.6438 19.4298 78.1152 19.1338C77.6078 18.8166 77.0053 18.6581 76.3076 18.6581C75.6311 18.6581 75.0286 18.8166 74.5 19.1338C73.9715 19.4298 73.5592 19.8526 73.2632 20.4023C72.9672 20.952 72.8193 21.5862 72.8193 22.305C72.8193 23.0027 72.9672 23.637 73.2632 24.2078C73.5592 24.7575 73.9715 25.1909 74.5 25.508C75.0286 25.804 75.6311 25.952 76.3076 25.952Z" fill="#15161B"/>
<path fill-rule="evenodd" clip-rule="evenodd" d="M88.5859 36.0363C89.8755 36.6282 91.366 36.924 93.0574 36.924C94.7064 36.924 96.1758 36.5963 97.4654 35.9409C98.7551 35.2855 99.7698 34.3765 100.51 33.2137C101.25 32.0509 101.62 30.6769 101.62 29.0912V14.5985H96.8628V15.634C96.509 15.3362 96.1072 15.0862 95.6578 14.8839C94.8332 14.4822 93.8924 14.2812 92.8354 14.2812C91.4189 14.2812 90.1609 14.6196 89.0616 15.2961C87.9621 15.9515 87.0954 16.8605 86.4611 18.0233C85.8268 19.165 85.5098 20.4548 85.5098 21.8925C85.5098 23.309 85.8268 24.5984 86.4611 25.7612C87.0954 26.924 87.9621 27.8438 89.0616 28.5203C90.1609 29.1968 91.4189 29.535 92.8354 29.535C93.8713 29.535 94.8121 29.3343 95.6578 28.9326C96.0674 28.738 96.4374 28.5087 96.7677 28.2446V29.2181C96.7677 30.2962 96.4189 31.1312 95.7212 31.7232C95.0447 32.3153 94.1039 32.6111 92.8988 32.6111C91.9263 32.6111 91.0912 32.4422 90.3935 32.1039C89.717 31.7657 89.1038 31.2687 88.5541 30.6133L85.5732 33.5942C86.3131 34.6514 87.3174 35.4655 88.5859 36.0363ZM95.4992 24.7782C95.0129 25.0742 94.4316 25.2222 93.755 25.2222C93.0785 25.2222 92.4865 25.0742 91.9791 24.7782C91.4928 24.4822 91.1123 24.0804 90.8375 23.573C90.5626 23.0445 90.4252 22.4844 90.4252 21.8925C90.4252 21.2582 90.5626 20.6872 90.8375 20.1798C91.1123 19.6724 91.5034 19.2708 92.0108 18.9748C92.5182 18.6788 93.0996 18.5308 93.755 18.5308C94.4316 18.5308 95.0129 18.6788 95.4992 18.9748C96.0066 19.2708 96.3871 19.6724 96.6409 20.1798C96.9157 20.6872 97.0531 21.2582 97.0531 21.8925C97.0531 22.5267 96.9157 23.0974 96.6409 23.6047C96.3871 24.091 96.0066 24.4822 95.4992 24.7782Z" fill="#15161B"/>
<path fill-rule="evenodd" clip-rule="evenodd" d="M111.832 30.36C110.246 30.36 108.808 30.0112 107.519 29.3135C106.25 28.5947 105.246 27.6222 104.506 26.3959C103.766 25.1697 103.396 23.7955 103.396 22.2733C103.396 20.7511 103.766 19.3875 104.506 18.1824C105.246 16.9773 106.25 16.0259 107.519 15.3283C108.787 14.6094 110.225 14.25 111.832 14.25C113.438 14.25 114.876 14.5989 116.144 15.2965C117.413 15.9942 118.417 16.9562 119.157 18.1824C119.897 19.3875 120.267 20.7511 120.267 22.2733C120.267 23.7955 119.897 25.1697 119.157 26.3959C118.417 27.6222 117.413 28.5947 116.144 29.3135C114.876 30.0112 113.438 30.36 111.832 30.36ZM111.832 25.952C112.529 25.952 113.142 25.804 113.671 25.508C114.199 25.1909 114.601 24.7575 114.876 24.2078C115.172 23.637 115.32 22.9921 115.32 22.2733C115.32 21.5545 115.172 20.9308 114.876 20.4023C114.58 19.8526 114.168 19.4298 113.639 19.1338C113.132 18.8166 112.529 18.6581 111.832 18.6581C111.155 18.6581 110.552 18.8166 110.024 19.1338C109.495 19.4298 109.083 19.8526 108.787 20.4023C108.491 20.952 108.343 21.5862 108.343 22.305C108.343 23.0027 108.491 23.637 108.787 24.2078C109.083 24.7575 109.495 25.1909 110.024 25.508C110.552 25.804 111.155 25.952 111.832 25.952Z" fill="#15161B"/>
<path fill-rule="evenodd" clip-rule="evenodd" d="M138.562 30.3279C137.527 30.3279 136.575 30.127 135.708 29.7253C135.252 29.5139 134.84 29.2617 134.472 28.9683V36.5118H129.683V14.5985H134.535V15.6622C134.887 15.3743 135.278 15.1254 135.708 14.9156C136.575 14.4927 137.527 14.2812 138.562 14.2812C140.021 14.2812 141.311 14.6302 142.431 15.3279C143.573 16.0255 144.461 16.9768 145.095 18.1819C145.751 19.387 146.078 20.7613 146.078 22.3046C146.078 23.8479 145.751 25.2221 145.095 26.4272C144.461 27.6323 143.573 28.5838 142.431 29.2815C141.311 29.9792 140.021 30.3279 138.562 30.3279ZM137.675 25.9515C138.372 25.9515 138.975 25.7931 139.482 25.476C140.011 25.1589 140.423 24.7252 140.719 24.1756C141.015 23.6259 141.163 23.0023 141.163 22.3046C141.163 21.5858 141.015 20.9515 140.719 20.4018C140.423 19.8521 140.011 19.4294 139.482 19.1334C138.975 18.8162 138.383 18.6576 137.706 18.6576C137.03 18.6576 136.427 18.8162 135.899 19.1334C135.391 19.4294 134.99 19.8521 134.694 20.4018C134.398 20.9515 134.25 21.5858 134.25 22.3046C134.25 23.0023 134.387 23.6259 134.662 24.1756C134.958 24.7252 135.37 25.1589 135.899 25.476C136.427 25.7931 137.019 25.9515 137.675 25.9515Z" fill="#15161B"/>
<path d="M150.826 30.0423C151.714 30.2749 152.612 30.3911 153.521 30.3911C155.445 30.3911 156.967 29.9472 158.088 29.0592C159.229 28.1713 159.8 26.9768 159.8 25.4757C159.8 24.5032 159.621 23.7209 159.261 23.129C158.902 22.5159 158.437 22.0296 157.866 21.6702C157.295 21.3108 156.692 21.0253 156.058 20.8139C155.424 20.6025 154.821 20.4228 154.251 20.2748C153.68 20.1268 153.215 19.9577 152.855 19.7674C152.496 19.5771 152.316 19.3234 152.316 19.0063C152.316 18.7103 152.454 18.4883 152.728 18.3403C153.003 18.1712 153.415 18.0867 153.965 18.0867C154.536 18.0867 155.117 18.2029 155.709 18.4355C156.322 18.668 156.872 19.0698 157.358 19.6406L160.117 16.8499C159.42 15.9619 158.511 15.2959 157.39 14.852C156.291 14.3869 155.086 14.1543 153.775 14.1543C152.528 14.1543 151.439 14.3657 150.509 14.7885C149.578 15.2114 148.859 15.7928 148.352 16.5327C147.845 17.2515 147.591 18.1078 147.591 19.1015C147.591 20.0317 147.771 20.8034 148.13 21.4165C148.489 22.0084 148.955 22.4736 149.525 22.8118C150.096 23.1501 150.699 23.4144 151.333 23.6046C151.967 23.7949 152.57 23.9746 153.141 24.1438C153.711 24.2918 154.177 24.4715 154.536 24.6829C154.917 24.8732 155.107 25.1586 155.107 25.5391C155.107 25.8351 154.948 26.0676 154.631 26.2368C154.335 26.4059 153.902 26.4905 153.331 26.4905C152.506 26.4905 151.745 26.3425 151.048 26.0465C150.35 25.7294 149.747 25.296 149.24 24.7463L146.481 27.537C147.01 28.1078 147.644 28.6153 148.384 29.0592C149.145 29.482 149.959 29.8097 150.826 30.0423Z" fill="#15161B"/>
<path d="M168.648 30.3607C167.232 30.3607 165.974 30.0753 164.875 29.5045C163.796 28.9125 162.951 28.1091 162.338 27.0943C161.724 26.0584 161.418 24.8745 161.418 23.5425V14.5996H166.27V23.4791C166.27 24.0076 166.354 24.4622 166.524 24.8427C166.714 25.2233 166.989 25.5193 167.348 25.7307C167.708 25.9421 168.141 26.0478 168.648 26.0478C169.367 26.0478 169.938 25.8258 170.361 25.3818C170.784 24.9167 170.995 24.2825 170.995 23.4791V14.5996H175.847V23.5108C175.847 24.8639 175.541 26.0584 174.927 27.0943C174.314 28.1091 173.469 28.9125 172.39 29.5045C171.312 30.0753 170.065 30.3607 168.648 30.3607Z" fill="#15161B"/>
<path d="M183.111 14.5985H178.259V30.0107H183.111V21.0044C183.111 20.4759 183.217 20.032 183.428 19.6726C183.661 19.3132 183.968 19.0381 184.348 18.8479C184.729 18.6364 185.162 18.5308 185.648 18.5308C186.346 18.5308 186.927 18.7528 187.392 19.1968C187.879 19.6196 188.122 20.2222 188.122 21.0044V30.0107H192.974V21.0044C192.974 20.4759 193.08 20.032 193.291 19.6726C193.524 19.3132 193.83 19.0381 194.211 18.8479C194.591 18.6364 195.025 18.5308 195.511 18.5308C196.209 18.5308 196.79 18.7528 197.255 19.1968C197.741 19.6196 197.984 20.2222 197.984 21.0044V30.0107H202.837V20.4653C202.837 19.1757 202.562 18.0763 202.012 17.1672C201.483 16.2369 200.754 15.5286 199.824 15.0424C198.915 14.5349 197.868 14.2812 196.684 14.2812C195.479 14.2812 194.39 14.5456 193.418 15.0742C192.786 15.4109 192.234 15.8454 191.761 16.3778C191.32 15.8209 190.784 15.3653 190.151 15.0107C189.306 14.5245 188.344 14.2812 187.266 14.2812C186.124 14.2812 185.099 14.5245 184.19 15.0107C183.794 15.213 183.435 15.4553 183.111 15.7376V14.5985Z" fill="#15161B"/>
</svg>
