<svg width="64" height="61" viewBox="0 0 64 61" fill="none" xmlns="http://www.w3.org/2000/svg">
<g clip-path="url(#clip0_30_60)">
<path d="M7.99365 10.3481C7.99365 8.13849 9.79232 6.34033 12.003 6.34033C14.2157 6.34033 16.0158 8.13861 16.0158 10.3481C16.0158 12.5576 14.2157 14.3559 12.003 14.3559C9.79232 14.3559 7.99365 12.5577 7.99365 10.3481ZM10.1734 10.3481C10.1734 11.3564 10.9941 12.1762 12.003 12.1762C13.0134 12.1762 13.8362 11.3568 13.8362 10.3482C13.8362 9.33964 13.0135 8.52009 12.003 8.52009C10.9941 8.52009 10.1734 9.33981 10.1734 10.3481Z" fill="#2CAA75" stroke="#F7F8FD" stroke-width="0.3"/>
<path d="M37.3761 6.34033H48.3713C50.582 6.34033 52.3807 8.13849 52.3807 10.3481C52.3807 12.5577 50.582 14.3559 48.3713 14.3559H37.3761C35.1654 14.3559 33.3667 12.5577 33.3667 10.3481C33.3667 8.13849 35.1654 6.34033 37.3761 6.34033ZM37.3761 12.1762H48.3713C49.3802 12.1762 50.2009 11.3564 50.2009 10.3481C50.2009 9.33983 49.3802 8.51997 48.3713 8.51997H37.3761C36.3673 8.51997 35.5465 9.33982 35.5465 10.3481C35.5465 11.3564 36.3672 12.1762 37.3761 12.1762Z" fill="#15161B" stroke="#F7F8FD" stroke-width="0.3"/>
<path d="M18.7729 10.3481C18.7729 8.13849 20.5716 6.34033 22.7823 6.34033C24.995 6.34033 26.7951 8.13861 26.7951 10.3481C26.7951 12.5576 24.995 14.3559 22.7823 14.3559C20.5716 14.3559 18.7729 12.5577 18.7729 10.3481ZM20.9527 10.3481C20.9527 11.3564 21.7734 12.1762 22.7823 12.1762C23.7928 12.1762 24.6155 11.3567 24.6155 10.3481C24.6155 9.33952 23.7928 8.51997 22.7823 8.51997C21.7736 8.51997 20.9527 9.33982 20.9527 10.3481Z" fill="#15161B" stroke="#F7F8FD" stroke-width="0.3"/>
<path d="M20.7266 26.8901C21.3121 27.0301 21.6733 27.618 21.5334 28.2034L19.0736 38.4965C18.9542 38.9966 18.5074 39.3334 18.0148 39.3334C17.9311 39.3334 17.8458 39.3235 17.7603 39.3031C17.1749 39.1633 16.8138 38.5753 16.9537 37.9898L19.4134 27.6968C19.5532 27.1113 20.1415 26.7499 20.7266 26.8901Z" fill="#15161B"/>
<path d="M19.0736 38.4965L21.5334 28.2034C21.6733 27.618 21.3121 27.0301 20.7266 26.8901C20.1415 26.7499 19.5532 27.1113 19.4134 27.6968L16.9537 37.9898C16.8138 38.5753 17.1749 39.1633 17.7603 39.3031C17.8458 39.3235 17.9311 39.3334 18.0148 39.3334C18.5074 39.3334 18.9542 38.9966 19.0736 38.4965ZM19.0736 38.4965L19.2195 38.5314" stroke="#F7F8FD" stroke-width="0.3"/>
<path d="M25.4134 38.128C24.9639 37.7277 24.9241 37.0387 25.3245 36.5891L28.3462 33.1969L28.4351 33.0971L28.3462 32.9974L25.3244 29.6053C24.924 29.1559 24.9638 28.467 25.4134 28.0665C25.8627 27.6663 26.5516 27.7059 26.9522 28.1555L30.4326 32.0625C30.9512 32.6398 30.9521 33.5538 30.4295 34.1356L26.9523 38.039C26.7369 38.2808 26.4383 38.404 26.1379 38.404C25.8799 38.404 25.6212 38.3131 25.4134 38.128Z" fill="#15161B" stroke="#F7F8FD" stroke-width="0.3"/>
<path d="M13.0721 28.0665C13.5216 28.4668 13.5615 29.1558 13.1612 29.6054L10.1395 32.9976L10.0507 33.0974L10.1395 33.1971L13.1613 36.5892C13.5617 37.0385 13.5219 37.7275 13.0723 38.1279C12.8646 38.3129 12.6058 38.404 12.3478 38.404C12.0472 38.404 11.7488 38.2808 11.5334 38.039L8.05296 34.132C7.53399 33.555 7.53307 32.6405 8.05642 32.0585L11.5332 28.1555C11.9337 27.7062 12.6225 27.6661 13.0721 28.0665Z" fill="#15161B" stroke="#F7F8FD" stroke-width="0.3"/>
<mask id="mask0_30_60" style="mask-type:luminance" maskUnits="userSpaceOnUse" x="0" y="0" width="64" height="61">
<path d="M60.6703 41.1404H60.21C59.9689 40.3595 59.6564 39.6055 59.2753 38.8851L59.6038 38.5554C60.1284 38.034 60.418 37.3377 60.4191 36.5949C60.4202 35.8503 60.1316 35.1512 59.6064 34.6261L58.9663 33.9864V7.57688C58.9663 3.87869 56.3566 0.870117 53.1486 0.870117H6.31772C3.10972 0.870117 0.5 3.87869 0.5 7.57688V42.2305C0.5 45.9287 3.10972 48.9373 6.31772 48.9373H13.5921C14.2768 48.9373 14.832 48.3822 14.832 47.6974C14.832 47.0127 14.2768 46.4576 13.5921 46.4576H6.31772C4.50839 46.4576 2.97976 44.5218 2.97976 42.2306V19.7366H56.4864V32.2657C56.3452 32.244 56.2021 32.2297 56.0564 32.2297C56.0549 32.2297 56.0534 32.2297 56.0521 32.2297C55.3092 32.2309 54.6129 32.5201 54.0956 33.0403L53.7604 33.374C53.0248 32.9853 52.2587 32.6692 51.4688 32.4279V31.9862C51.4688 30.4538 50.2218 29.2072 48.689 29.2072H46.4453C44.9145 29.2072 43.6691 30.4538 43.6691 31.9862V32.4581C42.894 32.7017 42.1456 33.0151 41.4303 33.3957L41.1092 33.0756C40.5876 32.5514 39.8912 32.262 39.1484 32.2609C39.147 32.2609 39.1457 32.2609 39.1442 32.2609C38.4012 32.2609 37.7036 32.5492 37.1795 33.073L35.5943 34.6574C35.069 35.1824 34.7805 35.8817 34.7816 36.6261C34.7827 37.369 35.0721 38.0652 35.5928 38.5826L35.9352 38.926C35.5635 39.6354 35.2583 40.3755 35.0221 41.1402H34.5512C33.0202 41.1402 31.7749 42.3852 31.7749 43.9157V46.1616C31.7749 46.2614 31.7804 46.36 31.7907 46.4571H24.5767C23.892 46.4571 23.3368 47.0123 23.3368 47.697C23.3368 48.3817 23.892 48.9368 24.5767 48.9368H34.5511H35.0267C35.2665 49.7088 35.5765 50.4547 35.9545 51.1688L35.6195 51.5024C34.5409 52.5868 34.5418 54.3473 35.6221 55.4267L37.2081 57.0121C37.7297 57.5362 38.426 57.8256 39.1689 57.8267H39.173C39.9161 57.8267 40.6137 57.5384 41.1378 57.0145L41.4699 56.6827C42.1904 57.0625 42.9395 57.3728 43.7107 57.6112V58.0911C43.7107 59.6235 44.956 60.8701 46.487 60.8701H48.7341C50.265 60.8701 51.5103 59.6235 51.5103 58.0911V57.6142C52.2887 57.3741 53.0409 57.0625 53.7605 56.6826L54.0911 57.012C54.6126 57.5362 55.3088 57.8255 56.0517 57.8267H56.056C56.799 57.8267 57.4966 57.5384 58.0217 57.0137L59.6035 55.4292C60.1281 54.9078 60.4176 54.2116 60.4187 53.4687C60.4198 52.7241 60.1313 52.025 59.6059 51.4999L59.2751 51.1692C59.6524 50.4545 59.9621 49.708 60.2015 48.9369H60.67C62.2028 48.9369 63.4498 47.6919 63.4498 46.1616V43.9157C63.45 42.3854 62.2031 41.1404 60.6703 41.1404ZM2.97976 17.2568V7.57688C2.97976 5.28572 4.50839 3.34988 6.31772 3.34988H53.1486C54.9579 3.34988 56.4866 5.28572 56.4866 7.57688V17.2569L2.97976 17.2568ZM60.9703 46.1618C60.9703 46.3193 60.8301 46.4574 60.6702 46.4574H59.2523C58.6742 46.4574 58.1728 46.8568 58.0437 47.4203C57.7759 48.589 57.316 49.6972 56.6765 50.7146C56.3685 51.2046 56.4405 51.8424 56.8499 52.2515L57.8531 53.2541C57.9281 53.3291 57.9392 53.4186 57.9392 53.4654C57.9391 53.5212 57.9246 53.6022 57.8522 53.674L56.2681 55.2609C56.193 55.3359 56.1033 55.3472 56.0561 55.3472C55.9998 55.3472 55.9183 55.3326 55.8456 55.2594L54.8387 54.2567C54.4291 53.8489 53.7925 53.7782 53.3035 54.0855C52.2846 54.7265 51.1717 55.1872 49.9955 55.4548C49.4312 55.5834 49.0308 56.085 49.0308 56.6639V58.0915C49.0308 58.2508 48.8922 58.3907 48.7344 58.3907H46.4872C46.3292 58.3907 46.1907 58.2509 46.1907 58.0915V56.6603C46.1907 56.081 45.7894 55.5787 45.2243 55.451C44.063 55.1884 42.9521 54.7284 41.9225 54.0842C41.7196 53.9572 41.4917 53.8952 41.2651 53.8952C40.9448 53.8952 40.6273 54.019 40.3882 54.2583L39.3851 55.2609C39.3099 55.3359 39.2203 55.3472 39.1731 55.3472C39.1732 55.3472 39.173 55.3472 39.1731 55.3472C39.1169 55.3472 39.0351 55.3326 38.964 55.261L37.3753 53.6732C37.2641 53.562 37.2653 53.365 37.3738 53.2559L38.3807 52.2531C38.7921 51.8434 38.864 51.2033 38.554 50.7125C37.9136 49.6984 37.453 48.5909 37.185 47.4207C37.0559 46.8572 36.5545 46.4576 35.9763 46.4576H34.5513C34.3906 46.4576 34.2547 46.3223 34.2547 46.1621V43.9161C34.2547 43.7559 34.3906 43.6204 34.5513 43.6204H35.9727C36.5514 43.6204 37.0533 43.22 37.1818 42.6558C37.4464 41.4931 37.9011 40.3901 38.5331 39.3772C38.8383 38.8883 38.7662 38.2535 38.3592 37.8453L37.3448 36.828C37.276 36.7596 37.2615 36.6786 37.2613 36.6228C37.2613 36.5761 37.2724 36.4866 37.3474 36.4117L38.9325 34.8274C39.0076 34.7524 39.0972 34.7411 39.1444 34.7411C39.2006 34.7412 39.2824 34.7557 39.3551 34.8288L40.3549 35.8247C40.7657 36.2338 41.4046 36.3039 41.8937 35.9935C42.9068 35.3512 44.0164 34.886 45.1916 34.611C45.7522 34.4798 46.1487 33.9796 46.1487 33.4037V31.9866C46.1487 31.8244 46.2845 31.6874 46.4452 31.6874H48.6889C48.8515 31.6874 48.989 31.8244 48.989 31.9866V33.3828C48.989 33.9638 49.3923 34.4668 49.9594 34.593C51.1391 34.8558 52.2646 35.3198 53.3046 35.9723C53.7934 36.2787 54.4294 36.2078 54.8386 35.8004L55.8496 34.7934C55.9182 34.7245 55.9994 34.7099 56.0556 34.7098C56.1028 34.7098 56.1928 34.7211 56.2678 34.7961L57.853 36.3803C57.928 36.4553 57.9391 36.5448 57.9391 36.5916C57.939 36.6474 57.9245 36.7284 57.8515 36.8008L56.8482 37.8072C56.4396 38.2169 56.3688 38.8548 56.6775 39.3442C57.3194 40.3618 57.7812 41.4762 58.0502 42.6563C58.1788 43.2204 58.6805 43.6206 59.2592 43.6206H60.6702C60.83 43.6206 60.9703 43.7589 60.9703 43.9163V46.1618Z" fill="white"/>
</mask>
<g mask="url(#mask0_30_60)">
<path d="M60.6703 41.1404H60.21C59.9689 40.3595 59.6564 39.6055 59.2753 38.8851L59.6038 38.5554C60.1284 38.034 60.418 37.3377 60.4191 36.5949C60.4202 35.8503 60.1316 35.1512 59.6064 34.6261L58.9663 33.9864V7.57688C58.9663 3.87869 56.3566 0.870117 53.1486 0.870117H6.31772C3.10972 0.870117 0.5 3.87869 0.5 7.57688V42.2305C0.5 45.9287 3.10972 48.9373 6.31772 48.9373H13.5921C14.2768 48.9373 14.832 48.3822 14.832 47.6974C14.832 47.0127 14.2768 46.4576 13.5921 46.4576H6.31772C4.50839 46.4576 2.97976 44.5218 2.97976 42.2306V19.7366H56.4864V32.2657C56.3452 32.244 56.2021 32.2297 56.0564 32.2297C56.0549 32.2297 56.0534 32.2297 56.0521 32.2297C55.3092 32.2309 54.6129 32.5201 54.0956 33.0403L53.7604 33.374C53.0248 32.9853 52.2587 32.6692 51.4688 32.4279V31.9862C51.4688 30.4538 50.2218 29.2072 48.689 29.2072H46.4453C44.9145 29.2072 43.6691 30.4538 43.6691 31.9862V32.4581C42.894 32.7017 42.1456 33.0151 41.4303 33.3957L41.1092 33.0756C40.5876 32.5514 39.8912 32.262 39.1484 32.2609C39.147 32.2609 39.1457 32.2609 39.1442 32.2609C38.4012 32.2609 37.7036 32.5492 37.1795 33.073L35.5943 34.6574C35.069 35.1824 34.7805 35.8817 34.7816 36.6261C34.7827 37.369 35.0721 38.0652 35.5928 38.5826L35.9352 38.926C35.5635 39.6354 35.2583 40.3755 35.0221 41.1402H34.5512C33.0202 41.1402 31.7749 42.3852 31.7749 43.9157V46.1616C31.7749 46.2614 31.7804 46.36 31.7907 46.4571H24.5767C23.892 46.4571 23.3368 47.0123 23.3368 47.697C23.3368 48.3817 23.892 48.9368 24.5767 48.9368H34.5511H35.0267C35.2665 49.7088 35.5765 50.4547 35.9545 51.1688L35.6195 51.5024C34.5409 52.5868 34.5418 54.3473 35.6221 55.4267L37.2081 57.0121C37.7297 57.5362 38.426 57.8256 39.1689 57.8267H39.173C39.9161 57.8267 40.6137 57.5384 41.1378 57.0145L41.4699 56.6827C42.1904 57.0625 42.9395 57.3728 43.7107 57.6112V58.0911C43.7107 59.6235 44.956 60.8701 46.487 60.8701H48.7341C50.265 60.8701 51.5103 59.6235 51.5103 58.0911V57.6142C52.2887 57.3741 53.0409 57.0625 53.7605 56.6826L54.0911 57.012C54.6126 57.5362 55.3088 57.8255 56.0517 57.8267H56.056C56.799 57.8267 57.4966 57.5384 58.0217 57.0137L59.6035 55.4292C60.1281 54.9078 60.4176 54.2116 60.4187 53.4687C60.4198 52.7241 60.1313 52.025 59.6059 51.4999L59.2751 51.1692C59.6524 50.4545 59.9621 49.708 60.2015 48.9369H60.67C62.2028 48.9369 63.4498 47.6919 63.4498 46.1616V43.9157C63.45 42.3854 62.2031 41.1404 60.6703 41.1404ZM2.97976 17.2568V7.57688C2.97976 5.28572 4.50839 3.34988 6.31772 3.34988H53.1486C54.9579 3.34988 56.4866 5.28572 56.4866 7.57688V17.2569L2.97976 17.2568ZM60.9703 46.1618C60.9703 46.3193 60.8301 46.4574 60.6702 46.4574H59.2523C58.6742 46.4574 58.1728 46.8568 58.0437 47.4203C57.7759 48.589 57.316 49.6972 56.6765 50.7146C56.3685 51.2046 56.4405 51.8424 56.8499 52.2515L57.8531 53.2541C57.9281 53.3291 57.9392 53.4186 57.9392 53.4654C57.9391 53.5212 57.9246 53.6022 57.8522 53.674L56.2681 55.2609C56.193 55.3359 56.1033 55.3472 56.0561 55.3472C55.9998 55.3472 55.9183 55.3326 55.8456 55.2594L54.8387 54.2567C54.4291 53.8489 53.7925 53.7782 53.3035 54.0855C52.2846 54.7265 51.1717 55.1872 49.9955 55.4548C49.4312 55.5834 49.0308 56.085 49.0308 56.6639V58.0915C49.0308 58.2508 48.8922 58.3907 48.7344 58.3907H46.4872C46.3292 58.3907 46.1907 58.2509 46.1907 58.0915V56.6603C46.1907 56.081 45.7894 55.5787 45.2243 55.451C44.063 55.1884 42.9521 54.7284 41.9225 54.0842C41.7196 53.9572 41.4917 53.8952 41.2651 53.8952C40.9448 53.8952 40.6273 54.019 40.3882 54.2583L39.3851 55.2609C39.3099 55.3359 39.2203 55.3472 39.1731 55.3472C39.1732 55.3472 39.173 55.3472 39.1731 55.3472C39.1169 55.3472 39.0351 55.3326 38.964 55.261L37.3753 53.6732C37.2641 53.562 37.2653 53.365 37.3738 53.2559L38.3807 52.2531C38.7921 51.8434 38.864 51.2033 38.554 50.7125C37.9136 49.6984 37.453 48.5909 37.185 47.4207C37.0559 46.8572 36.5545 46.4576 35.9763 46.4576H34.5513C34.3906 46.4576 34.2547 46.3223 34.2547 46.1621V43.9161C34.2547 43.7559 34.3906 43.6204 34.5513 43.6204H35.9727C36.5514 43.6204 37.0533 43.22 37.1818 42.6558C37.4464 41.4931 37.9011 40.3901 38.5331 39.3772C38.8383 38.8883 38.7662 38.2535 38.3592 37.8453L37.3448 36.828C37.276 36.7596 37.2615 36.6786 37.2613 36.6228C37.2613 36.5761 37.2724 36.4866 37.3474 36.4117L38.9325 34.8274C39.0076 34.7524 39.0972 34.7411 39.1444 34.7411C39.2006 34.7412 39.2824 34.7557 39.3551 34.8288L40.3549 35.8247C40.7657 36.2338 41.4046 36.3039 41.8937 35.9935C42.9068 35.3512 44.0164 34.886 45.1916 34.611C45.7522 34.4798 46.1487 33.9796 46.1487 33.4037V31.9866C46.1487 31.8244 46.2845 31.6874 46.4452 31.6874H48.6889C48.8515 31.6874 48.989 31.8244 48.989 31.9866V33.3828C48.989 33.9638 49.3923 34.4668 49.9594 34.593C51.1391 34.8558 52.2646 35.3198 53.3046 35.9723C53.7934 36.2787 54.4294 36.2078 54.8386 35.8004L55.8496 34.7934C55.9182 34.7245 55.9994 34.7099 56.0556 34.7098C56.1028 34.7098 56.1928 34.7211 56.2678 34.7961L57.853 36.3803C57.928 36.4553 57.9391 36.5448 57.9391 36.5916C57.939 36.6474 57.9245 36.7284 57.8515 36.8008L56.8482 37.8072C56.4396 38.2169 56.3688 38.8548 56.6775 39.3442C57.3194 40.3618 57.7812 41.4762 58.0502 42.6563C58.1788 43.2204 58.6805 43.6206 59.2592 43.6206H60.6702C60.83 43.6206 60.9703 43.7589 60.9703 43.9163V46.1618Z" fill="#2CAA75"/>
<path d="M39.1731 55.3472C39.2203 55.3472 39.3099 55.3359 39.3851 55.2609L40.3882 54.2583C40.6273 54.019 40.9448 53.8952 41.2651 53.8952C41.4917 53.8952 41.7196 53.9572 41.9225 54.0842C42.9521 54.7284 44.063 55.1884 45.2243 55.451C45.7894 55.5787 46.1907 56.081 46.1907 56.6603V58.0915C46.1907 58.2509 46.3292 58.3907 46.4872 58.3907H48.7344C48.8922 58.3907 49.0308 58.2508 49.0308 58.0915V56.6639C49.0308 56.085 49.4312 55.5834 49.9955 55.4548C51.1717 55.1872 52.2846 54.7265 53.3035 54.0855C53.7925 53.7782 54.4291 53.8489 54.8387 54.2567L55.8456 55.2594C55.9183 55.3326 55.9998 55.3472 56.0561 55.3472C56.1033 55.3472 56.193 55.3359 56.2681 55.2609L57.8522 53.674C57.9246 53.6022 57.9391 53.5212 57.9392 53.4654C57.9392 53.4186 57.9281 53.3291 57.8531 53.2541L56.8499 52.2515C56.4405 51.8424 56.3685 51.2046 56.6765 50.7146C57.316 49.6972 57.7759 48.589 58.0437 47.4203C58.1728 46.8568 58.6742 46.4574 59.2523 46.4574H60.6702C60.8301 46.4574 60.9703 46.3193 60.9703 46.1618V43.9163C60.9703 43.7589 60.83 43.6206 60.6702 43.6206H59.2592C58.6805 43.6206 58.1788 43.2204 58.0502 42.6563C57.7812 41.4762 57.3194 40.3618 56.6775 39.3442C56.3688 38.8548 56.4396 38.2169 56.8482 37.8072L57.8515 36.8008C57.9245 36.7284 57.939 36.6474 57.9391 36.5916C57.9391 36.5448 57.928 36.4553 57.853 36.3803L56.2678 34.7961C56.1928 34.7211 56.1028 34.7098 56.0556 34.7098C55.9994 34.7099 55.9182 34.7245 55.8496 34.7934L54.8386 35.8004C54.4294 36.2078 53.7934 36.2787 53.3046 35.9723C52.2646 35.3198 51.1391 34.8558 49.9594 34.593C49.3923 34.4668 48.989 33.9638 48.989 33.3828V31.9866C48.989 31.8244 48.8515 31.6874 48.6889 31.6874H46.4452C46.2845 31.6874 46.1487 31.8244 46.1487 31.9866V33.4037C46.1487 33.9796 45.7522 34.4798 45.1916 34.611C44.0164 34.886 42.9068 35.3512 41.8937 35.9935C41.4046 36.3039 40.7657 36.2338 40.3549 35.8247L39.3551 34.8288C39.2824 34.7557 39.2006 34.7412 39.1444 34.7411C39.0972 34.7411 39.0076 34.7524 38.9325 34.8274L37.3474 36.4117C37.2724 36.4866 37.2613 36.5761 37.2613 36.6228C37.2615 36.6786 37.276 36.7596 37.3448 36.828L38.3592 37.8453C38.7662 38.2535 38.8383 38.8883 38.5331 39.3772C37.9011 40.3901 37.4464 41.4931 37.1818 42.6558C37.0533 43.22 36.5514 43.6204 35.9727 43.6204H34.5513C34.3906 43.6204 34.2547 43.7559 34.2547 43.9161V46.1621C34.2547 46.3223 34.3906 46.4576 34.5513 46.4576H35.9763C36.5545 46.4576 37.0559 46.8572 37.185 47.4207C37.453 48.5909 37.9136 49.6984 38.554 50.7125C38.864 51.2033 38.7921 51.8434 38.3807 52.2531L37.3738 53.2559C37.2653 53.365 37.2641 53.562 37.3753 53.6732L38.964 55.261C39.0351 55.3326 39.1169 55.3472 39.1731 55.3472ZM39.1731 55.3472C39.173 55.3472 39.1732 55.3472 39.1731 55.3472ZM60.6703 41.1404H60.21C59.9689 40.3595 59.6564 39.6055 59.2753 38.8851L59.6038 38.5554C60.1284 38.034 60.418 37.3377 60.4191 36.5949C60.4202 35.8503 60.1316 35.1512 59.6064 34.6261L58.9663 33.9864V7.57688C58.9663 3.87869 56.3566 0.870117 53.1486 0.870117H6.31772C3.10972 0.870117 0.5 3.87869 0.5 7.57688V42.2305C0.5 45.9287 3.10972 48.9373 6.31772 48.9373H13.5921C14.2768 48.9373 14.832 48.3822 14.832 47.6974C14.832 47.0127 14.2768 46.4576 13.5921 46.4576H6.31772C4.50839 46.4576 2.97976 44.5218 2.97976 42.2306V19.7366H56.4864V32.2657C56.3452 32.244 56.2021 32.2297 56.0564 32.2297C56.0549 32.2297 56.0534 32.2297 56.0521 32.2297C55.3092 32.2309 54.6129 32.5201 54.0956 33.0403L53.7604 33.374C53.0248 32.9853 52.2587 32.6692 51.4688 32.4279V31.9862C51.4688 30.4538 50.2218 29.2072 48.689 29.2072H46.4453C44.9145 29.2072 43.6691 30.4538 43.6691 31.9862V32.4581C42.894 32.7017 42.1456 33.0151 41.4303 33.3957L41.1092 33.0756C40.5876 32.5514 39.8912 32.262 39.1484 32.2609C39.147 32.2609 39.1457 32.2609 39.1442 32.2609C38.4012 32.2609 37.7036 32.5492 37.1795 33.073L35.5943 34.6574C35.069 35.1824 34.7805 35.8817 34.7816 36.6261C34.7827 37.369 35.0721 38.0652 35.5928 38.5826L35.9352 38.926C35.5635 39.6354 35.2583 40.3755 35.0221 41.1402H34.5512C33.0202 41.1402 31.7749 42.3852 31.7749 43.9157V46.1616C31.7749 46.2614 31.7804 46.36 31.7907 46.4571H24.5767C23.892 46.4571 23.3368 47.0123 23.3368 47.697C23.3368 48.3817 23.892 48.9368 24.5767 48.9368H34.5511H35.0267C35.2665 49.7088 35.5765 50.4547 35.9545 51.1688L35.6195 51.5024C34.5409 52.5868 34.5418 54.3473 35.6221 55.4267L37.2081 57.0121C37.7297 57.5362 38.426 57.8256 39.1689 57.8267H39.173C39.9161 57.8267 40.6137 57.5384 41.1378 57.0145L41.4699 56.6827C42.1904 57.0625 42.9395 57.3728 43.7107 57.6112V58.0911C43.7107 59.6235 44.956 60.8701 46.487 60.8701H48.7341C50.265 60.8701 51.5103 59.6235 51.5103 58.0911V57.6142C52.2887 57.3741 53.0409 57.0625 53.7605 56.6826L54.0911 57.012C54.6126 57.5362 55.3088 57.8255 56.0517 57.8267H56.056C56.799 57.8267 57.4966 57.5384 58.0217 57.0137L59.6035 55.4292C60.1281 54.9078 60.4176 54.2116 60.4187 53.4687C60.4198 52.7241 60.1313 52.025 59.6059 51.4999L59.2751 51.1692C59.6524 50.4545 59.9621 49.708 60.2015 48.9369H60.67C62.2028 48.9369 63.4498 47.6919 63.4498 46.1616V43.9157C63.45 42.3854 62.2031 41.1404 60.6703 41.1404ZM2.97976 17.2568V7.57688C2.97976 5.28572 4.50839 3.34988 6.31772 3.34988H53.1486C54.9579 3.34988 56.4866 5.28572 56.4866 7.57688V17.2569L2.97976 17.2568Z" stroke="#F7F8FD" stroke-width="0.6"/>
</g>
<path d="M40.1853 45.0405C40.1853 40.9472 43.5171 37.6167 47.6124 37.6167C51.7057 37.6167 55.0361 40.9472 55.0361 45.0405C55.0361 49.132 51.7058 52.4609 47.6124 52.4609C43.517 52.4609 40.1853 49.1318 40.1853 45.0405ZM42.365 45.0405C42.365 47.9305 44.7191 50.2811 47.6124 50.2811C50.5038 50.2811 52.8563 47.9304 52.8563 45.0405C52.8563 42.1488 50.504 39.7965 47.6124 39.7965C44.719 39.7965 42.365 42.1487 42.365 45.0405Z" fill="#15161B" stroke="#F7F8FD" stroke-width="0.3"/>
<path d="M19.0971 46.6069H19.1215C19.7233 46.6069 20.2113 47.0949 20.2113 47.6968C20.2113 48.2986 19.7233 48.7866 19.1215 48.7866H19.0971C18.4953 48.7866 18.0073 48.2986 18.0073 47.6968C18.0073 47.0949 18.4953 46.6069 19.0971 46.6069Z" fill="#15161B" stroke="#F7F8FD" stroke-width="0.3"/>
</g>
<defs>
<clipPath id="clip0_30_60">
<rect width="63" height="61" fill="white" transform="translate(0.5)"/>
</clipPath>
</defs>
</svg>
