<svg width="48" height="61" viewBox="0 0 48 61" fill="none" xmlns="http://www.w3.org/2000/svg">
<g clip-path="url(#clip0_30_118)">
<path d="M24.3836 0.0214844C22.0138 0.0241516 19.6677 0.49356 17.4793 1.40291C15.2909 2.31225 13.3031 3.64373 11.6293 5.32132C9.95546 6.99891 8.62846 8.98975 7.72405 11.1802C6.81963 13.3706 6.35551 15.7177 6.35818 18.0875V27.1409H5.61643C4.4648 27.1409 3.36019 27.5977 2.54492 28.411C1.72964 29.2244 1.27027 30.3279 1.26758 31.4796V55.6828C1.27027 56.8344 1.72964 57.938 2.54492 58.7513C3.36019 59.5647 4.4648 60.0215 5.61643 60.0215H43.1507C44.3024 60.0215 45.407 59.5647 46.2222 58.7513C47.0375 57.938 47.4969 56.8344 47.4996 55.6828V31.4389C47.4969 30.2873 47.0375 29.1838 46.2222 28.3704C45.407 27.557 44.3024 27.1002 43.1507 27.1002H42.409V18.0875C42.4117 15.7177 41.9475 13.3706 41.0431 11.1802C40.1387 8.98975 38.8117 6.99891 37.1379 5.32132C35.4641 3.64373 33.4762 2.31225 31.2878 1.40291C29.0994 0.49356 26.7534 0.0241516 24.3836 0.0214844ZM8.39036 18.0875C8.39036 13.8459 10.0754 9.77792 13.0747 6.77861C16.074 3.7793 20.1419 2.0943 24.3836 2.0943C28.6252 2.0943 32.6932 3.7793 35.6925 6.77861C38.6918 9.77792 40.3768 13.8459 40.3768 18.0875V27.1409H36.5766V18.0875C36.5766 14.8537 35.292 11.7524 33.0054 9.46574C30.7187 7.1791 27.6174 5.89447 24.3836 5.89447C21.1498 5.89447 18.0484 7.1791 15.7618 9.46574C13.4751 11.7524 12.1905 14.8537 12.1905 18.0875V27.1409H8.39036V18.0875ZM14.2227 27.1002V18.0875C14.2227 15.3927 15.2932 12.8082 17.1988 10.9027C19.1043 8.99717 21.6887 7.92665 24.3836 7.92665C27.0784 7.92665 29.6629 8.99717 31.5684 10.9027C33.4739 12.8082 34.5445 15.3927 34.5445 18.0875V27.1409L14.2227 27.1002ZM45.4471 31.4389V55.6828C45.4444 56.2955 45.1991 56.8821 44.765 57.3144C44.3308 57.7466 43.7431 57.9893 43.1304 57.9893H5.61643C5.00377 57.9893 4.41605 57.7466 3.98188 57.3144C3.54771 56.8821 3.30244 56.2955 3.29975 55.6828V31.4389C3.30244 30.8263 3.54771 30.2396 3.98188 29.8074C4.41605 29.3751 5.00377 29.1324 5.61643 29.1324H43.1507C43.7634 29.1324 44.3511 29.3751 44.7853 29.8074C45.2195 30.2396 45.4647 30.8263 45.4674 31.4389H45.4471Z" fill="#2CAA75"/>
<path d="M28.3053 42.8813H21.2536V36.8661H28.3053C28.5748 36.8661 28.8332 36.759 29.0238 36.5685C29.2143 36.3779 29.3214 36.1195 29.3214 35.85C29.3214 35.5805 29.2143 35.322 29.0238 35.1315C28.8332 34.9409 28.5748 34.8339 28.3053 34.8339H25.3993L25.318 31.7856C25.318 31.5161 25.2109 31.2577 25.0204 31.0671C24.8298 30.8766 24.5714 30.7695 24.3019 30.7695C24.0324 30.7695 23.774 30.8766 23.5834 31.0671C23.3929 31.2577 23.2858 31.5161 23.2858 31.7856L23.3671 34.8339H20.3188C20.0493 34.8339 19.7909 34.9409 19.6003 35.1315C19.4098 35.322 19.3027 35.5805 19.3027 35.85V43.8974C19.3027 44.1669 19.4098 44.4253 19.6003 44.6159C19.7909 44.8064 20.0493 44.9135 20.3188 44.9135H27.4314L27.594 51.01L20.3188 51.2132C20.0493 51.2132 19.7909 51.3203 19.6003 51.5108C19.4098 51.7014 19.3027 51.9598 19.3027 52.2293C19.3027 52.4988 19.4098 52.7572 19.6003 52.9478C19.7909 53.1383 20.0493 53.2454 20.3188 53.2454L23.3061 53.1539V56.0193C23.3061 56.2888 23.4132 56.5472 23.6037 56.7378C23.7943 56.9284 24.0527 57.0354 24.3222 57.0354C24.5917 57.0354 24.8501 56.9284 25.0407 56.7378C25.2312 56.5472 25.3383 56.2888 25.3383 56.0193V53.0625L28.6101 52.9711C28.8796 52.9711 29.138 52.864 29.3286 52.6734C29.5191 52.4829 29.6262 52.2245 29.6262 51.955L29.4026 43.9075C29.4045 43.7661 29.3768 43.6259 29.3214 43.4958C29.266 43.3657 29.184 43.2486 29.0807 43.152C28.9774 43.0554 28.8551 42.9814 28.7215 42.9348C28.588 42.8882 28.4462 42.87 28.3053 42.8813Z" fill="#15161B"/>
<path d="M15.1372 36.1943C15.2539 36.1276 15.3564 36.0385 15.4387 35.9322C15.5211 35.8259 15.5817 35.7044 15.617 35.5747C15.6524 35.4449 15.6619 35.3095 15.6449 35.1761C15.628 35.0427 15.5849 34.914 15.5182 34.7972C15.4515 34.6804 15.3624 34.578 15.2561 34.4956C15.1498 34.4133 15.0283 34.3527 14.8986 34.3173C14.7688 34.282 14.6334 34.2725 14.5 34.2894C14.3666 34.3064 14.2378 34.3495 14.1211 34.4162C13.5927 34.721 8.88823 37.4644 8.2481 43.0631C8.02135 45.3111 8.45522 47.5764 9.49658 49.5815C10.5379 51.5866 12.1415 53.2444 14.1109 54.3518C14.2658 54.4396 14.441 54.4851 14.619 54.4839C14.797 54.4857 14.9724 54.4406 15.1276 54.3532C15.2827 54.2658 15.4122 54.1392 15.503 53.986C15.6287 53.7592 15.663 53.4929 15.5987 53.2417C15.5345 52.9904 15.3767 52.7733 15.1575 52.6346C13.529 51.7273 12.2009 50.3641 11.3362 48.7125C10.4716 47.0609 10.1081 45.1927 10.2904 43.3374C10.5091 41.859 11.0585 40.4489 11.8977 39.2121C12.7368 37.9754 13.8441 36.9438 15.1372 36.1943Z" fill="#15161B"/>
<path d="M34.2996 34.4162C34.0638 34.2814 33.7842 34.2459 33.5221 34.3173C33.2601 34.3888 33.0372 34.5614 32.9025 34.7972C32.7678 35.033 32.7322 35.3127 32.8037 35.5747C32.8751 35.8367 33.0477 36.0596 33.2835 36.1943C34.5734 36.9413 35.6793 37.9681 36.5198 39.199C37.3604 40.4299 37.9142 41.8337 38.1404 43.3069C38.3268 45.1646 37.9676 47.0363 37.1068 48.6929C36.246 50.3496 34.9209 51.7194 33.2937 52.6346C33.1781 52.7019 33.0769 52.7912 32.996 52.8976C32.915 53.0041 32.8558 53.1254 32.8218 53.2547C32.7879 53.384 32.7797 53.5188 32.7979 53.6513C32.8161 53.7837 32.8603 53.9113 32.9279 54.0267C33.0178 54.1783 33.1457 54.304 33.2989 54.3913C33.4521 54.4786 33.6254 54.5245 33.8017 54.5246C33.9797 54.5258 34.1549 54.4802 34.3098 54.3925C36.2792 53.285 37.8828 51.6272 38.9241 49.6221C39.9655 47.617 40.3994 45.3517 40.1726 43.1037C39.5426 37.5152 34.8381 34.721 34.2996 34.4162Z" fill="#15161B"/>
</g>
<defs>
<clipPath id="clip0_30_118">
<rect width="47" height="61" fill="white" transform="translate(0.5)"/>
</clipPath>
</defs>
</svg>
