<svg width="75" height="81" viewBox="0 0 75 81" fill="none" xmlns="http://www.w3.org/2000/svg">
<path d="M37.5575 31.3291C33.3699 31.3291 29.9629 34.7318 29.9629 38.9145C29.9629 43.0973 33.3699 46.5 37.5575 46.5C41.7451 46.5 45.1521 43.0973 45.1521 38.9145C45.1521 34.7318 41.7451 31.3291 37.5575 31.3291ZM37.5575 44.1587C34.662 44.1587 32.3066 41.8058 32.3066 38.9145C32.3066 36.0227 34.662 33.6698 37.5575 33.6698C40.453 33.6698 42.8083 36.0227 42.8083 38.9145C42.8083 41.8058 40.453 44.1587 37.5575 44.1587Z" fill="#2CAA75"/>
<path d="M51.3813 28.4972L47.9872 25.1073C47.5746 24.6953 46.9209 24.6489 46.4546 24.9993L43.8978 26.9182C43.1526 26.5245 42.3726 26.2023 41.5669 25.9539L41.1177 22.7916C41.0359 22.2142 40.5409 21.7852 39.9574 21.7852H35.1576C34.5735 21.7852 34.0791 22.2142 33.9967 22.7916L33.5475 25.9539C32.7418 26.2023 31.9624 26.5245 31.2172 26.9182L28.6604 24.9993C28.1935 24.6489 27.5404 24.6953 27.1272 25.1073L23.7336 28.4972C23.321 28.9098 23.2747 29.5623 23.625 30.028L25.5464 32.5823C25.1527 33.3263 24.8292 34.1051 24.5808 34.9095L21.4143 35.3588C20.8363 35.4405 20.4072 35.9349 20.4072 36.5178V41.3115C20.4072 41.8944 20.8363 42.3888 21.4143 42.4706L24.5808 42.9198C24.8292 43.7242 25.1521 44.503 25.5464 45.2471L23.625 47.8014C23.2747 48.2671 23.321 48.9195 23.7336 49.3321L27.1272 52.722C27.5404 53.134 28.1935 53.1798 28.6604 52.8301L31.2172 50.9111C31.9624 51.3042 32.7418 51.6271 33.5475 51.8755L33.9967 55.0377C34.0791 55.6151 34.5735 56.0436 35.1576 56.0436H39.9574C40.5409 56.0436 41.0353 55.6151 41.1177 55.0377L41.5669 51.8755C42.3726 51.6271 43.1526 51.3042 43.8978 50.9111L46.4546 52.8301C46.9209 53.1804 47.5746 53.134 47.9872 52.722L51.3813 49.3321C51.7939 48.9195 51.8397 48.2671 51.4894 47.8014L49.568 45.2471C49.9623 44.503 50.2852 43.7242 50.5336 42.9198L53.7001 42.4706C54.2781 42.3888 54.7078 41.8944 54.7078 41.3115V36.5178C54.7078 35.9349 54.2781 35.4405 53.7001 35.3588L50.5336 34.9095C50.2852 34.1051 49.9623 33.3263 49.568 32.5823L51.4894 30.028C51.8397 29.5623 51.7939 28.9098 51.3813 28.4972ZM52.364 37.5334V40.2953L49.4447 40.7097C48.9705 40.7769 48.5847 41.1254 48.4706 41.5905C48.1996 42.6988 47.7613 43.7554 47.1687 44.7301C46.9197 45.139 46.9453 45.6578 47.2334 46.0405L49.0046 48.3953L47.0491 50.3478L44.6919 48.579C44.3086 48.2915 43.7892 48.2653 43.3796 48.5143C42.4037 49.1057 41.3459 49.5433 40.2357 49.8149C39.7706 49.9285 39.4215 50.3136 39.3538 50.7872L38.9399 53.7029H36.1744L35.76 50.7872C35.6929 50.3136 35.3431 49.9285 34.878 49.8149C33.7678 49.5433 32.7107 49.1057 31.7347 48.5143C31.3252 48.2653 30.8058 48.2915 30.4225 48.579L28.0653 50.3478L26.1097 48.3946L27.881 46.0405C28.1685 45.6578 28.1941 45.139 27.9457 44.7301C27.353 43.7554 26.9148 42.6988 26.6432 41.5898C26.5297 41.1254 26.1439 40.7762 25.6697 40.7091L22.7504 40.2953V37.5334L25.6697 37.1196C26.1439 37.0525 26.5297 36.7034 26.6432 36.2389C26.9148 35.1299 27.353 34.074 27.9457 33.0992C28.1941 32.6897 28.1685 32.1709 27.881 31.7888L26.1097 29.4341L28.0653 27.481L30.4225 29.2504C30.8058 29.5372 31.3252 29.5635 31.7347 29.3151C32.7107 28.723 33.7678 28.2854 34.878 28.0144C35.3431 27.9003 35.6923 27.5157 35.76 27.0415L36.1744 24.1259H38.9399L39.3538 27.0415C39.4215 27.5151 39.7706 27.9003 40.2357 28.0144C41.3459 28.2854 42.4037 28.723 43.3796 29.3151C43.7892 29.5635 44.3086 29.5372 44.6919 29.2504L47.0491 27.481L49.0046 29.4341L47.2334 31.7888C46.9453 32.1709 46.9197 32.6903 47.1687 33.0992C47.7613 34.074 48.199 35.1299 48.4706 36.2383C48.5841 36.7034 48.9698 37.0525 49.4441 37.1196L52.364 37.5334Z" fill="#15161B"/>
<path d="M37.5566 9.28637C38.2042 9.28637 38.7285 8.76269 38.7285 8.11633V1.25171C38.7285 0.604736 38.2042 0.0810547 37.5566 0.0810547C36.9097 0.0810547 36.3848 0.604736 36.3848 1.25171V8.11633C36.3848 8.76269 36.9097 9.28637 37.5566 9.28637Z" fill="#15161B"/>
<path d="M72.6329 35.1143H65.7598C65.1122 35.1143 64.5879 35.6379 64.5879 36.2843C64.5879 36.9313 65.1122 37.455 65.7598 37.455H72.6329C73.2799 37.455 73.8048 36.9313 73.8048 36.2843C73.8048 35.6379 73.2799 35.1143 72.6329 35.1143Z" fill="#15161B"/>
<path d="M9.35364 35.1143H2.48047C1.8335 35.1143 1.30859 35.6379 1.30859 36.2843C1.30859 36.9313 1.8335 37.455 2.48047 37.455H9.35364C10.0006 37.455 10.5255 36.9313 10.5255 36.2843C10.5255 35.6379 10.0012 35.1143 9.35364 35.1143Z" fill="#15161B"/>
<path d="M16.7851 17.1936C17.2368 17.6447 17.9912 17.6447 18.4422 17.1936C18.9 16.7364 18.9 15.9955 18.4422 15.5383L13.5826 10.6842C13.1248 10.2277 12.3827 10.2277 11.9249 10.6842C11.4677 11.1414 11.4677 11.8823 11.9249 12.3401L16.7851 17.1936Z" fill="#15161B"/>
<path d="M11.7245 24.9196L9.34967 23.9901C8.74664 23.7545 8.06732 24.0511 7.83111 24.6529C7.59491 25.2547 7.89215 25.934 8.49457 26.1696L10.8701 27.0992C11.4651 27.3317 12.1555 27.0302 12.3886 26.4363C12.6248 25.8339 12.3276 25.1552 11.7245 24.9196Z" fill="#15161B"/>
<path d="M26.1774 10.4849C26.4106 11.0788 27.1009 11.3803 27.696 11.1478C28.2984 10.9122 28.5956 10.2328 28.36 9.63103L27.4018 7.18963C27.1662 6.58721 26.4863 6.29058 25.8832 6.52618C25.2808 6.76238 24.9836 7.44109 25.2198 8.0429L26.1774 10.4849Z" fill="#15161B"/>
<path d="M47.4164 11.1475C48.0115 11.3801 48.7018 11.0785 48.935 10.4847L49.8932 8.04327C50.1288 7.44085 49.8322 6.76214 49.2292 6.52593C48.6268 6.29095 47.9468 6.58697 47.7106 7.18877L46.753 9.63079C46.5168 10.2326 46.814 10.9113 47.4164 11.1475Z" fill="#15161B"/>
<path d="M57.4993 17.5366C57.799 17.5366 58.0993 17.4225 58.3282 17.1936L63.1878 12.3401C63.6456 11.8823 63.6456 11.1414 63.1878 10.6842C62.73 10.2277 61.9885 10.2277 61.5307 10.6842L56.6705 15.5383C56.2127 15.9955 56.2127 16.7364 56.6705 17.1936C56.8994 17.4225 57.1996 17.5366 57.4993 17.5366Z" fill="#15161B"/>
<path d="M67.2831 24.653C67.0469 24.0506 66.367 23.7545 65.7646 23.9901L63.3891 24.9197C62.7867 25.1553 62.4894 25.834 62.7256 26.4364C62.9588 27.0303 63.6491 27.3318 64.2442 27.0993L66.6197 26.1697C67.2221 25.9341 67.5193 25.2548 67.2831 24.653Z" fill="#15161B"/>
<path d="M37.7706 12.1357C32.8884 12.0942 28.124 13.4845 24.0017 16.1548C23.4585 16.507 23.3041 17.2315 23.6562 17.7741C24.0078 18.3161 24.7341 18.4705 25.2767 18.1189C28.9602 15.7337 33.2034 14.4758 37.5625 14.4758C37.6254 14.4758 37.6888 14.4758 37.7517 14.4764C43.7856 14.527 49.4503 16.9117 53.7026 21.1927C57.9574 25.4755 60.3005 31.1573 60.3005 37.1912C60.3005 44.5704 56.6891 51.5168 50.6393 55.7733C48.6434 57.1772 47.3385 59.328 47.0107 61.6797H43.0019C42.3544 61.6797 41.8301 62.204 41.8301 62.8504C41.8301 63.4967 42.3544 64.021 43.0019 64.021H46.9296V70.0232C46.9296 71.5064 45.7211 72.713 44.2361 72.713H30.8779C29.3929 72.713 28.1844 71.5064 28.1844 70.0232V64.021H38.3144C38.962 64.021 39.4863 63.4967 39.4863 62.8504C39.4863 62.204 38.962 61.6797 38.3144 61.6797H28.1014C27.778 59.325 26.4919 57.1857 24.5199 55.8051C18.442 51.5509 14.8135 44.5929 14.8135 37.1918C14.8135 31.0279 17.2866 25.2424 21.7782 20.9009C22.2433 20.4511 22.2555 19.7101 21.8051 19.2457C21.3552 18.7812 20.6136 18.769 20.1479 19.2188C15.1968 24.0052 12.4697 30.3882 12.4697 37.1918C12.4697 45.3553 16.4718 53.0304 23.1747 57.7222C24.844 58.8904 25.8407 60.8075 25.8407 62.8504V70.0232C25.8407 72.4561 27.579 74.491 29.88 74.9542C31.1532 78.0499 34.1476 80.0806 37.557 80.0806C40.9664 80.0806 43.9608 78.0499 45.2334 74.9542C47.5344 74.491 49.2727 72.4561 49.2727 70.0232V62.8534L49.2733 62.8504C49.2733 60.8136 50.2883 58.8837 51.9894 57.6868C58.6605 52.9926 62.6437 45.3308 62.6437 37.1918C62.6437 30.5359 60.0594 24.2688 55.3664 19.5441C50.6759 14.8224 44.4271 12.1912 37.7706 12.1357ZM37.557 77.7399C35.4958 77.7399 33.6459 76.7066 32.5674 75.0537H42.5466C41.4681 76.7066 39.6182 77.7399 37.557 77.7399Z" fill="#2CAA75"/>
</svg>
