<svg xmlns="http://www.w3.org/2000/svg" data-name="Layer 1" viewBox="0 0 64 64">
<path fill="#2CAA75" d="M58 8.5A1.5 1.5 0 1 0 56.5 7 1.5 1.5 0 0 0 58 8.5zm0-2a.5.5 0 1 1-.5.5.5.5 0 0 1 .5-.5zM33.8 24a4.2 4.2 0 1 0 4.2-4.2 4.2 4.2 0 0 0-4.2 4.2zm6.4 0a2.2 2.2 0 1 1-2.2-2.2 2.2 2.2 0 0 1 2.2 2.2zM10 22h2v2h-2zM6 22h2v2H6zM14 22h2v2h-2zM6 26h2v2H6zM10 26h2v2h-2zM14 26h2v2h-2zM6 30h2v2H6zM10 30h2v2h-2zM14 30h2v2h-2zM6 34h2v2H6zM10 34h2v2h-2zM14 34h2v2h-2zM6 38h2v2H6zM10 38h2v2h-2zM14 38h2v2h-2zM6 42h2v2H6zM10 42h2v2h-2zM14 42h2v2h-2zM6 46h2v2H6zM10 46h2v2h-2zM14 46h2v2h-2zM6 50h2v2H6zM10 50h2v2h-2zM14 50h2v2h-2z"/>
  <path fill="#2CAA75" d="M3 62h48a1 1 0 0 0 1-1V48a1 1 0 0 0-1-1h-7.194a1 1 0 0 0-1 1c0 .161-.013.32-.026.478a1 1 0 0 0 .344.841l.753.649q-.06.195-.132.39l-1.019.093a1 1 0 0 0-.759.469 5.742 5.742 0 0 1-.571.773 1 1 0 0 0-.224.884l.242 1.056a1.489 1.489 0 0 1-.309.2l-.958-.555a1 1 0 0 0-.884-.059 5.8 5.8 0 0 1-.936.292 1 1 0 0 0-.691.571l-.4.913h-.466l-.4-.913a1 1 0 0 0-.691-.571 5.8 5.8 0 0 1-.936-.292 1 1 0 0 0-.884.059l-.875.507a7.673 7.673 0 0 1-.367-.262l.217-.947a1 1 0 0 0-.224-.884 5.742 5.742 0 0 1-.571-.773 1 1 0 0 0-.759-.469l-1.019-.093q-.072-.195-.132-.39l.753-.649a1 1 0 0 0 .344-.841 5.814 5.814 0 0 1-.026-.478 1 1 0 0 0-1-1H26V40a1 1 0 0 0-1-1h-5V17a1 1 0 0 0-1-1h-1.08a6.991 6.991 0 0 0-13.84 0H3a1 1 0 0 0-1 1v44a1 1 0 0 0 1 1zm8-50a5.008 5.008 0 0 1 4.9 4H6.1a5.008 5.008 0 0 1 4.9-4zm-7 6h14v22a1 1 0 0 0 1 1h5v7a1 1 0 0 0 1 1h3.212a1 1 0 0 0-.191.82 8.791 8.791 0 0 0 .638 1.9 1 1 0 0 0 .816.575l1.14.105c.051.071.1.141.155.209l-.246 1.07a1 1 0 0 0 .308.968 9.21 9.21 0 0 0 1.644 1.176 1 1 0 0 0 .99-.007l.983-.57c.092.031.185.06.281.088l.45 1.019a1 1 0 0 0 .807.59 9.4 9.4 0 0 0 2.026 0 1 1 0 0 0 .807-.59l.45-1.019a5.5 5.5 0 0 0 .281-.088l.983.57a1 1 0 0 0 .851.072 3.637 3.637 0 0 0 1.91-1.379 1 1 0 0 0 .181-.83l-.246-1.07c.053-.068.1-.138.155-.209l1.14-.105a1 1 0 0 0 .816-.575 8.791 8.791 0 0 0 .638-1.9 1 1 0 0 0-.191-.82H50v11H4z"/>
  <path fill="#2CAA75" d="M63 7a5 5 0 0 0-9.9-1H38a1 1 0 0 0-1 1v8.057h-.013a1 1 0 0 0-.807.59l-.45 1.019a5.5 5.5 0 0 0-.281.088l-.983-.57a1 1 0 0 0-.988-.008 9.151 9.151 0 0 0-1.646 1.177 1 1 0 0 0-.308.968l.246 1.07c-.053.068-.1.138-.155.209l-1.14.105a1 1 0 0 0-.816.575 8.791 8.791 0 0 0-.638 1.9 1 1 0 0 0 .326.962l.849.731v.254l-.849.731a1 1 0 0 0-.326.962 8.791 8.791 0 0 0 .638 1.9 1 1 0 0 0 .816.575l1.14.105c.051.071.1.141.155.209l-.246 1.07a1 1 0 0 0 .308.968 9.208 9.208 0 0 0 1.645 1.177 1 1 0 0 0 .989-.008l.983-.57c.092.031.185.06.281.088l.45 1.019a1 1 0 0 0 .807.59 8.875 8.875 0 0 0 2.026 0 1 1 0 0 0 .807-.59l.45-1.019a5.5 5.5 0 0 0 .281-.088l.983.57a1 1 0 0 0 .851.072 3.637 3.637 0 0 0 1.91-1.379 1 1 0 0 0 .181-.83l-.246-1.07c.053-.068.1-.138.155-.209l1.14-.105a1 1 0 0 0 .816-.575 8.791 8.791 0 0 0 .638-1.9 1 1 0 0 0-.326-.962l-.849-.731v-.254l.849-.731a1 1 0 0 0 .326-.962 8.791 8.791 0 0 0-.638-1.9 1 1 0 0 0-.816-.575l-1.14-.105c-.051-.071-.1-.141-.155-.209l.246-1.07a1 1 0 0 0-.308-.968 9.2 9.2 0 0 0-1.646-1.177 1 1 0 0 0-.989.008l-.983.57c-.092-.031-.185-.06-.281-.088l-.45-1.019a1 1 0 0 0-.807-.59H37V8.057h15.9A5 5 0 1 0 63 7zm-10 3h-2V8h2zm-6 2h-2V8h2zm-6 0h-2V8h2zm-2-3V9a1 1 0 0 0-1-1H40V8h-3V7a1 1 0 0 0-1-1H38zm3.282 14.144c.16.07.319.14.482.201l-.46 1.042c-.07-.021-.142-.041-.213-.06zm5.872 1.554l-1.059.098a7.5 7.5 0 0 1-.212-.408zm-7.456-.662 1.059-.098c.07.137.14.271.212.408zm5.853 5.848-.46-1.042c.163.061.322.131.482.201zm-6.021.201-.46 1.042c-.071-.021-.143-.039-.213-.06zm-1.013-5.649-.982.569c.093-.031.185-.06.281-.088zm-1.682 2.793c.044.049.086.1.132.147l-.217.947a7.482 7.482 0 0 1-.155-.208zm-.256 2.7-.246-1.07a8.534 8.534 0 0 0 .155-.208l.217.947c-.046.047-.088.1-.132.147zM49 39a2 2 0 0 1-2-2v-1a2 2 0 0 1 2-2h2a2 2 0 0 1 2 2v1a2 2 0 0 1-2 2zM50 8a3 3 0 0 1 0 6z"/>
</svg>