<svg width="71" height="81" viewBox="0 0 71 81" fill="none" xmlns="http://www.w3.org/2000/svg">
<path d="M65.6024 49.1909C64.2334 48.7861 62.7957 48.9377 61.5518 49.6159L58.3481 51.36C58.3138 51.2896 58.2778 51.2177 58.2403 51.149C57.5621 49.9019 56.4353 48.994 55.0679 48.5892C53.7005 48.1845 52.2613 48.336 51.0173 49.0143L45.3211 52.1163L33.4724 48.2985C29.3889 46.9827 25.4055 47.3562 21.6346 49.4096L11.7721 54.7761L10.7391 52.9821C10.4313 52.4445 9.9312 52.0601 9.33111 51.8991C8.73258 51.7381 8.11061 51.8194 7.57927 52.1273L2.28313 55.1762C1.17827 55.8153 0.800088 57.2327 1.43769 58.336L13.3411 79.0065C13.7709 79.7472 14.5491 80.1629 15.3492 80.1613C15.7415 80.1613 16.1369 80.0613 16.4994 79.8519L21.7956 76.803C22.8957 76.1654 23.2755 74.7495 22.6426 73.6447L21.6549 71.9303L22.0815 71.6975C24.2725 70.5051 26.5885 70.2879 28.9639 71.0537L34.0897 72.7055C35.2805 73.0899 36.4588 73.2806 37.6215 73.2806C39.4405 73.2806 41.2173 72.8102 42.9332 71.8741L66.6401 58.9721C67.8871 58.297 68.7967 57.1718 69.2014 55.8044C69.6061 54.437 69.4561 52.9977 68.7779 51.7538C68.0965 50.5051 66.9714 49.5956 65.6024 49.1909ZM52.2128 51.2084C52.8707 50.8505 53.6333 50.7708 54.36 50.9849C55.0883 51.2005 55.6868 51.6819 56.0431 52.3382C56.0822 52.4101 56.1165 52.4836 56.1494 52.5586L50.6438 55.5559C50.1703 54.587 49.4124 53.7775 48.4716 53.2446L52.2128 51.2084ZM15.4117 77.5922L3.69429 57.2452L8.66538 54.3839L20.3844 74.7308L15.4117 77.5922ZM66.8041 55.0933C66.5885 55.82 66.1072 56.417 65.4461 56.7749L41.7362 69.68C39.5468 70.8755 37.2323 71.0927 34.8554 70.327L29.7296 68.6752C26.6776 67.6906 23.7021 67.9688 20.8845 69.5034L20.4063 69.7644L13.0207 56.9405L22.8301 51.6022C25.9775 49.8894 29.3014 49.5769 32.7066 50.6755L46.7291 55.1949C47.7652 55.5262 48.5263 56.4467 48.6654 57.539C48.6701 57.5719 48.6763 57.6031 48.6841 57.6344C48.6826 57.6766 48.681 57.7188 48.6841 57.7625C48.6998 58.1001 48.656 58.4314 48.5529 58.7517C48.0747 60.2332 46.4791 61.049 44.9945 60.5723C43.3036 60.0285 41.6143 59.4831 39.9234 58.9393C37.648 58.2063 35.3727 57.4734 33.0958 56.7405C32.4394 56.5295 31.7346 56.8905 31.5236 57.5469C31.3127 58.2032 31.6737 58.908 32.33 59.119C34.6069 59.8503 36.8823 60.5833 39.1561 61.3162C40.847 61.8616 42.5379 62.4054 44.2287 62.9493C44.7695 63.1227 45.318 63.2056 45.8571 63.2056C48.1075 63.2056 50.2031 61.7678 50.9282 59.5175C51.0767 59.0596 51.1611 58.5861 51.1798 58.1063L62.7457 51.8085C63.4036 51.449 64.1662 51.3709 64.8929 51.585C65.6211 51.8006 66.2197 52.282 66.5791 52.943C66.9401 53.6041 67.0182 54.3667 66.8041 55.0933Z" fill="#2CAA75"/>
<path d="M44.3367 46.3855C53.7757 46.3855 61.4535 38.7047 61.4535 29.2641C61.4535 19.8251 53.7741 12.1474 44.3367 12.1474C34.8978 12.1474 27.22 19.8267 27.22 29.2641C27.22 38.7047 34.8993 46.3855 44.3367 46.3855ZM44.3367 14.6462C52.3974 14.6462 58.9546 21.2035 58.9546 29.2641C58.9546 37.3279 52.3974 43.8867 44.3367 43.8867C36.2761 43.8867 29.7188 37.3263 29.7188 29.2641C29.7188 21.2035 36.2761 14.6462 44.3367 14.6462ZM44.3367 41.7207C51.2034 41.7207 56.7887 36.1324 56.7887 29.2641C56.7887 22.3974 51.2019 16.8122 44.3367 16.8122C37.47 16.8122 31.8848 22.399 31.8848 29.2641C31.8848 36.1324 37.4716 41.7207 44.3367 41.7207ZM44.3367 19.311C49.8251 19.311 54.2898 23.7758 54.2898 29.2641C54.2898 34.7556 49.8251 39.2219 44.3367 39.2219C38.8484 39.2219 34.3836 34.754 34.3836 29.2641C34.3836 23.7758 38.8484 19.311 44.3367 19.311ZM40.7127 26.9294C40.7127 25.3776 41.7051 24.0539 43.0865 23.5554V22.5084C43.0865 21.8192 43.646 21.2597 44.3352 21.2597C45.0243 21.2597 45.5838 21.8192 45.5838 22.5084V23.4273C46.4261 23.6101 47.1903 24.0961 47.7138 24.804C48.1233 25.3588 48.0061 26.1418 47.4513 26.5512C46.8965 26.9606 46.1136 26.8434 45.7041 26.2887C45.4947 26.0058 45.1791 25.8433 44.8352 25.8433H44.2945C43.696 25.8433 43.21 26.3308 43.21 26.9294C43.21 27.5279 43.6976 28.0139 44.2945 28.0139H44.5649C44.6587 28.0139 44.7509 28.0249 44.8384 28.0452C46.5965 28.2733 47.9576 29.7798 47.9576 31.5973C47.9576 33.1491 46.9653 34.4727 45.5838 34.9713V36.023C45.5838 36.7122 45.0243 37.2716 44.3352 37.2716C43.646 37.2716 43.0865 36.7122 43.0865 36.023V35.0994C42.2427 34.9166 41.4785 34.4321 40.9565 33.7257C40.5471 33.171 40.6643 32.388 41.2191 31.9786C41.7738 31.5692 42.5568 31.6864 42.9662 32.2411C43.1725 32.5209 43.4897 32.6818 43.8351 32.6818H44.3758C44.9743 32.6818 45.4603 32.1943 45.4603 31.5973C45.4603 31.0003 44.9728 30.5127 44.3758 30.5127H44.1054C44.0117 30.5127 43.9195 30.5018 43.832 30.4815C42.0754 30.2533 40.7127 28.7484 40.7127 26.9294ZM43.0881 8.02799V1.40977C43.0881 0.719032 43.6476 0.161133 44.3367 0.161133C45.0259 0.161133 45.5854 0.720595 45.5854 1.40977V8.02799C45.5854 8.71872 45.0259 9.27662 44.3367 9.27662C43.6476 9.27662 43.0881 8.71716 43.0881 8.02799ZM53.8742 10.2471L57.1825 4.51494C57.5279 3.91797 58.292 3.71325 58.889 4.05705C59.486 4.40242 59.6907 5.1666 59.3469 5.76357L56.0386 11.4957C55.8073 11.8958 55.3869 12.1208 54.9556 12.1208C54.743 12.1208 54.5289 12.0661 54.332 11.9536C53.7335 11.6082 53.5288 10.8441 53.8742 10.2471ZM61.6472 19.2704C61.3019 18.6734 61.5066 17.9092 62.1051 17.5639L67.8373 14.2555C68.4342 13.9102 69.1984 14.1149 69.5438 14.7134C69.8892 15.3104 69.6844 16.0746 69.0859 16.4199L63.3538 19.7283C63.1569 19.8423 62.9428 19.8955 62.7302 19.8955C62.2989 19.8955 61.8785 19.6704 61.6472 19.2704ZM29.3281 5.76357C28.9828 5.1666 29.1875 4.40242 29.786 4.05705C30.383 3.71169 31.1472 3.91641 31.4925 4.51494L34.8009 10.2471C35.1462 10.8441 34.9415 11.6082 34.343 11.9536C34.1461 12.0677 33.932 12.1208 33.7194 12.1208C33.2881 12.1208 32.8678 11.8973 32.6365 11.4957L29.3281 5.76357ZM19.1297 14.7118C19.475 14.1149 20.2377 13.9102 20.8362 14.254L26.5683 17.5623C27.1653 17.9077 27.37 18.6718 27.0262 19.2688C26.7949 19.6689 26.3746 19.8939 25.9432 19.8939C25.7307 19.8939 25.5166 19.8392 25.3197 19.7267L19.5876 16.4184C18.9906 16.073 18.7859 15.3104 19.1297 14.7118Z" fill="black"/>
</svg>
